<?xml version="1.0" standalone="no"?>
<!DOCTYPE svg PUBLIC "-//W3C//DTD SVG 1.1//EN" "http://www.w3.org/Graphics/SVG/1.1/DTD/svg11.dtd" >
<svg xmlns="http://www.w3.org/2000/svg" xmlns:xlink="http://www.w3.org/1999/xlink" version="1.1">
<metadata>
Created by FontForge 20170731 at Wed Oct 12 08:51:58 2022
 By Aleksey,,,
Copyright (c) 2017 by Matthieu Salvaggio. All rights reserved.
</metadata>
<defs>
<font id="ATSurt-BoldExp" horiz-adv-x="0" >
  <font-face 
    font-family="AT Surt Bold Exp"
    font-weight="700"
    font-stretch="semi-expanded"
    units-per-em="2048"
    panose-1="2 0 0 5 0 0 0 0 0 0"
    ascent="1556"
    descent="-492"
    x-height="1075"
    cap-height="1556"
    bbox="-1720 -1004 3191 2071"
    underline-thickness="102"
    underline-position="-307"
    unicode-range="U+0020-25CA"
  />
<missing-glyph horiz-adv-x="1421" 
d="M168 0v1538h1087v-1538h-1087zM369 338l571 999h-571v-999zM481 201h574v999z" />
    <glyph glyph-name=".notdef" horiz-adv-x="1421" 
d="M168 0v1538h1087v-1538h-1087zM369 338l571 999h-571v-999zM481 201h574v999z" />
    <glyph glyph-name=".null" 
 />
    <glyph glyph-name="nonmarkingreturn" horiz-adv-x="682" 
 />
    <glyph glyph-name="space" unicode=" " horiz-adv-x="522" 
 />
    <glyph glyph-name="exclam" unicode="!" horiz-adv-x="665" 
d="M182 473v1083h303v-1083h-303zM164 0v315h338v-315h-338z" />
    <glyph glyph-name="quotedbl" unicode="&#x22;" horiz-adv-x="1130" 
d="M270 870l-53 385v283h270v-283l-53 -385h-164zM696 870l-53 385v283h270v-283l-53 -385h-164z" />
    <glyph glyph-name="numbersign" unicode="#" horiz-adv-x="1861" 
d="M262 0l109 416h-271v209h322l76 282h-262v209h313l119 440h272l-119 -440h363l119 440h274l-119 -440h297v-209h-348l-74 -282h309v-209h-360l-111 -416h-274l113 416h-365l-110 -416h-273zM696 625h365l72 282h-361z" />
    <glyph glyph-name="dollar" unicode="$" horiz-adv-x="1574" 
d="M1507 432q0 -195 -148 -306t-419 -130v-297h-303v311q-140 21 -247.5 69.5t-174.5 117t-103.5 148t-45.5 171.5h299q28 -99 86.5 -153t185.5 -76v375q-102 23 -175.5 46t-147 59.5t-119 80.5t-73.5 108t-28 144q0 101 42 179.5t118 128.5t171 79.5t212 40.5v219h303v-227
q136 -19 239 -70t166 -125.5t96 -164.5t38 -197h-295q-17 125 -75 188.5t-169 83.5v-367q78 -16 136.5 -31.5t120.5 -36.5t106 -44.5t84.5 -56t65.5 -70.5t39.5 -88t14.5 -109zM391 1102q0 -64 57.5 -97.5t188.5 -60.5v320q-246 -24 -246 -162zM940 260q129 10 201.5 46
t72.5 110q0 68 -65.5 103.5t-208.5 62.5v-322z" />
    <glyph glyph-name="percent" unicode="%" horiz-adv-x="2258" 
d="M446 698q-195 0 -305 123.5t-110 323.5t110 323t305 123t305.5 -123t110.5 -323t-110.5 -323.5t-305.5 -123.5zM459 -33l1038 1620h219l-1038 -1620h-219zM446 868q98 0 152.5 76.5t54.5 200.5t-54.5 200t-152.5 76t-152 -76t-54 -200q0 -125 54 -201t152 -76zM1749 -18
q-104 0 -185 35.5t-130.5 97.5t-75 141.5t-25.5 171.5t25.5 171.5t75 141.5t130.5 97.5t185 35.5t185 -35.5t130.5 -97.5t75 -141.5t25.5 -171.5t-25.5 -171.5t-75 -141.5t-130.5 -97.5t-185 -35.5zM1749 154q54 0 95 24.5t64 65.5t34.5 87.5t11.5 96.5t-11.5 96.5
t-34.5 87.5t-64 65.5t-95 24.5t-95 -24.5t-64 -65.5t-34.5 -87.5t-11.5 -96.5t11.5 -96.5t34.5 -87.5t64 -65.5t95 -24.5z" />
    <glyph glyph-name="ampersand" unicode="&#x26;" horiz-adv-x="1611" 
d="M1544 0h-311l-84 96q-75 -43 -189 -69.5t-235 -26.5q-293 0 -476 147.5t-183 376.5q0 155 91 278t240 185l-186 207v362h1067v-260h-799l191 -217q151 29 362 29h115v-246h-115q-66 0 -188 -8l305 -358q40 102 43 241h272q-4 -135 -40.5 -265t-92.5 -210zM741 254
q143 0 232 59l-402 457q-91 -37 -146.5 -101.5t-55.5 -146.5q0 -116 104.5 -192t267.5 -76z" />
    <glyph glyph-name="quotesingle" unicode="'" horiz-adv-x="704" 
d="M270 870l-53 385v283h270v-283l-53 -385h-164z" />
    <glyph glyph-name="parenleft" unicode="(" horiz-adv-x="722" 
d="M401 -238q-574 844 0 1688h263q-507 -844 0 -1688h-263z" />
    <glyph glyph-name="parenright" unicode=")" horiz-adv-x="722" 
d="M322 -238h-263q507 844 0 1688h263q574 -844 0 -1688z" />
    <glyph glyph-name="asterisk" unicode="*" horiz-adv-x="1210" 
d="M338 666l-148 118l293 281l-372 133l82 170l337 -160l-20 348l190 3l-18 -351l336 160l80 -170l-367 -133l291 -281l-148 -118l-268 321z" />
    <glyph glyph-name="plus" unicode="+" horiz-adv-x="1234" 
d="M1135 635v-211h-414v-367h-209v367h-414v211h414v364h209v-364h414z" />
    <glyph glyph-name="comma" unicode="," horiz-adv-x="536" 
d="M117 -315l121 315h-140v315h340v-315l-155 -315h-166z" />
    <glyph glyph-name="hyphen" unicode="-" horiz-adv-x="1091" 
d="M997 416h-901v250h901v-250z" />
    <glyph glyph-name="period" unicode="." horiz-adv-x="536" 
d="M98 0v315h340v-315h-340z" />
    <glyph glyph-name="slash" unicode="/" horiz-adv-x="929" 
d="M12 -238l625 1794h281l-625 -1794h-281z" />
    <glyph glyph-name="zero" unicode="0" horiz-adv-x="1638" 
d="M819 -33q-179 0 -320.5 62t-232 172t-137.5 256.5t-47 320.5t47 320.5t137.5 256.5t232 172t320.5 62q180 0 321.5 -62t231 -172t136 -256.5t46.5 -320.5t-46.5 -320.5t-136 -256.5t-231 -172t-321.5 -62zM819 236q136 0 232 72t141 192t45 278t-45 278.5t-141 192.5
t-232 72t-231.5 -72t-141 -193t-45.5 -278t45.5 -277.5t141 -192.5t231.5 -72z" />
    <glyph glyph-name="one" unicode="1" horiz-adv-x="901" 
d="M401 0v1253h-340v303h641v-1556h-301z" />
    <glyph glyph-name="two" unicode="2" horiz-adv-x="1550" 
d="M156 -2v305q427 241 698 430q141 101 205.5 187t64.5 172q0 107 -90.5 168t-245.5 61q-177 0 -284 -78t-107 -235q0 -37 23 -121h-320q-18 68 -18 127q0 126 45 230.5t132 182t223.5 120t310.5 42.5q317 0 485 -132.5t168 -352.5q0 -138 -74 -254.5t-233 -239.5
q-168 -133 -492 -307h821v-305h-1312z" />
    <glyph glyph-name="three" unicode="3" horiz-adv-x="1587" 
d="M782 -33q-293 0 -474.5 112.5t-225.5 321.5h324q60 -170 385 -170q217 0 313 70.5t96 190.5q0 126 -111 192t-360 66h-217v235l520 289h-839v282h1191v-323l-497 -264l22 -2q272 0 433 -128t161 -352q1 -88 -22.5 -163.5t-77.5 -142t-136.5 -113.5t-205.5 -74t-279 -27z
" />
    <glyph glyph-name="four" unicode="4" horiz-adv-x="1548" 
d="M1464 594v-303h-307v-291h-301v291h-774v323l602 942h342l-600 -962h430v340h301v-340h307z" />
    <glyph glyph-name="five" unicode="5" horiz-adv-x="1568" 
d="M772 -33q-287 0 -481 120.5t-209 313.5h328q7 -74 108 -122t242 -48q192 0 307 82.5t115 216.5q0 133 -110 216t-275 83q-127 0 -219.5 -51.5t-128.5 -136.5h-338l256 915h970v-282h-751l-97 -316q61 55 162 87t223 32q273 0 442 -152.5t169 -394.5q0 -256 -193 -409.5
t-520 -153.5z" />
    <glyph glyph-name="six" unicode="6" horiz-adv-x="1579" 
d="M795 -33q-335 0 -508.5 197.5t-173.5 552.5q0 254 88 451t252.5 308t380.5 111q226 0 373 -111t173 -302h-317q-19 79 -88.5 121t-161.5 42q-165 0 -269 -138.5t-118 -371.5q67 103 191.5 163.5t281.5 60.5q252 0 408.5 -144t156.5 -375q0 -256 -184 -410.5t-485 -154.5z
M795 231q152 0 245 77.5t93 207.5q0 129 -93 208t-245 79t-246 -79t-94 -208t93 -207t247 -78z" />
    <glyph glyph-name="seven" unicode="7" horiz-adv-x="1318" 
d="M193 0l706 1253h-817v303h1153v-303l-698 -1253h-344z" />
    <glyph glyph-name="eight" unicode="8" horiz-adv-x="1583" 
d="M793 -35q-153 0 -276.5 28.5t-203 75t-133 109.5t-76 128.5t-22.5 135.5q0 149 89 254t237 138q-116 41 -180 126.5t-64 198.5q0 65 21.5 125t70 116t120 97t179 65.5t238.5 24.5q133 0 241 -24.5t178.5 -65t118 -95.5t68 -114t20.5 -123q0 -116 -64 -203t-179 -128
q146 -33 234.5 -136.5t88.5 -255.5q0 -70 -21.5 -135.5t-73.5 -128.5t-130.5 -109.5t-202 -75t-278.5 -28.5zM791 954q151 0 229 55.5t78 139.5t-78 140.5t-229 56.5q-152 0 -232 -56.5t-80 -140.5t80 -139.5t232 -55.5zM791 229q191 0 284.5 65.5t93.5 160.5
q0 44 -19.5 82.5t-61 72t-118 53t-179.5 19.5q-197 0 -289 -64t-92 -163q0 -95 94 -160.5t287 -65.5z" />
    <glyph glyph-name="nine" unicode="9" horiz-adv-x="1533" 
d="M735 -33q-274 0 -449.5 113.5t-197.5 286.5h326q17 -69 104 -111.5t213 -42.5q95 0 174 37.5t129 98.5t77.5 137.5t27.5 156.5v41q-68 -80 -193.5 -127t-271.5 -47q-138 0 -250 41.5t-185 113.5t-112 166.5t-39 202.5q0 109 43 208t123.5 177t210 124t289.5 46
q338 0 518 -195t180 -575q0 -185 -47.5 -340.5t-137 -269.5t-226 -178t-306.5 -64zM754 758q166 0 266 75.5t100 200.5q0 132 -100 211.5t-264 79.5q-166 0 -266.5 -79.5t-100.5 -211.5q0 -124 100.5 -200t264.5 -76z" />
    <glyph glyph-name="colon" unicode=":" horiz-adv-x="536" 
d="M98 739v316h340v-316h-340zM98 0v315h340v-315h-340z" />
    <glyph glyph-name="semicolon" unicode=";" horiz-adv-x="536" 
d="M98 739v316h340v-316h-340zM117 -315l121 315h-140v315h340v-315l-155 -315h-166z" />
    <glyph glyph-name="less" unicode="&#x3c;" horiz-adv-x="1200" 
d="M1047 0l-930 582v200l930 576v-246l-736 -430l736 -426v-256z" />
    <glyph glyph-name="equal" unicode="=" horiz-adv-x="1536" 
d="M250 682v209h1036v-209h-1036zM250 233v209h1036v-209h-1036z" />
    <glyph glyph-name="greater" unicode="&#x3e;" horiz-adv-x="1202" 
d="M152 0v256l735 426l-735 430v246l929 -576v-200z" />
    <glyph glyph-name="question" unicode="?" horiz-adv-x="1370" 
d="M508 424v27q0 124 46 210t146 175q30 26 76 62.5t71 58t52 50t39 57.5t12 62q0 86 -73 140.5t-189 54.5q-145 0 -222 -87t-63 -228h-301q-17 261 142.5 422t449.5 161q253 0 411.5 -121t158.5 -317q0 -42 -9 -82t-22.5 -71t-37.5 -63.5t-45 -55.5t-53.5 -51t-55 -45.5
t-58.5 -44.5t-55 -42q-55 -44 -84 -86.5t-43 -95.5q-13 -47 -13 -90h-280zM477 0v315h338v-315h-338z" />
    <glyph glyph-name="at" unicode="@" horiz-adv-x="2234" 
d="M1272 -330q-337 0 -595.5 123t-400 348t-141.5 518q0 270 121 477t342 321t510 114q220 0 404.5 -69t313.5 -192.5t201 -301.5t72 -390q0 -284 -121 -459t-317 -175q-153 0 -253.5 106t-100.5 285q-72 -178 -275 -178q-174 0 -283.5 125t-109.5 331q0 201 104 325
t273 124q173 0 272 -127v98h207v-633q0 -129 48 -206.5t124 -77.5q96 0 156.5 121t60.5 311q0 178 -56 325.5t-157.5 250.5t-246.5 159.5t-318 56.5q-336 0 -545 -197t-209 -519q0 -175 66 -322t185 -249t290.5 -159t376.5 -57h176v-207h-174zM1071 354q96 0 152.5 74.5
t56.5 196.5v45q0 124 -56.5 197t-154.5 73q-99 0 -161 -79t-62 -210q0 -134 62.5 -215.5t162.5 -81.5z" />
    <glyph glyph-name="A" unicode="A" horiz-adv-x="1699" 
d="M12 0l678 1556h322l676 -1556h-336l-158 367h-686l-160 -367h-336zM608 649h484l-242 555z" />
    <glyph glyph-name="B" unicode="B" horiz-adv-x="1605" 
d="M193 0v1556h630q131 0 237.5 -24.5t186 -73t123 -126.5t43.5 -179q0 -114 -66.5 -199t-172.5 -108q144 -25 236.5 -133.5t92.5 -257.5q0 -215 -157.5 -335t-434.5 -120h-718zM498 930h276q154 0 238 43t84 129q0 89 -75 138.5t-222 49.5h-301v-360zM498 266h336
q161 0 256.5 54t95.5 165q0 107 -96.5 163.5t-268.5 56.5h-323v-439z" />
    <glyph glyph-name="C" unicode="C" horiz-adv-x="1863" 
d="M946 -33q-194 0 -352.5 61.5t-262.5 169.5t-160 254t-56 316q0 177 58.5 328t165.5 260t266 171t351 62q169 0 314.5 -51.5t246.5 -139.5t164.5 -203t79.5 -245h-325q-32 156 -165.5 261.5t-328.5 105.5q-155 0 -270.5 -72t-173.5 -193.5t-58 -275.5q0 -234 135.5 -385
t370.5 -151q195 0 326.5 106t163.5 262h325q-17 -133 -80.5 -249t-165 -203.5t-248.5 -138t-321 -50.5z" />
    <glyph glyph-name="D" unicode="D" horiz-adv-x="1761" 
d="M881 0h-688v1556h679q191 0 333.5 -42t245 -132.5t154.5 -240.5t52 -359q0 -410 -190.5 -597t-585.5 -185zM500 272h334q124 0 211.5 24t154 80.5t99 156t32.5 245.5q0 275 -118 390.5t-379 115.5h-334v-1012z" />
    <glyph glyph-name="E" unicode="E" horiz-adv-x="1615" 
d="M498 303h927v-303h-1232v1556h1193v-303h-888v-313h807v-283h-807v-354z" />
    <glyph glyph-name="F" unicode="F" horiz-adv-x="1402" 
d="M1366 1253h-868v-313h774v-283h-774v-657h-305v1556h1173v-303z" />
    <glyph glyph-name="G" unicode="G" horiz-adv-x="1904" 
d="M1024 -33q-277 0 -483 100.5t-316 285t-110 429.5q0 246 105.5 429.5t295.5 280.5t440 97q322 0 545 -158.5t260 -408.5h-325q-39 132 -167.5 213.5t-312.5 81.5q-236 0 -376 -143t-140 -392q0 -250 155 -396t431 -146q135 0 258 40t186 113v185h-575v262h866v-541
q-99 -150 -301.5 -241t-435.5 -91z" />
    <glyph glyph-name="H" unicode="H" horiz-adv-x="1751" 
d="M1251 1556h310v-1556h-310v647h-751v-647h-307v1556h307v-616h751v616z" />
    <glyph glyph-name="I" unicode="I" horiz-adv-x="634" 
d="M164 0v1556h307v-1556h-307z" />
    <glyph glyph-name="J" unicode="J" horiz-adv-x="1437" 
d="M670 -33q-302 0 -462 137.5t-177 403.5h319q18 -138 90 -203t219 -65q54 0 96.5 8t74 27.5t53.5 41.5t37 61.5t23.5 74.5t13 94t5.5 107t1 124v778h311v-882q0 -138 -15.5 -242t-56.5 -194.5t-108 -148t-173.5 -90t-250.5 -32.5z" />
    <glyph glyph-name="K" unicode="K" horiz-adv-x="1560" 
d="M1509 0h-379l-630 678v-678h-307v1556h307v-661l594 661h376l-706 -768z" />
    <glyph glyph-name="L" unicode="L" horiz-adv-x="1394" 
d="M498 303h866v-303h-1171v1556h305v-1253z" />
    <glyph glyph-name="M" unicode="M" horiz-adv-x="2060" 
d="M193 0v1556h337l502 -1208l500 1208h336v-1556h-305v938l-381 -938h-303l-381 938v-938h-305z" />
    <glyph glyph-name="N" unicode="N" horiz-adv-x="1751" 
d="M193 0v1556h296l762 -1056v1056h310v-1556h-310l-751 1020v-1020h-307z" />
    <glyph glyph-name="O" unicode="O" horiz-adv-x="1931" 
d="M969 -33q-196 0 -358 62t-270 171t-167 257.5t-59 320.5t59 320.5t167 257.5t270 171t358 62q195 0 356 -62t268.5 -171t166.5 -257.5t59 -320.5t-59 -320.5t-166.5 -257.5t-268.5 -171t-356 -62zM965 240q122 0 222.5 44t165.5 119t100.5 171.5t35.5 203.5t-35.5 204
t-100.5 171.5t-165.5 119t-222.5 44.5q-121 0 -221.5 -44.5t-165.5 -119t-100.5 -171.5t-35.5 -204t35.5 -203.5t101 -171.5t165.5 -119t221 -44z" />
    <glyph glyph-name="P" unicode="P" horiz-adv-x="1515" 
d="M193 0v1556h657q259 0 411 -122t152 -351t-154.5 -351t-429.5 -122h-331v-610h-305zM498 879h286q144 0 228 48t84 152q0 103 -82 157t-230 54h-286v-411z" />
    <glyph glyph-name="Q" unicode="Q" horiz-adv-x="1931" 
d="M1819 778q0 -198 -77 -364.5t-220 -276.5l297 -272h-365l-166 151q-140 -49 -319 -49q-196 0 -358 62t-270 171t-167 257.5t-59 320.5t59 320.5t167 257.5t270 171t358 62q195 0 356 -62t268.5 -171t166.5 -257.5t59 -320.5zM965 240q25 0 75 4l-258 237h365l147 -135
q95 74 146 188t51 244q0 107 -35.5 203.5t-100.5 171.5t-166 119.5t-224 44.5q-122 0 -223 -44.5t-166 -119t-100.5 -171.5t-35.5 -204t35.5 -203.5t100.5 -171.5t166 -119t223 -44z" />
    <glyph glyph-name="R" unicode="R" horiz-adv-x="1533" 
d="M193 0v1556h630q274 0 432 -116.5t158 -335.5q0 -105 -44.5 -188.5t-123 -136.5t-178.5 -83t-219 -37l655 -659h-375l-630 637v-637h-305zM498 897h305q122 0 206.5 48t84.5 145q0 98 -81.5 149t-230.5 51h-284v-393z" />
    <glyph glyph-name="S" unicode="S" horiz-adv-x="1525" 
d="M827 -33q-183 0 -324.5 39.5t-232.5 112.5t-141.5 169.5t-62.5 215.5h329q41 -147 154.5 -211t296.5 -64q140 0 220.5 46.5t80.5 132.5q0 35 -18 65t-42.5 50t-65.5 38.5t-72.5 29t-76.5 23.5q-36 11 -108.5 30t-136.5 38t-123 41q-83 31 -143 64.5t-111.5 81t-78 112
t-26.5 145.5q0 98 37.5 177.5t99 132t145 87.5t171.5 50.5t182 15.5q298 0 464 -141t175 -379h-327q-6 60 -29 106.5t-55 74.5t-75.5 46t-85.5 24.5t-89 6.5q-42 0 -84.5 -7t-90 -24.5t-77 -55.5t-29.5 -91q-1 -66 45.5 -107t149.5 -73q40 -12 79.5 -23t105 -29.5
t124.5 -35.5q133 -35 182 -55q297 -116 295 -400q1 -230 -160 -344.5t-471 -114.5z" />
    <glyph glyph-name="T" unicode="T" horiz-adv-x="1370" 
d="M1358 1253h-520v-1253h-306v1253h-520v303h1344z" />
    <glyph glyph-name="U" unicode="U" horiz-adv-x="1701" 
d="M877 -33q-118 0 -214 17.5t-166.5 48.5t-123.5 78.5t-87 103.5t-55 128t-29.5 146.5t-8.5 165.5v901h307v-792q0 -76 2.5 -127.5t11 -111t24 -98.5t43.5 -77.5t67.5 -60.5t97 -35.5t131.5 -13.5q52 0 96 6t78 19t62 29.5t48 41.5t35 50t25 60.5t16 67.5t9 77t4 83t1 90
v792h310v-901q0 -93 -9 -169t-30 -148t-56 -128t-88 -102.5t-123.5 -77t-165.5 -47t-212 -16.5z" />
    <glyph glyph-name="V" unicode="V" horiz-adv-x="1736" 
d="M709 0l-678 1556h340l497 -1204l498 1204h340l-676 -1556h-321z" />
    <glyph glyph-name="W" unicode="W" horiz-adv-x="2512" 
d="M498 0l-467 1556h340l305 -1204l389 1204h381l391 -1204l305 1204h340l-467 -1556h-340l-420 1241l-419 -1241h-338z" />
    <glyph glyph-name="X" unicode="X" horiz-adv-x="1630" 
d="M1579 0h-360l-404 557l-401 -557h-363l580 784l-541 772h363l362 -532l367 532h358l-539 -772z" />
    <glyph glyph-name="Y" unicode="Y" horiz-adv-x="1587" 
d="M641 0v543l-596 1013h342l408 -739l405 739h342l-596 -1013v-543h-305z" />
    <glyph glyph-name="Z" unicode="Z" horiz-adv-x="1564" 
d="M494 303h981v-303h-1369v303l900 950h-877v303h1262l2 -303z" />
    <glyph glyph-name="bracketleft" unicode="[" horiz-adv-x="909" 
d="M825 1198h-344v-1184h344v-252h-632v1688h632v-252z" />
    <glyph glyph-name="backslash" unicode="\" horiz-adv-x="929" 
d="M918 -238h-281l-625 1794h281z" />
    <glyph glyph-name="bracketright" unicode="]" horiz-adv-x="909" 
d="M86 -238v252h344v1184h-344v252h633v-1688h-633z" />
    <glyph glyph-name="asciicircum" unicode="^" horiz-adv-x="1116" 
d="M760 778l-201 531l-199 -531h-233l293 670h280l289 -670h-229z" />
    <glyph glyph-name="underscore" unicode="_" horiz-adv-x="1818" 
d="M233 -360v217h1352v-217h-1352z" />
    <glyph glyph-name="grave" unicode="`" horiz-adv-x="706" 
d="M-39 1556h379l244 -358h-250z" />
    <glyph glyph-name="a" unicode="a" horiz-adv-x="1185" 
d="M440 -23q-92 0 -162.5 26.5t-112 72t-62.5 101.5t-21 120q0 157 125 248q144 104 512 104h65v56q0 87 -41.5 132.5t-134.5 45.5q-95 0 -137.5 -42.5t-46.5 -101.5h-291q2 59 16 109.5t48.5 99.5t87.5 83.5t137 55.5t192 21q236 0 356 -109t120 -364v-367v-139v-129h-295
v143h-4q-47 -76 -138 -121t-213 -45zM555 182q57 0 103 17.5t73 44t41 55t14 53.5v140h-45q-104 0 -181 -17.5t-125 -58.5t-48 -103q0 -64 44.5 -97.5t123.5 -33.5z" />
    <glyph glyph-name="b" unicode="b" horiz-adv-x="1325" 
d="M760 1108q235 0 377.5 -156t142.5 -411q0 -258 -143 -416t-375 -158q-106 0 -210.5 43t-160.5 113v-123h-295v1556h303v-614q66 77 163 121.5t198 44.5zM694 209q130 0 209.5 90t79.5 238q0 150 -80 240.5t-213 90.5q-132 0 -211.5 -80.5t-79.5 -212.5v-86
q0 -127 80.5 -203.5t214.5 -76.5z" />
    <glyph glyph-name="c" unicode="c" horiz-adv-x="1257" 
d="M621 -33q-270 0 -423 159t-153 413q0 257 152 413t421 156q236 0 389 -122.5t167 -319.5h-297q-17 99 -83 150.5t-169 51.5q-134 0 -207.5 -85.5t-73.5 -243.5t73.5 -245t207.5 -87q101 0 169 54t85 145h297q-8 -89 -49 -168t-110 -139.5t-171.5 -96t-224.5 -35.5z" />
    <glyph glyph-name="d" unicode="d" horiz-adv-x="1396" 
d="M973 1556h303v-1556h-297v123q-58 -70 -160.5 -113t-206.5 -43q-233 0 -376.5 158t-143.5 416q0 255 143 411t379 156q102 0 197 -44.5t162 -121.5v614zM973 502v86q0 126 -79.5 202t-211.5 76t-211.5 -88.5t-79.5 -236.5q0 -150 80.5 -241t212.5 -91q131 0 210 80
t79 213z" />
    <glyph glyph-name="e" unicode="e" horiz-adv-x="1257" 
d="M621 -33q-180 0 -312 74t-198 202.5t-66 295.5q0 256 152 412.5t415 156.5q161 0 287.5 -60.5t201.5 -180t75 -281.5v-129h-828q14 -118 86 -184t195 -66q98 0 165 43t85 104h297q-8 -70 -49 -138t-109.5 -124t-172.5 -90.5t-224 -34.5zM350 643h524q0 106 -72.5 165.5
t-185.5 59.5q-117 0 -191.5 -59t-74.5 -166z" />
    <glyph glyph-name="f" unicode="f" horiz-adv-x="782" 
d="M203 0v807h-146v268h146v125q0 389 385 389q124 0 172 -12v-242q-36 6 -72 6q-182 0 -182 -143v-123h237v-268h-237v-807h-303z" />
    <glyph glyph-name="g" unicode="g" horiz-adv-x="1325" 
d="M926 1075h303v-932q0 -173 -35.5 -295.5t-107.5 -197t-173 -108.5t-239 -34q-247 0 -395.5 98t-188.5 288h295q23 -73 95.5 -114.5t178.5 -41.5q143 0 203.5 73.5t63.5 245.5v76q-132 -166 -361 -166q-239 0 -379.5 160t-140.5 418q0 162 56.5 287.5t172.5 200.5t277 75
q248 0 375 -174v141zM926 502v86q0 132 -82 205t-211 73q-140 0 -219.5 -84.5t-79.5 -240.5q0 -159 80.5 -245.5t220.5 -86.5q131 0 211 75.5t80 217.5z" />
    <glyph glyph-name="h" unicode="h" horiz-adv-x="1345" 
d="M96 0v1556h303v-643q66 101 170 148t222 47q205 0 319.5 -116t114.5 -326v-666h-303v547q0 164 -61.5 242.5t-174.5 78.5q-123 0 -205 -91.5t-82 -241.5v-535h-303z" />
    <glyph glyph-name="i" unicode="i" horiz-adv-x="512" 
d="M96 1268v288h322v-288h-322zM104 0v1075h304v-1075h-304z" />
    <glyph glyph-name="j" unicode="j" horiz-adv-x="571" 
d="M154 1268v288h321v-288h-321zM96 -492q-53 0 -99 3t-65 7l-20 3v225q25 -6 72 -6q180 0 180 170v1165h303v-1218q0 -161 -93 -255t-278 -94z" />
    <glyph glyph-name="k" unicode="k" horiz-adv-x="1089" 
d="M1069 2h-315l-355 399v-401h-303v1556h303v-958l326 477h315l-389 -536z" />
    <glyph glyph-name="l" unicode="l" horiz-adv-x="493" 
d="M96 0v1556h303v-1556h-303z" />
    <glyph glyph-name="m" unicode="m" horiz-adv-x="2168" 
d="M1622 1108q205 0 315.5 -117.5t110.5 -345.5v-645h-303v557q0 311 -225 311q-132 0 -213.5 -90.5t-81.5 -242.5v-535h-303v557q0 311 -228 311q-131 0 -213 -90.5t-82 -242.5v-535h-303v1075h303v-162q130 195 398 195q283 0 383 -219q159 219 442 219z" />
    <glyph glyph-name="n" unicode="n" horiz-adv-x="1345" 
d="M96 0v1075h303v-162q66 101 170 148t222 47q203 0 318.5 -121t115.5 -332v-655h-303v547q0 164 -61.5 242.5t-174.5 78.5q-123 0 -205 -91.5t-82 -241.5v-535h-303z" />
    <glyph glyph-name="o" unicode="o" horiz-adv-x="1273" 
d="M639 -33q-268 0 -431 160.5t-163 411.5q0 253 162.5 411t431.5 158t429.5 -158t160.5 -411q0 -123 -41.5 -228.5t-117 -181.5t-187 -119t-244.5 -43zM637 207q137 0 216 87t79 245q0 156 -79 242.5t-216 86.5q-136 0 -214.5 -86t-78.5 -243q0 -158 78.5 -245t214.5 -87z
" />
    <glyph glyph-name="p" unicode="p" horiz-adv-x="1325" 
d="M760 1108q235 0 377.5 -156t142.5 -411q0 -258 -143 -416t-375 -158q-105 0 -205 43t-158 113v-615h-303v1567h297v-133q64 76 164.5 121t202.5 45zM694 209q130 0 209.5 90t79.5 238q0 150 -80 240.5t-213 90.5q-132 0 -211.5 -80.5t-79.5 -212.5v-86
q0 -127 80.5 -203.5t214.5 -76.5z" />
    <glyph glyph-name="q" unicode="q" horiz-adv-x="1394" 
d="M932 1075h297v-1567h-303v615q-58 -70 -158 -113t-203 -43q-233 0 -376.5 158t-143.5 416q0 255 142.5 411t377.5 156q104 0 203.5 -45t163.5 -121v133zM926 502v86q0 126 -80.5 202t-212.5 76q-131 0 -210 -88.5t-79 -236.5q0 -151 79.5 -241.5t211.5 -90.5t211.5 80
t79.5 213z" />
    <glyph glyph-name="r" unicode="r" horiz-adv-x="831" 
d="M96 0v1075h293v-203q82 147 201 195q86 35 227 35v-305h-41q-177 0 -277 -101.5t-100 -271.5v-424h-303z" />
    <glyph glyph-name="s" unicode="s" horiz-adv-x="1177" 
d="M625 -33q-268 0 -413 104.5t-161 280.5h285q41 -159 287 -159q198 0 198 102q0 20 -7.5 37t-24.5 29.5t-34.5 22t-48 18.5t-54 14.5t-62.5 13.5q-93 19 -162.5 39t-133 49.5t-103 66t-63 87.5t-24.5 114q0 83 38.5 146.5t106.5 101t155 56t190 18.5q241 0 365 -95
t135 -265h-291q-15 139 -223 139q-85 0 -142 -24t-57 -79q0 -14 5.5 -26.5t19 -24t27 -20t40 -18.5t47 -16.5t58.5 -16t63.5 -15t73.5 -16.5q55 -13 93 -23.5t83 -26.5t75 -32.5t60.5 -41.5t48 -53.5t28.5 -67.5t11 -85q0 -164 -126 -249t-363 -85z" />
    <glyph glyph-name="t" unicode="t" horiz-adv-x="845" 
d="M586 -20q-210 1 -299.5 87.5t-89.5 260.5v479h-146v242q92 0 126 38.5t34 131.5v133h289v-277h243v-268h-243v-391q0 -91 44.5 -123.5t149.5 -32.5h74v-270q-92 -10 -182 -10z" />
    <glyph glyph-name="u" unicode="u" horiz-adv-x="1331" 
d="M537 -33q-208 0 -319.5 117.5t-111.5 345.5v645h304v-557q0 -311 227 -311q131 0 213 91.5t82 244.5v532h303v-1075h-303v172q-129 -205 -395 -205z" />
    <glyph glyph-name="v" unicode="v" horiz-adv-x="1239" 
d="M469 0l-449 1075h318l237 -653l43 -111h5l39 111l239 653h318l-451 -1075h-299z" />
    <glyph glyph-name="w" unicode="w" horiz-adv-x="2041" 
d="M469 0l-449 1075h318l280 -764h5l258 764h280l258 -764h4l281 764h315l-446 -1075h-301l-248 774h-6l-250 -774h-299z" />
    <glyph glyph-name="x" unicode="x" horiz-adv-x="1134" 
d="M1114 1075l-358 -536l358 -537h-313l-234 356l-235 -356h-312l359 537l-359 536h312l229 -362l240 362h313z" />
    <glyph glyph-name="y" unicode="y" horiz-adv-x="1239" 
d="M274 -492l195 494l-449 1073h318l242 -663l38 -105h5l36 105l242 663h318l-420 -1001l-221 -566h-304z" />
    <glyph glyph-name="z" unicode="z" horiz-adv-x="1259" 
d="M422 244h768v-244h-1108v244l721 587h-705v244h1043l2 -244z" />
    <glyph glyph-name="braceleft" unicode="{" horiz-adv-x="833" 
d="M631 -238q-75 0 -135 12t-102.5 32.5t-73.5 52.5t-50 67.5t-30.5 83.5t-16 93.5t-4.5 103.5q0 41 -0.5 62t-2 50t-3 41.5t-5.5 31t-8.5 25t-13 16.5t-17.5 12.5t-23 6.5t-29 4.5t-37 0.5v297q22 0 37 0.5t29 4t23 6t17.5 12.5t13 16.5t8.5 24.5t5.5 31t3 41.5t2 49
t0.5 61.5q0 58 4.5 103.5t16 93.5t30.5 83.5t50 67.5t73.5 52.5t102.5 32.5t135 12h121v-232h-70q-36 0 -66 -7t-51.5 -18t-38.5 -30t-28.5 -36.5t-19 -45.5t-11.5 -49t-6.5 -53.5t-3 -53t-1 -55t-1.5 -51.5q-3 -89 -29.5 -130t-108.5 -60v-41q83 -19 109 -60.5t29 -130.5
q1 -17 1.5 -53t1 -56t3 -53.5t6.5 -53.5t12 -48t19 -45t28.5 -36t39 -29.5t51 -17.5t65.5 -7h70v-232h-121z" />
    <glyph glyph-name="bar" unicode="|" horiz-adv-x="802" 
d="M250 -492v2048h303v-2048h-303z" />
    <glyph glyph-name="braceright" unicode="}" horiz-adv-x="833" 
d="M203 -238h-121v232h70q45 0 79.5 11t57.5 26t40 44.5t25.5 51.5t13.5 64t6.5 65t2.5 70.5t2 66.5q5 91 30 131.5t107 59.5v41q-81 19 -106.5 59t-30.5 131q-1 17 -1.5 51.5t-1 55t-3 53t-6.5 53.5t-11.5 49t-19 45.5t-28.5 36.5t-38.5 30t-51.5 18t-66 7h-70v232h121
q104 0 179 -23t119 -60.5t69.5 -98t34 -120.5t9.5 -143q0 -50 0.5 -75.5t3 -57t6 -44.5t11 -29.5t16.5 -21.5t25 -11t33.5 -7t44.5 -1v-297q-27 0 -44.5 -1t-33.5 -7t-25 -11t-16.5 -22t-11 -30.5t-6 -45t-3 -57.5t-0.5 -76q-1 -83 -9.5 -143t-34 -120.5t-69.5 -98
t-119 -60.5t-179 -23z" />
    <glyph glyph-name="asciitilde" unicode="~" horiz-adv-x="1574" 
d="M1026 612q-63 0 -119 19t-95.5 46t-75.5 54.5t-74 46.5t-76 19q-54 0 -93.5 -35.5t-39.5 -112.5v-26h-203v30q0 132 86.5 227t236.5 95q65 0 120.5 -17.5t94.5 -43t74 -51t73 -43t77 -17.5q110 0 110 129v24h203v-20q0 -61 -17 -116.5t-51 -103t-93.5 -76t-137.5 -28.5z
" />
    <glyph glyph-name="exclamdown" unicode="&#xa1;" horiz-adv-x="665" 
d="M164 1241v315h338v-315h-338zM182 0v1083h303v-1083h-303z" />
    <glyph glyph-name="cent" unicode="&#xa2;" horiz-adv-x="1153" 
d="M381 0v238q-162 52 -249 180.5t-87 304.5q0 177 87.5 303.5t248.5 177.5v244h334v-231q154 -35 249.5 -137t104.5 -244h-270q-15 91 -74.5 137.5t-153.5 46.5q-121 0 -188.5 -77.5t-67.5 -219.5q0 -145 66.5 -223t189.5 -78q92 0 153.5 48t78.5 130h268
q-13 -133 -106 -236.5t-250 -138.5v-225h-334z" />
    <glyph glyph-name="sterling" unicode="&#xa3;" horiz-adv-x="1259" 
d="M66 -2v254q62 4 137 40.5t137 100.5t74 133q13 58 4 111h-350v197h235q-35 37 -46.5 50t-39 49t-38.5 60t-21.5 61.5t-10.5 75.5q0 47 12 89.5t38.5 87t75.5 80.5t117 64.5t169 44t225 15.5q190 0 330 -49v-252q-156 58 -309 58q-92 0 -172 -17.5t-138.5 -61
t-58.5 -106.5q0 -29 16 -62.5t34.5 -57t53.5 -65t52 -64.5h438v-197h-352q10 -80 -4 -145q-10 -92 -77 -159.5t-148 -80.5v-4h780v-250h-1163z" />
    <glyph glyph-name="currency" unicode="&#xa4;" horiz-adv-x="1452" 
d="M281 94l-236 236l184 168q-55 94 -55 217q0 126 57 231l-186 170l236 238l180 -172q110 55 252 55q159 0 266 -63l190 180l238 -238l-201 -182q45 -102 45 -219q0 -116 -45 -205l199 -180l-236 -236l-180 164q-113 -70 -276 -70q-153 0 -260 62zM713 414q124 0 196 78.5
t72 222.5q0 143 -72 221t-196 78q-123 0 -195 -78t-72 -221q0 -144 71.5 -222.5t195.5 -78.5z" />
    <glyph glyph-name="yen" unicode="&#xa5;" horiz-adv-x="1681" 
d="M1636 1483l-553 -809h209v-199h-307v-84h307v-201h-307v-190h-289v190h-307v201h307v84h-307v199h211l-555 809h317l478 -709l477 709h319z" />
    <glyph glyph-name="brokenbar" unicode="&#xa6;" horiz-adv-x="802" 
d="M250 727v834h303v-834h-303zM250 -492v912h303v-912h-303z" />
    <glyph glyph-name="section" unicode="&#xa7;" horiz-adv-x="1222" 
d="M981 408q87 -31 132.5 -94t45.5 -142q0 -150 -142 -238t-378 -88q-256 0 -413.5 102t-174.5 283h297q18 -71 95 -115t198 -44q97 0 161 27.5t64 72.5q0 13 -5.5 24.5t-17.5 21.5t-25 18t-34.5 16.5t-39 14.5t-45.5 14t-47.5 13t-51 12.5t-49.5 12.5q-75 18 -130 35
t-122.5 46.5t-110.5 64t-72.5 86t-29.5 113.5q0 77 44.5 144.5t129.5 104.5q-83 32 -128.5 94.5t-45.5 139.5q0 147 136 233t362 86q251 0 394 -107t155 -300h-297q-18 92 -86.5 139t-176.5 47q-88 0 -141 -28.5t-53 -69.5q0 -20 10.5 -36.5t32 -29.5t45.5 -23.5t59.5 -20.5
t65 -17.5t71 -17.5t68.5 -17q175 -50 257 -93q171 -90 171 -228q0 -78 -46.5 -148.5t-131.5 -107.5zM379 684q0 -61 75.5 -103t196.5 -51q105 -9 160 19.5t55 77.5q0 60 -72.5 100t-179.5 53q-108 13 -171.5 -14.5t-63.5 -81.5z" />
    <glyph glyph-name="dieresis" unicode="&#xa8;" horiz-adv-x="1075" 
d="M190 1317v239h248v-239h-248zM596 1317v239h244v-239h-244z" />
    <glyph glyph-name="copyright" unicode="&#xa9;" horiz-adv-x="1701" 
d="M852 254q-331 0 -534 184.5t-203 485.5t203 485t534 184q218 0 385 -83t258.5 -235.5t91.5 -350.5t-91.5 -350.5t-258.5 -236t-385 -83.5zM852 381q274 0 441 149.5t167 393.5q0 245 -166.5 393.5t-441.5 148.5q-274 0 -443 -149t-169 -393q0 -243 169 -393t443 -150z
M866 559q-170 0 -271 100t-101 265t100.5 265.5t265.5 100.5q146 0 243.5 -78.5t104.5 -205.5h-178q-10 60 -57 95.5t-113 35.5q-84 0 -135 -58.5t-51 -154.5t51 -153.5t137 -57.5q67 0 114 34.5t56 90.5h178q-1 -123 -98.5 -201t-245.5 -78z" />
    <glyph glyph-name="guillemotleft" unicode="&#xab;" horiz-adv-x="1417" 
d="M786 997l-405 -454l405 -455h-319l-406 455l406 454h319zM1358 997l-406 -454l406 -455h-320l-405 455l405 454h320z" />
    <glyph glyph-name="logicalnot" unicode="&#xac;" horiz-adv-x="1234" 
d="M926 59v367h-828v211h1037v-578h-209z" />
    <glyph glyph-name="registered" unicode="&#xae;" horiz-adv-x="1187" 
d="M594 733q-215 0 -347 120t-132 316q0 198 132 318.5t347 120.5t347 -120.5t132 -318.5q0 -196 -132 -316t-347 -120zM594 827q173 0 279 94.5t106 247.5q0 155 -106 249.5t-279 94.5q-174 0 -280.5 -94.5t-106.5 -249.5q0 -152 107 -247t280 -95zM438 961v423h172
q72 0 118 -34t46 -101q0 -110 -135 -125l164 -163h-117l-154 157v-157h-94zM532 1200h66q78 0 78 49q0 29 -22 42.5t-56 13.5h-66v-105z" />
    <glyph glyph-name="macron" unicode="&#xaf;" horiz-adv-x="1112" 
d="M887 1253h-781v222h781v-222z" />
    <glyph glyph-name="degree" unicode="&#xb0;" horiz-adv-x="935" 
d="M469 1100q-121 0 -195.5 67t-74.5 176q0 110 74.5 178t195.5 68q120 0 193 -68t73 -178q0 -109 -73 -176t-193 -67zM469 1225q56 0 90.5 32t34.5 86t-34.5 86.5t-90.5 32.5q-57 0 -92 -32.5t-35 -86.5t35 -86t92 -32z" />
    <glyph glyph-name="plusminus" unicode="&#xb1;" horiz-adv-x="1234" 
d="M100 0v211h412v213h-414v211h414v364h209v-364h414v-211h-414v-213h416v-211h-1037z" />
    <glyph glyph-name="uni00B2" unicode="&#xb2;" horiz-adv-x="825" 
d="M86 694v197q284 189 342 235q123 97 123 168q0 50 -37.5 78.5t-97.5 28.5q-63 0 -107.5 -36t-44.5 -116q0 -52 10 -90h-208q-9 61 -9 90q0 146 91.5 234t275.5 88q166 0 250 -72.5t84 -191.5q0 -133 -125 -246q-72 -67 -242 -170h377v-197h-682z" />
    <glyph glyph-name="uni00B3" unicode="&#xb3;" horiz-adv-x="860" 
d="M428 678q-162 0 -256.5 66t-114.5 190h211q22 -88 160 -88q87 0 132.5 34.5t45.5 92.5q0 121 -194 121h-140v143l254 139h-415v176h639v-206l-226 -119l4 -2q123 0 197.5 -69t75.5 -187q2 -131 -93.5 -211t-279.5 -80z" />
    <glyph glyph-name="acute" unicode="&#xb4;" horiz-adv-x="706" 
d="M504 1556l-371 -358h-252l244 358h379z" />
    <glyph glyph-name="paragraph" unicode="&#xb6;" horiz-adv-x="1775" 
d="M1139 0h-271v614h-219q-70 0 -137.5 13t-137.5 46.5t-122 85t-85.5 135.5t-33.5 191q0 104 32.5 187t84 135t120.5 86.5t137.5 48.5t139.5 14h492v-1556zM1305 0v1556h307v-1556h-307z" />
    <glyph glyph-name="periodcentered" unicode="&#xb7;" horiz-adv-x="536" 
d="M98 381v315h340v-315h-340z" />
    <glyph glyph-name="cedilla" unicode="&#xb8;" horiz-adv-x="620" 
d="M281 -104h38q89 0 143 -39.5t54 -104.5q0 -77 -69 -121.5t-203 -44.5h-129v117h125q46 0 74 12.5t28 34.5q0 19 -28 30t-74 11h-103v105l166 167h160z" />
    <glyph glyph-name="uni00B9" unicode="&#xb9;" horiz-adv-x="489" 
d="M201 696v662h-170v194h364v-856h-194z" />
    <glyph glyph-name="guillemotright" unicode="&#xbb;" horiz-adv-x="1417" 
d="M59 88l406 455l-406 454h320l405 -454l-405 -455h-320zM631 88l405 455l-405 454h319l406 -454l-406 -455h-319z" />
    <glyph glyph-name="onequarter" unicode="&#xbc;" horiz-adv-x="1843" 
d="M231 -33l945 1620h227l-944 -1620h-228zM201 700v660h-170v196h366v-856h-196zM1749 340v-195h-158v-145h-190v145h-432v207l319 504h223l-319 -516h209v174h190v-174h158z" />
    <glyph glyph-name="onehalf" unicode="&#xbd;" horiz-adv-x="1900" 
d="M231 -33l945 1620h227l-944 -1620h-228zM201 700v660h-170v196h366v-856h-196zM1069 -2v197q243 139 379 233q139 96 139 172q0 49 -44.5 77t-117.5 28q-83 0 -134.5 -35.5t-51.5 -116.5q0 -24 10 -66h-207q-8 39 -8 68q0 142 100 230.5t296 88.5q180 0 272 -73t92 -191
q0 -70 -36 -127t-113 -118q-96 -80 -269 -170h430v-197h-737z" />
    <glyph glyph-name="threequarters" unicode="&#xbe;" horiz-adv-x="2048" 
d="M483 -33l944 1620h228l-944 -1620h-228zM446 680q-171 0 -272.5 66t-124.5 190h211q25 -88 189 -88q106 0 157 34t51 93q0 121 -231 121h-139v143l280 139h-458v176h684v-204l-258 -121l6 -2q141 0 226 -69t85 -187q2 -133 -99 -212t-307 -79zM1999 340v-195h-156v-145
h-192v145h-430v207l317 504h223l-319 -516h209v174h192v-174h156z" />
    <glyph glyph-name="questiondown" unicode="&#xbf;" horiz-adv-x="1370" 
d="M893 1556v-315h-340v315h340zM862 1133v-27q0 -124 -46 -210t-146 -173q-30 -27 -75.5 -64t-71 -58.5t-52.5 -50.5t-39 -58t-12 -62q0 -86 73.5 -140t190.5 -54q143 0 220 87t63 228h301q19 -261 -141.5 -422.5t-450.5 -161.5q-253 0 -411.5 121.5t-158.5 317.5
q0 48 10 91.5t32.5 81.5t44 67t58.5 62t61 52.5t67.5 52t62.5 47.5q57 46 87 88t42 94q11 40 11 91h280z" />
    <glyph glyph-name="Agrave" unicode="&#xc0;" horiz-adv-x="1699" 
d="M539 2038h379l243 -359h-250zM12 0l678 1556h322l676 -1556h-336l-158 367h-686l-160 -367h-336zM608 649h484l-242 555z" />
    <glyph glyph-name="Aacute" unicode="&#xc1;" horiz-adv-x="1699" 
d="M1161 2038l-370 -359h-252l243 359h379zM12 0l678 1556h322l676 -1556h-336l-158 367h-686l-160 -367h-336zM608 649h484l-242 555z" />
    <glyph glyph-name="Acircumflex" unicode="&#xc2;" horiz-adv-x="1699" 
d="M1282 1679h-235l-197 215l-199 -215h-235l266 359h334zM12 0l678 1556h322l676 -1556h-336l-158 367h-686l-160 -367h-336zM608 649h484l-242 555z" />
    <glyph glyph-name="Atilde" unicode="&#xc3;" horiz-adv-x="1699" 
d="M698 2007q59 0 110.5 -27.5t92 -54.5t72.5 -27q37 0 58.5 26t21.5 73h198q0 -134 -70.5 -210.5t-185.5 -76.5q-51 0 -94.5 17t-68.5 37.5t-53.5 37.5t-53.5 17q-34 0 -56 -27t-22 -72h-196q0 126 68.5 206.5t178.5 80.5zM12 0l678 1556h322l676 -1556h-336l-158 367h-686
l-160 -367h-336zM608 649h484l-242 555z" />
    <glyph glyph-name="Adieresis" unicode="&#xc4;" horiz-adv-x="1699" 
d="M524 1798v240h248v-240h-248zM930 1798v240h244v-240h-244zM12 0l678 1556h322l676 -1556h-336l-158 367h-686l-160 -367h-336zM608 649h484l-242 555z" />
    <glyph glyph-name="Aring" unicode="&#xc5;" horiz-adv-x="1699" 
d="M850 1679q-94 0 -151.5 53.5t-57.5 141.5q0 86 57.5 138t151.5 52q95 0 153 -52t58 -138q0 -88 -58 -141.5t-153 -53.5zM850 1802q35 0 56.5 19.5t21.5 50.5t-21.5 49t-56.5 18q-36 0 -58 -18.5t-22 -48.5q0 -31 22.5 -50.5t57.5 -19.5zM12 0l678 1556h322l676 -1556
h-336l-158 367h-686l-160 -367h-336zM608 649h484l-242 555z" />
    <glyph glyph-name="AE" unicode="&#xc6;" horiz-adv-x="2570" 
d="M1452 307h926v-307h-1233v356h-613l-180 -356h-340l785 1556h1542v-307h-887v-297h807v-307h-807v-338zM973 1249l-291 -583h463v583h-172z" />
    <glyph glyph-name="Ccedilla" unicode="&#xc7;" horiz-adv-x="1863" 
d="M946 240q195 0 326.5 106t163.5 262h325q-17 -130 -78 -244t-159 -201t-239.5 -139.5t-309.5 -56.5l-78 -71h39q89 0 143 -39.5t54 -104.5q0 -77 -69 -121.5t-204 -44.5h-129v117h125q46 0 74 12.5t28 34.5q0 19 -28 30t-74 11h-102v105l75 77q-223 23 -386.5 133.5
t-245.5 281t-82 380.5q0 177 58.5 328t165.5 260t266 171t351 62q169 0 314.5 -51.5t246.5 -139.5t164.5 -203t79.5 -245h-325q-32 156 -165.5 261.5t-328.5 105.5q-155 0 -270.5 -72t-173.5 -193.5t-58 -275.5q0 -234 135.5 -385t370.5 -151z" />
    <glyph glyph-name="Egrave" unicode="&#xc8;" horiz-adv-x="1615" 
d="M496 2038h378l244 -359h-250zM498 303h927v-303h-1232v1556h1193v-303h-888v-313h807v-283h-807v-354z" />
    <glyph glyph-name="Eacute" unicode="&#xc9;" horiz-adv-x="1615" 
d="M1118 2038l-370 -359h-252l243 359h379zM498 303h927v-303h-1232v1556h1193v-303h-888v-313h807v-283h-807v-354z" />
    <glyph glyph-name="Ecircumflex" unicode="&#xca;" horiz-adv-x="1615" 
d="M1239 1679h-235l-197 215l-199 -215h-235l266 359h334zM498 303h927v-303h-1232v1556h1193v-303h-888v-313h807v-283h-807v-354z" />
    <glyph glyph-name="Edieresis" unicode="&#xcb;" horiz-adv-x="1615" 
d="M481 1798v240h248v-240h-248zM887 1798v240h243v-240h-243zM498 303h927v-303h-1232v1556h1193v-303h-888v-313h807v-283h-807v-354z" />
    <glyph glyph-name="Igrave" unicode="&#xcc;" horiz-adv-x="634" 
d="M4 2038h379l244 -359h-250zM164 0v1556h307v-1556h-307z" />
    <glyph glyph-name="Iacute" unicode="&#xcd;" horiz-adv-x="634" 
d="M627 2038l-371 -359h-252l244 359h379zM164 0v1556h307v-1556h-307z" />
    <glyph glyph-name="Icircumflex" unicode="&#xce;" horiz-adv-x="634" 
d="M748 1679h-236l-197 215l-198 -215h-236l266 359h334zM164 0v1556h307v-1556h-307z" />
    <glyph glyph-name="Idieresis" unicode="&#xcf;" horiz-adv-x="634" 
d="M-10 1798v240h248v-240h-248zM395 1798v240h244v-240h-244zM164 0v1556h307v-1556h-307z" />
    <glyph glyph-name="Eth" unicode="&#xd0;" horiz-adv-x="1761" 
d="M872 1556q191 0 333.5 -42t245 -132.5t154.5 -240.5t52 -359q0 -410 -190.5 -597t-585.5 -185h-688v662h-140v231h140v663h679zM834 272q124 0 211.5 24t154 80.5t99 156t32.5 245.5q0 275 -118 390.5t-379 115.5h-334v-391h334v-231h-334v-390h334z" />
    <glyph glyph-name="Ntilde" unicode="&#xd1;" horiz-adv-x="1751" 
d="M721 2007q46 0 89 -17t69.5 -37.5t58 -37.5t57.5 -17q36 0 58 26.5t22 72.5h197q0 -134 -70.5 -210.5t-183.5 -76.5q-51 0 -95 17t-69 37.5t-54.5 37.5t-54.5 17q-34 0 -54.5 -27t-20.5 -72h-199q0 127 69 207t181 80zM193 0v1556h296l762 -1056v1056h310v-1556h-310
l-751 1020v-1020h-307z" />
    <glyph glyph-name="Ograve" unicode="&#xd2;" horiz-adv-x="1931" 
d="M653 2038h379l244 -359h-250zM969 -33q-196 0 -358 62t-270 171t-167 257.5t-59 320.5t59 320.5t167 257.5t270 171t358 62q195 0 356 -62t268.5 -171t166.5 -257.5t59 -320.5t-59 -320.5t-166.5 -257.5t-268.5 -171t-356 -62zM965 240q122 0 222.5 44t165.5 119
t100.5 171.5t35.5 203.5t-35.5 204t-100.5 171.5t-165.5 119t-222.5 44.5q-121 0 -221.5 -44.5t-165.5 -119t-100.5 -171.5t-35.5 -204t35.5 -203.5t101 -171.5t165.5 -119t221 -44z" />
    <glyph glyph-name="Oacute" unicode="&#xd3;" horiz-adv-x="1931" 
d="M1276 2038l-371 -359h-252l244 359h379zM969 -33q-196 0 -358 62t-270 171t-167 257.5t-59 320.5t59 320.5t167 257.5t270 171t358 62q195 0 356 -62t268.5 -171t166.5 -257.5t59 -320.5t-59 -320.5t-166.5 -257.5t-268.5 -171t-356 -62zM965 240q122 0 222.5 44
t165.5 119t100.5 171.5t35.5 203.5t-35.5 204t-100.5 171.5t-165.5 119t-222.5 44.5q-121 0 -221.5 -44.5t-165.5 -119t-100.5 -171.5t-35.5 -204t35.5 -203.5t101 -171.5t165.5 -119t221 -44z" />
    <glyph glyph-name="Ocircumflex" unicode="&#xd4;" horiz-adv-x="1931" 
d="M1397 1679h-236l-196 215l-199 -215h-236l267 359h333zM969 -33q-196 0 -358 62t-270 171t-167 257.5t-59 320.5t59 320.5t167 257.5t270 171t358 62q195 0 356 -62t268.5 -171t166.5 -257.5t59 -320.5t-59 -320.5t-166.5 -257.5t-268.5 -171t-356 -62zM965 240
q122 0 222.5 44t165.5 119t100.5 171.5t35.5 203.5t-35.5 204t-100.5 171.5t-165.5 119t-222.5 44.5q-121 0 -221.5 -44.5t-165.5 -119t-100.5 -171.5t-35.5 -204t35.5 -203.5t101 -171.5t165.5 -119t221 -44z" />
    <glyph glyph-name="Otilde" unicode="&#xd5;" horiz-adv-x="1931" 
d="M813 2007q46 0 89 -17t69.5 -37.5t58 -37.5t57.5 -17q37 0 58.5 26t21.5 73h199q0 -134 -70.5 -210.5t-185.5 -76.5q-51 0 -94.5 17t-68.5 37.5t-53.5 37.5t-53.5 17q-34 0 -56 -27t-22 -72h-197q0 126 69 206.5t179 80.5zM969 -33q-196 0 -358 62t-270 171t-167 257.5
t-59 320.5t59 320.5t167 257.5t270 171t358 62q195 0 356 -62t268.5 -171t166.5 -257.5t59 -320.5t-59 -320.5t-166.5 -257.5t-268.5 -171t-356 -62zM965 240q122 0 222.5 44t165.5 119t100.5 171.5t35.5 203.5t-35.5 204t-100.5 171.5t-165.5 119t-222.5 44.5
q-121 0 -221.5 -44.5t-165.5 -119t-100.5 -171.5t-35.5 -204t35.5 -203.5t101 -171.5t165.5 -119t221 -44z" />
    <glyph glyph-name="Odieresis" unicode="&#xd6;" horiz-adv-x="1931" 
d="M639 1798v240h248v-240h-248zM1044 1798v240h244v-240h-244zM969 -33q-196 0 -358 62t-270 171t-167 257.5t-59 320.5t59 320.5t167 257.5t270 171t358 62q195 0 356 -62t268.5 -171t166.5 -257.5t59 -320.5t-59 -320.5t-166.5 -257.5t-268.5 -171t-356 -62zM965 240
q122 0 222.5 44t165.5 119t100.5 171.5t35.5 203.5t-35.5 204t-100.5 171.5t-165.5 119t-222.5 44.5q-121 0 -221.5 -44.5t-165.5 -119t-100.5 -171.5t-35.5 -204t35.5 -203.5t101 -171.5t165.5 -119t221 -44z" />
    <glyph glyph-name="multiply" unicode="&#xd7;" horiz-adv-x="1081" 
d="M981 270l-147 -149l-295 260l-291 -260l-150 149l293 258l-291 258l150 150l289 -258l292 258l148 -150l-291 -258z" />
    <glyph glyph-name="Oslash" unicode="&#xd8;" horiz-adv-x="1931" 
d="M1542 1401q134 -110 205.5 -271.5t71.5 -351.5q0 -172 -59 -320.5t-166.5 -257.5t-268.5 -171t-356 -62q-208 0 -381 70l-109 -156h-280l192 275q-133 110 -204.5 270.5t-71.5 351.5q0 172 59 320.5t167 257.5t270 171t358 62q207 0 377 -69l108 155h281zM442 778
q0 -214 129 -364l605 864q-95 39 -211 39q-121 0 -221.5 -44.5t-165.5 -119t-100.5 -171.5t-35.5 -204zM965 240q122 0 222.5 44t165.5 119t100.5 171.5t35.5 203.5q0 213 -127 365l-604 -864q92 -39 207 -39z" />
    <glyph glyph-name="Ugrave" unicode="&#xd9;" horiz-adv-x="1701" 
d="M559 2038h379l244 -359h-250zM877 -33q-118 0 -214 17.5t-166.5 48.5t-123.5 78.5t-87 103.5t-55 128t-29.5 146.5t-8.5 165.5v901h307v-792q0 -76 2.5 -127.5t11 -111t24 -98.5t43.5 -77.5t67.5 -60.5t97 -35.5t131.5 -13.5q52 0 96 6t78 19t62 29.5t48 41.5t35 50
t25 60.5t16 67.5t9 77t4 83t1 90v792h310v-901q0 -93 -9 -169t-30 -148t-56 -128t-88 -102.5t-123.5 -77t-165.5 -47t-212 -16.5z" />
    <glyph glyph-name="Uacute" unicode="&#xda;" horiz-adv-x="1701" 
d="M1182 2038l-371 -359h-252l244 359h379zM877 -33q-118 0 -214 17.5t-166.5 48.5t-123.5 78.5t-87 103.5t-55 128t-29.5 146.5t-8.5 165.5v901h307v-792q0 -76 2.5 -127.5t11 -111t24 -98.5t43.5 -77.5t67.5 -60.5t97 -35.5t131.5 -13.5q52 0 96 6t78 19t62 29.5t48 41.5
t35 50t25 60.5t16 67.5t9 77t4 83t1 90v792h310v-901q0 -93 -9 -169t-30 -148t-56 -128t-88 -102.5t-123.5 -77t-165.5 -47t-212 -16.5z" />
    <glyph glyph-name="Ucircumflex" unicode="&#xdb;" horiz-adv-x="1701" 
d="M1303 1679h-236l-195 215l-200 -215h-236l266 359h334zM877 -33q-118 0 -214 17.5t-166.5 48.5t-123.5 78.5t-87 103.5t-55 128t-29.5 146.5t-8.5 165.5v901h307v-792q0 -76 2.5 -127.5t11 -111t24 -98.5t43.5 -77.5t67.5 -60.5t97 -35.5t131.5 -13.5q52 0 96 6t78 19
t62 29.5t48 41.5t35 50t25 60.5t16 67.5t9 77t4 83t1 90v792h310v-901q0 -93 -9 -169t-30 -148t-56 -128t-88 -102.5t-123.5 -77t-165.5 -47t-212 -16.5z" />
    <glyph glyph-name="Udieresis" unicode="&#xdc;" horiz-adv-x="1701" 
d="M547 1798v240h248v-240h-248zM952 1798v240h244v-240h-244zM877 -33q-118 0 -214 17.5t-166.5 48.5t-123.5 78.5t-87 103.5t-55 128t-29.5 146.5t-8.5 165.5v901h307v-792q0 -76 2.5 -127.5t11 -111t24 -98.5t43.5 -77.5t67.5 -60.5t97 -35.5t131.5 -13.5q52 0 96 6
t78 19t62 29.5t48 41.5t35 50t25 60.5t16 67.5t9 77t4 83t1 90v792h310v-901q0 -93 -9 -169t-30 -148t-56 -128t-88 -102.5t-123.5 -77t-165.5 -47t-212 -16.5z" />
    <glyph glyph-name="Yacute" unicode="&#xdd;" horiz-adv-x="1587" 
d="M1104 2038l-371 -359h-252l244 359h379zM641 0v543l-596 1013h342l408 -739l405 739h342l-596 -1013v-543h-305z" />
    <glyph glyph-name="Thorn" unicode="&#xde;" horiz-adv-x="1515" 
d="M809 1270q99 0 185 -14.5t164.5 -48.5t133.5 -87t88 -135t33 -186q0 -108 -34 -191.5t-90.5 -135.5t-136.5 -86t-164.5 -47t-182.5 -13h-303v-326h-309v1556h309v-286h307zM772 602q52 0 91 3t83 14.5t72.5 31.5t47.5 56t19 86q0 51 -19.5 88.5t-48.5 58.5t-73 33.5
t-83.5 16t-88.5 3.5h-270v-391h270z" />
    <glyph glyph-name="germandbls" unicode="&#xdf;" horiz-adv-x="1529" 
d="M1184 666q96 -49 154 -92.5t93 -105t35 -140.5q0 -164 -117 -262.5t-341 -98.5q-239 0 -362 108.5t-136 284.5h285q17 -86 70.5 -133t135.5 -47q79 0 119.5 40.5t40.5 101.5q0 41 -13.5 70.5t-53.5 55.5t-66.5 38.5t-95.5 40.5q-19 8 -29 12q-67 28 -109.5 50.5t-82.5 53
t-59 68t-19 84.5q0 43 17.5 81.5t43.5 65t56.5 56.5t56.5 56t43.5 62.5t17.5 77.5q0 71 -58 117.5t-173 46.5q-64 0 -110.5 -17t-70.5 -40t-37.5 -59.5t-16.5 -62.5t-3 -61v-1118h-303v1128q0 71 17 135t57.5 124.5t101.5 104.5t155.5 70.5t213.5 26.5q242 0 390.5 -97.5
t148.5 -266.5q0 -62 -23.5 -118.5t-56.5 -96.5t-66 -74t-56.5 -64t-23.5 -53q0 -10 4.5 -19.5t15.5 -19.5t22.5 -18t34.5 -20t41.5 -21t52.5 -25.5t59 -29.5z" />
    <glyph glyph-name="agrave" unicode="&#xe0;" horiz-adv-x="1306" 
d="M336 1556h379l243 -358h-249zM461 -23q-105 0 -184 26.5t-125 72t-68.5 101t-22.5 120.5q0 156 136 248q81 53 217 78.5t362 25.5h68v56q0 87 -49 132.5t-160 45.5q-116 0 -167.5 -42.5t-55.5 -101.5h-293q2 59 17 109.5t52 99.5t94 83.5t148 55.5t209 21q252 0 381 -109
t129 -364v-367q0 -58 12.5 -88.5t48.5 -50.5v-135h-204q-61 19 -99.5 61t-44.5 97h-4q-129 -175 -397 -175zM565 182q131 0 206 56.5t75 113.5v129h-78q-403 0 -403 -168q0 -65 52 -98t148 -33z" />
    <glyph glyph-name="aacute" unicode="&#xe1;" horiz-adv-x="1306" 
d="M958 1556l-370 -358h-252l244 358h378zM461 -23q-105 0 -184 26.5t-125 72t-68.5 101t-22.5 120.5q0 156 136 248q81 53 217 78.5t362 25.5h68v56q0 87 -49 132.5t-160 45.5q-116 0 -167.5 -42.5t-55.5 -101.5h-293q2 59 17 109.5t52 99.5t94 83.5t148 55.5t209 21
q252 0 381 -109t129 -364v-367q0 -58 12.5 -88.5t48.5 -50.5v-135h-204q-61 19 -99.5 61t-44.5 97h-4q-129 -175 -397 -175zM565 182q131 0 206 56.5t75 113.5v129h-78q-403 0 -403 -168q0 -65 52 -98t148 -33z" />
    <glyph glyph-name="acircumflex" unicode="&#xe2;" horiz-adv-x="1306" 
d="M1079 1198h-235l-195 215l-200 -215h-236l266 358h334zM461 -23q-105 0 -184 26.5t-125 72t-68.5 101t-22.5 120.5q0 156 136 248q81 53 217 78.5t362 25.5h68v56q0 87 -49 132.5t-160 45.5q-116 0 -167.5 -42.5t-55.5 -101.5h-293q2 59 17 109.5t52 99.5t94 83.5
t148 55.5t209 21q252 0 381 -109t129 -364v-367q0 -58 12.5 -88.5t48.5 -50.5v-135h-204q-61 19 -99.5 61t-44.5 97h-4q-129 -175 -397 -175zM565 182q131 0 206 56.5t75 113.5v129h-78q-403 0 -403 -168q0 -65 52 -98t148 -33z" />
    <glyph glyph-name="atilde" unicode="&#xe3;" horiz-adv-x="1306" 
d="M498 1526q46 0 89 -17t69.5 -37.5t58 -37.5t57.5 -17q36 0 58 26.5t22 72.5h197q0 -134 -70.5 -210.5t-183.5 -76.5q-51 0 -95 17t-69 37t-54.5 37t-54.5 17q-34 0 -55 -26.5t-21 -71.5h-198q0 127 69 207t181 80zM461 -23q-105 0 -184 26.5t-125 72t-68.5 101
t-22.5 120.5q0 156 136 248q81 53 217 78.5t362 25.5h68v56q0 87 -49 132.5t-160 45.5q-116 0 -167.5 -42.5t-55.5 -101.5h-293q2 59 17 109.5t52 99.5t94 83.5t148 55.5t209 21q252 0 381 -109t129 -364v-367q0 -58 12.5 -88.5t48.5 -50.5v-135h-204q-61 19 -99.5 61
t-44.5 97h-4q-129 -175 -397 -175zM565 182q131 0 206 56.5t75 113.5v129h-78q-403 0 -403 -168q0 -65 52 -98t148 -33z" />
    <glyph glyph-name="adieresis" unicode="&#xe4;" horiz-adv-x="1185" 
d="M256 1317v239h248v-239h-248zM662 1317v239h243v-239h-243zM440 -23q-92 0 -162.5 26.5t-112 72t-62.5 101.5t-21 120q0 157 125 248q144 104 512 104h65v56q0 87 -41.5 132.5t-134.5 45.5q-95 0 -137.5 -42.5t-46.5 -101.5h-291q2 59 16 109.5t48.5 99.5t87.5 83.5
t137 55.5t192 21q236 0 356 -109t120 -364v-367v-139v-129h-295v143h-4q-47 -76 -138 -121t-213 -45zM555 182q57 0 103 17.5t73 44t41 55t14 53.5v140h-45q-104 0 -181 -17.5t-125 -58.5t-48 -103q0 -64 44.5 -97.5t123.5 -33.5z" />
    <glyph glyph-name="aring" unicode="&#xe5;" horiz-adv-x="1306" 
d="M649 1198q-95 0 -153 53.5t-58 141.5q0 86 58 138t153 52q94 0 151.5 -52t57.5 -138q0 -88 -57.5 -141.5t-151.5 -53.5zM649 1321q34 0 56 19.5t22 50.5q0 30 -22 48.5t-56 18.5q-37 0 -58.5 -18t-21.5 -49t22 -50.5t58 -19.5zM461 -23q-105 0 -184 26.5t-125 72
t-68.5 101t-22.5 120.5q0 156 136 248q81 53 217 78.5t362 25.5h68v56q0 87 -49 132.5t-160 45.5q-116 0 -167.5 -42.5t-55.5 -101.5h-293q2 59 17 109.5t52 99.5t94 83.5t148 55.5t209 21q252 0 381 -109t129 -364v-367q0 -58 12.5 -88.5t48.5 -50.5v-135h-204
q-61 19 -99.5 61t-44.5 97h-4q-129 -175 -397 -175zM565 182q131 0 206 56.5t75 113.5v129h-78q-403 0 -403 -168q0 -65 52 -98t148 -33z" />
    <glyph glyph-name="ae" unicode="&#xe6;" horiz-adv-x="2076" 
d="M518 -33q-105 0 -187 21t-132 54t-82 78.5t-44 89t-12 91.5q0 35 7 68t25.5 70t48 68.5t78.5 61t113 50t155.5 33t201.5 12.5h168q0 51 -8 87t-30.5 68t-68.5 48t-116 16q-114 0 -167 -44t-58 -112h-297q2 61 17.5 114t54 103.5t96.5 85.5t151 56.5t213 21.5
q289 0 406 -133q136 133 389 133q118 0 217 -34.5t173 -101t117 -170.5t46 -237v-104l-2 -4h-824q14 -118 86 -184t195 -66q105 0 172 47t78 121h297q-2 -76 -43 -149t-110.5 -131t-173.5 -93t-224 -35q-147 0 -262.5 47.5t-182.5 124.5q-72 -86 -200 -129t-281 -43z
M1169 657h527q-15 104 -83 157.5t-173 53.5q-114 0 -185.5 -58t-85.5 -153zM573 182q136 0 211.5 53t75.5 130v114h-178q-81 0 -141.5 -11t-95 -27.5t-55.5 -39.5t-27.5 -43t-6.5 -43q0 -133 217 -133z" />
    <glyph glyph-name="ccedilla" unicode="&#xe7;" horiz-adv-x="1257" 
d="M1176 406q-16 -178 -157 -304t-368 -135l-80 -71h39q89 0 143 -39.5t54 -104.5q0 -77 -68.5 -121.5t-201.5 -44.5h-129v117h122q46 0 74.5 12.5t28.5 34.5q0 19 -28.5 30t-74.5 11h-100v105l78 79q-219 33 -341 186t-122 378q0 257 152 413t421 156q236 0 389 -122.5
t167 -319.5h-297q-17 99 -83 150.5t-169 51.5q-134 0 -207.5 -85.5t-73.5 -243.5t73.5 -245t207.5 -87q101 0 169 54t85 145h297z" />
    <glyph glyph-name="egrave" unicode="&#xe8;" horiz-adv-x="1257" 
d="M295 1556h379l244 -358h-250zM621 -33q-180 0 -312 74t-198 202.5t-66 295.5q0 256 152 412.5t415 156.5q161 0 287.5 -60.5t201.5 -180t75 -281.5v-129h-828q14 -118 86 -184t195 -66q98 0 165 43t85 104h297q-8 -70 -49 -138t-109.5 -124t-172.5 -90.5t-224 -34.5z
M350 643h524q0 106 -72.5 165.5t-185.5 59.5q-117 0 -191.5 -59t-74.5 -166z" />
    <glyph glyph-name="eacute" unicode="&#xe9;" horiz-adv-x="1257" 
d="M918 1556l-371 -358h-252l244 358h379zM621 -33q-180 0 -312 74t-198 202.5t-66 295.5q0 256 152 412.5t415 156.5q161 0 287.5 -60.5t201.5 -180t75 -281.5v-129h-828q14 -118 86 -184t195 -66q98 0 165 43t85 104h297q-8 -70 -49 -138t-109.5 -124t-172.5 -90.5
t-224 -34.5zM350 643h524q0 106 -72.5 165.5t-185.5 59.5q-117 0 -191.5 -59t-74.5 -166z" />
    <glyph glyph-name="ecircumflex" unicode="&#xea;" horiz-adv-x="1257" 
d="M1038 1198h-235l-195 215l-200 -215h-236l266 358h334zM621 -33q-180 0 -312 74t-198 202.5t-66 295.5q0 256 152 412.5t415 156.5q161 0 287.5 -60.5t201.5 -180t75 -281.5v-129h-828q14 -118 86 -184t195 -66q98 0 165 43t85 104h297q-8 -70 -49 -138t-109.5 -124
t-172.5 -90.5t-224 -34.5zM350 643h524q0 106 -72.5 165.5t-185.5 59.5q-117 0 -191.5 -59t-74.5 -166z" />
    <glyph glyph-name="edieresis" unicode="&#xeb;" horiz-adv-x="1257" 
d="M268 1317v239h248v-239h-248zM674 1317v239h244v-239h-244zM621 -33q-180 0 -312 74t-198 202.5t-66 295.5q0 256 152 412.5t415 156.5q161 0 287.5 -60.5t201.5 -180t75 -281.5v-129h-828q14 -118 86 -184t195 -66q98 0 165 43t85 104h297q-8 -70 -49 -138t-109.5 -124
t-172.5 -90.5t-224 -34.5zM350 643h524q0 106 -72.5 165.5t-185.5 59.5q-117 0 -191.5 -59t-74.5 -166z" />
    <glyph glyph-name="igrave" unicode="&#xec;" horiz-adv-x="634" 
d="M6 1556h379l244 -358h-250zM166 0v1075h303v-1075h-303z" />
    <glyph glyph-name="iacute" unicode="&#xed;" horiz-adv-x="634" 
d="M629 1556l-371 -358h-252l244 358h379zM166 0v1075h303v-1075h-303z" />
    <glyph glyph-name="icircumflex" unicode="&#xee;" horiz-adv-x="634" 
d="M750 1198h-234l-197 215l-200 -215h-236l267 358h333zM166 0v1075h303v-1075h-303z" />
    <glyph glyph-name="idieresis" unicode="&#xef;" horiz-adv-x="634" 
d="M-20 1317v239h247v-239h-247zM385 1317v239h244v-239h-244zM166 0v1075h303v-1075h-303z" />
    <glyph glyph-name="eth" unicode="&#xf0;" horiz-adv-x="1290" 
d="M946 1350q146 -146 222.5 -331.5t76.5 -391.5q0 -318 -150 -489t-427 -171q-263 0 -419.5 157t-156.5 404q0 122 40.5 228t110.5 179t165 115t202 42q203 0 297 -84q-52 108 -188 235l-270 -115l-103 146l232 94q-99 79 -269 188h355q71 -35 141 -83l211 86l98 -142z
M657 205q133 0 212 86.5t79 240.5t-79 240t-212 86q-130 0 -202 -87t-72 -239t72.5 -239.5t201.5 -87.5z" />
    <glyph glyph-name="ntilde" unicode="&#xf1;" horiz-adv-x="1345" 
d="M508 1526q46 0 89 -17t69.5 -37.5t58 -37.5t57.5 -17q37 0 58.5 26t21.5 73h199q0 -134 -70.5 -210.5t-185.5 -76.5q-51 0 -94.5 17t-68.5 37t-53.5 37t-53.5 17q-34 0 -56 -26.5t-22 -71.5h-197q0 126 69 206.5t179 80.5zM96 0v1075h303v-162q66 101 170 148t222 47
q203 0 318.5 -121t115.5 -332v-655h-303v547q0 164 -61.5 242.5t-174.5 78.5q-123 0 -205 -91.5t-82 -241.5v-535h-303z" />
    <glyph glyph-name="ograve" unicode="&#xf2;" horiz-adv-x="1273" 
d="M326 1556h379l243 -358h-250zM639 -33q-268 0 -431 160.5t-163 411.5q0 253 162.5 411t431.5 158t429.5 -158t160.5 -411q0 -123 -41.5 -228.5t-117 -181.5t-187 -119t-244.5 -43zM637 207q137 0 216 87t79 245q0 156 -79 242.5t-216 86.5q-136 0 -214.5 -86t-78.5 -243
q0 -158 78.5 -245t214.5 -87z" />
    <glyph glyph-name="oacute" unicode="&#xf3;" horiz-adv-x="1273" 
d="M948 1556l-370 -358h-252l243 358h379zM639 -33q-268 0 -431 160.5t-163 411.5q0 253 162.5 411t431.5 158t429.5 -158t160.5 -411q0 -123 -41.5 -228.5t-117 -181.5t-187 -119t-244.5 -43zM637 207q137 0 216 87t79 245q0 156 -79 242.5t-216 86.5q-136 0 -214.5 -86
t-78.5 -243q0 -158 78.5 -245t214.5 -87z" />
    <glyph glyph-name="ocircumflex" unicode="&#xf4;" horiz-adv-x="1273" 
d="M1069 1198h-235l-197 215l-201 -215h-233l266 358h334zM639 -33q-268 0 -431 160.5t-163 411.5q0 253 162.5 411t431.5 158t429.5 -158t160.5 -411q0 -123 -41.5 -228.5t-117 -181.5t-187 -119t-244.5 -43zM637 207q137 0 216 87t79 245q0 156 -79 242.5t-216 86.5
q-136 0 -214.5 -86t-78.5 -243q0 -158 78.5 -245t214.5 -87z" />
    <glyph glyph-name="otilde" unicode="&#xf5;" horiz-adv-x="1273" 
d="M485 1526q46 0 89 -17t70 -37.5t58.5 -37.5t57.5 -17q37 0 58.5 26t21.5 73h198q0 -134 -70.5 -210.5t-185.5 -76.5q-51 0 -94.5 17t-68.5 37t-53.5 37t-53.5 17q-34 0 -56 -26.5t-22 -71.5h-196q0 126 68.5 206.5t178.5 80.5zM639 -33q-268 0 -431 160.5t-163 411.5
q0 253 162.5 411t431.5 158t429.5 -158t160.5 -411q0 -123 -41.5 -228.5t-117 -181.5t-187 -119t-244.5 -43zM637 207q137 0 216 87t79 245q0 156 -79 242.5t-216 86.5q-136 0 -214.5 -86t-78.5 -243q0 -158 78.5 -245t214.5 -87z" />
    <glyph glyph-name="odieresis" unicode="&#xf6;" horiz-adv-x="1273" 
d="M299 1317v239h248v-239h-248zM705 1317v239h243v-239h-243zM639 -33q-268 0 -431 160.5t-163 411.5q0 253 162.5 411t431.5 158t429.5 -158t160.5 -411q0 -123 -41.5 -228.5t-117 -181.5t-187 -119t-244.5 -43zM637 207q137 0 216 87t79 245q0 156 -79 242.5t-216 86.5
q-136 0 -214.5 -86t-78.5 -243q0 -158 78.5 -245t214.5 -87z" />
    <glyph glyph-name="divide" unicode="&#xf7;" horiz-adv-x="1294" 
d="M475 760v295h338v-295h-338zM1161 451h-1036v153h1036v-153zM475 0v295h338v-295h-338z" />
    <glyph glyph-name="oslash" unicode="&#xf8;" horiz-adv-x="1284" 
d="M1040 977q91 -77 140 -189.5t49 -248.5q0 -123 -41.5 -228.5t-117 -181.5t-187 -119t-244.5 -43q-96 0 -199 27l-135 -223h-205l181 297q-113 75 -174.5 198t-61.5 273q0 253 162.5 411t431.5 158q140 0 250 -43l121 199h204zM344 539q0 -156 76 -244l336 553
q-50 20 -119 20q-136 0 -214.5 -86t-78.5 -243zM637 207q137 0 216 87t79 245q0 114 -43 190l-316 -516q30 -6 64 -6z" />
    <glyph glyph-name="ugrave" unicode="&#xf9;" horiz-adv-x="1331" 
d="M358 1556h379l244 -358h-250zM537 -33q-208 0 -319.5 117.5t-111.5 345.5v645h304v-557q0 -311 227 -311q131 0 213 91.5t82 244.5v532h303v-1075h-303v172q-129 -205 -395 -205z" />
    <glyph glyph-name="uacute" unicode="&#xfa;" horiz-adv-x="1331" 
d="M981 1556l-371 -358h-252l244 358h379zM537 -33q-208 0 -319.5 117.5t-111.5 345.5v645h304v-557q0 -311 227 -311q131 0 213 91.5t82 244.5v532h303v-1075h-303v172q-129 -205 -395 -205z" />
    <glyph glyph-name="ucircumflex" unicode="&#xfb;" horiz-adv-x="1331" 
d="M1102 1198h-234l-196 215l-201 -215h-235l266 358h334zM537 -33q-208 0 -319.5 117.5t-111.5 345.5v645h304v-557q0 -311 227 -311q131 0 213 91.5t82 244.5v532h303v-1075h-303v172q-129 -205 -395 -205z" />
    <glyph glyph-name="udieresis" unicode="&#xfc;" horiz-adv-x="1331" 
d="M334 1317v239h248v-239h-248zM739 1317v239h244v-239h-244zM537 -33q-208 0 -319.5 117.5t-111.5 345.5v645h304v-557q0 -311 227 -311q131 0 213 91.5t82 244.5v532h303v-1075h-303v172q-129 -205 -395 -205z" />
    <glyph glyph-name="yacute" unicode="&#xfd;" horiz-adv-x="1239" 
d="M930 1556l-371 -358h-252l244 358h379zM274 -492l195 494l-449 1073h318l242 -663l38 -105h5l36 105l242 663h318l-420 -1001l-221 -566h-304z" />
    <glyph glyph-name="thorn" unicode="&#xfe;" horiz-adv-x="1325" 
d="M760 1108q235 0 377.5 -156t142.5 -411q0 -258 -143 -416t-375 -158q-105 0 -205 43t-158 113v-615h-303v2048h297v-614q64 76 164.5 121t202.5 45zM694 209q130 0 209.5 90t79.5 238q0 150 -80 240.5t-213 90.5q-132 0 -211.5 -80.5t-79.5 -212.5v-86
q0 -127 80.5 -203.5t214.5 -76.5z" />
    <glyph glyph-name="ydieresis" unicode="&#xff;" horiz-adv-x="1239" 
d="M281 1317v239h247v-239h-247zM686 1317v239h244v-239h-244zM274 -492l195 494l-449 1073h318l242 -663l38 -105h5l36 105l242 663h318l-420 -1001l-221 -566h-304z" />
    <glyph glyph-name="Amacron" unicode="&#x100;" horiz-adv-x="1699" 
d="M1239 1735h-778v221h778v-221zM12 0l678 1556h322l676 -1556h-336l-158 367h-686l-160 -367h-336zM608 649h484l-242 555z" />
    <glyph glyph-name="amacron" unicode="&#x101;" horiz-adv-x="1306" 
d="M1038 1253h-780v222h780v-222zM461 -23q-105 0 -184 26.5t-125 72t-68.5 101t-22.5 120.5q0 156 136 248q81 53 217 78.5t362 25.5h68v56q0 87 -49 132.5t-160 45.5q-116 0 -167.5 -42.5t-55.5 -101.5h-293q2 59 17 109.5t52 99.5t94 83.5t148 55.5t209 21
q252 0 381 -109t129 -364v-367q0 -58 12.5 -88.5t48.5 -50.5v-135h-204q-61 19 -99.5 61t-44.5 97h-4q-129 -175 -397 -175zM565 182q131 0 206 56.5t75 113.5v129h-78q-403 0 -403 -168q0 -65 52 -98t148 -33z" />
    <glyph glyph-name="Abreve" unicode="&#x102;" horiz-adv-x="1699" 
d="M1061 2038h229q0 -162 -120.5 -260.5t-319.5 -98.5q-197 0 -317.5 99t-120.5 260h229q0 -82 57.5 -131t151.5 -49q95 0 153 49t58 131zM12 0l678 1556h322l676 -1556h-336l-158 367h-686l-160 -367h-336zM608 649h484l-242 555z" />
    <glyph glyph-name="abreve" unicode="&#x103;" horiz-adv-x="1306" 
d="M858 1556h229q0 -161 -120 -259.5t-318 -98.5q-197 0 -318.5 98.5t-121.5 259.5h229q0 -82 58 -131t153 -49t152 49t57 131zM461 -23q-105 0 -184 26.5t-125 72t-68.5 101t-22.5 120.5q0 156 136 248q81 53 217 78.5t362 25.5h68v56q0 87 -49 132.5t-160 45.5
q-116 0 -167.5 -42.5t-55.5 -101.5h-293q2 59 17 109.5t52 99.5t94 83.5t148 55.5t209 21q252 0 381 -109t129 -364v-367q0 -58 12.5 -88.5t48.5 -50.5v-135h-204q-61 19 -99.5 61t-44.5 97h-4q-129 -175 -397 -175zM565 182q131 0 206 56.5t75 113.5v129h-78
q-403 0 -403 -168q0 -65 52 -98t148 -33z" />
    <glyph glyph-name="Aogonek" unicode="&#x104;" horiz-adv-x="1699" 
d="M1356 -195q0 -81 147 -81q39 0 68 4v-146q-43 -6 -105 -6q-143 0 -209.5 53.5t-66.5 134.5q0 119 180 236h-18l-158 367h-686l-160 -367h-336l678 1556h322l676 -1556h-189q-143 -110 -143 -195zM608 649h484l-242 555z" />
    <glyph glyph-name="aogonek" unicode="&#x105;" horiz-adv-x="1306" 
d="M1112 -6q-137 -107 -137 -191q0 -79 147 -79q39 0 68 4v-148q-44 -6 -105 -6q-143 0 -209.5 54.5t-66.5 135.5q0 38 18 75t50 69t56 51t56 41q-53 21 -87 60.5t-40 91.5h-4q-129 -175 -397 -175q-105 0 -184 26.5t-125 72t-68.5 101t-22.5 120.5q0 156 136 248
q81 53 217 78.5t362 25.5h68v56q0 87 -49 132.5t-160 45.5q-116 0 -167.5 -42.5t-55.5 -101.5h-293q2 59 17 109.5t52 99.5t94 83.5t148 55.5t209 21q252 0 381 -109t129 -364v-367q0 -58 12.5 -88.5t48.5 -50.5v-135h-98zM846 352v129h-78q-403 0 -403 -168q0 -65 52 -98
t148 -33q131 0 206 56.5t75 113.5z" />
    <glyph glyph-name="Cacute" unicode="&#x106;" horiz-adv-x="1863" 
d="M1243 2038l-371 -359h-251l243 359h379zM946 -33q-194 0 -352.5 61.5t-262.5 169.5t-160 254t-56 316q0 177 58.5 328t165.5 260t266 171t351 62q169 0 314.5 -51.5t246.5 -139.5t164.5 -203t79.5 -245h-325q-32 156 -165.5 261.5t-328.5 105.5q-155 0 -270.5 -72
t-173.5 -193.5t-58 -275.5q0 -234 135.5 -385t370.5 -151q195 0 326.5 106t163.5 262h325q-17 -133 -80.5 -249t-165 -203.5t-248.5 -138t-321 -50.5z" />
    <glyph glyph-name="cacute" unicode="&#x107;" horiz-adv-x="1257" 
d="M918 1556l-371 -358h-252l244 358h379zM621 -33q-270 0 -423 159t-153 413q0 257 152 413t421 156q236 0 389 -122.5t167 -319.5h-297q-17 99 -83 150.5t-169 51.5q-134 0 -207.5 -85.5t-73.5 -243.5t73.5 -245t207.5 -87q101 0 169 54t85 145h297q-8 -89 -49 -168
t-110 -139.5t-171.5 -96t-224.5 -35.5z" />
    <glyph glyph-name="Cdotaccent" unicode="&#x10a;" horiz-adv-x="1863" 
d="M932 1716q-76 0 -131.5 52t-55.5 128q0 72 56 123.5t131 51.5q76 0 132 -51.5t56 -123.5q0 -75 -56 -127.5t-132 -52.5zM946 -33q-194 0 -352.5 61.5t-262.5 169.5t-160 254t-56 316q0 177 58.5 328t165.5 260t266 171t351 62q169 0 314.5 -51.5t246.5 -139.5t164.5 -203
t79.5 -245h-325q-32 156 -165.5 261.5t-328.5 105.5q-155 0 -270.5 -72t-173.5 -193.5t-58 -275.5q0 -234 135.5 -385t370.5 -151q195 0 326.5 106t163.5 262h325q-17 -133 -80.5 -249t-165 -203.5t-248.5 -138t-321 -50.5z" />
    <glyph glyph-name="cdotaccent" unicode="&#x10b;" horiz-adv-x="1257" 
d="M606 1235q-76 0 -130 52t-54 128q0 72 54.5 123t129.5 51q77 0 133 -51t56 -123q0 -76 -56 -128t-133 -52zM621 -33q-270 0 -423 159t-153 413q0 257 152 413t421 156q236 0 389 -122.5t167 -319.5h-297q-17 99 -83 150.5t-169 51.5q-134 0 -207.5 -85.5t-73.5 -243.5
t73.5 -245t207.5 -87q101 0 169 54t85 145h297q-8 -89 -49 -168t-110 -139.5t-171.5 -96t-224.5 -35.5z" />
    <glyph glyph-name="Ccaron" unicode="&#x10c;" horiz-adv-x="1863" 
d="M1364 2038l-266 -359h-334l-266 359h235l199 -215l196 215h236zM946 -33q-194 0 -352.5 61.5t-262.5 169.5t-160 254t-56 316q0 177 58.5 328t165.5 260t266 171t351 62q169 0 314.5 -51.5t246.5 -139.5t164.5 -203t79.5 -245h-325q-32 156 -165.5 261.5t-328.5 105.5
q-155 0 -270.5 -72t-173.5 -193.5t-58 -275.5q0 -234 135.5 -385t370.5 -151q195 0 326.5 106t163.5 262h325q-17 -133 -80.5 -249t-165 -203.5t-248.5 -138t-321 -50.5z" />
    <glyph glyph-name="ccaron" unicode="&#x10d;" horiz-adv-x="1257" 
d="M1038 1556l-266 -358h-334l-266 358h236l200 -215l195 215h235zM621 -33q-270 0 -423 159t-153 413q0 257 152 413t421 156q236 0 389 -122.5t167 -319.5h-297q-17 99 -83 150.5t-169 51.5q-134 0 -207.5 -85.5t-73.5 -243.5t73.5 -245t207.5 -87q101 0 169 54t85 145
h297q-8 -89 -49 -168t-110 -139.5t-171.5 -96t-224.5 -35.5z" />
    <glyph glyph-name="Dcaron" unicode="&#x10e;" horiz-adv-x="1761" 
d="M1303 2038l-267 -359h-334l-266 359h234l200 -215l197 215h236zM881 0h-688v1556h679q191 0 333.5 -42t245 -132.5t154.5 -240.5t52 -359q0 -410 -190.5 -597t-585.5 -185zM500 272h334q124 0 211.5 24t154 80.5t99 156t32.5 245.5q0 275 -118 390.5t-379 115.5h-334
v-1012z" />
    <glyph glyph-name="dcaron" unicode="&#x10f;" horiz-adv-x="1320" 
d="M979 1556h303v-1556h-297v123q-56 -70 -159.5 -113t-207.5 -43q-233 0 -376.5 158t-143.5 416q0 255 143.5 411t379.5 156q102 0 197.5 -44.5t160.5 -121.5v614zM1788 1556l-215 -358h-238l99 358h354zM979 502v86q0 126 -79.5 202t-211.5 76t-211.5 -88.5t-79.5 -236.5
q0 -150 80.5 -241t212.5 -91q131 0 210 80t79 213z" />
    <glyph glyph-name="Dcroat" unicode="&#x110;" horiz-adv-x="1761" 
d="M872 1556q191 0 333.5 -42t245 -132.5t154.5 -240.5t52 -359q0 -410 -190.5 -597t-585.5 -185h-688v662h-140v231h140v663h679zM834 272q124 0 211.5 24t154 80.5t99 156t32.5 245.5q0 275 -118 390.5t-379 115.5h-334v-391h334v-231h-334v-390h334z" />
    <glyph glyph-name="dcroat" unicode="&#x111;" horiz-adv-x="1396" 
d="M1518 1378v-231h-242v-1147h-297v123q-58 -70 -160.5 -113t-206.5 -43q-233 0 -376.5 158t-143.5 416q0 255 143 411t379 156q102 0 197 -44.5t162 -121.5v205h-236v231h236v178h303v-178h242zM973 502v86q0 126 -79.5 202t-211.5 76t-211.5 -88.5t-79.5 -236.5
q0 -150 80.5 -241t212.5 -91q131 0 210 80t79 213z" />
    <glyph glyph-name="Emacron" unicode="&#x112;" horiz-adv-x="1615" 
d="M1196 1735h-778v221h778v-221zM498 303h927v-303h-1232v1556h1193v-303h-888v-313h807v-283h-807v-354z" />
    <glyph glyph-name="emacron" unicode="&#x113;" horiz-adv-x="1257" 
d="M995 1253h-778v222h778v-222zM621 -33q-180 0 -312 74t-198 202.5t-66 295.5q0 256 152 412.5t415 156.5q161 0 287.5 -60.5t201.5 -180t75 -281.5v-129h-828q14 -118 86 -184t195 -66q98 0 165 43t85 104h297q-8 -70 -49 -138t-109.5 -124t-172.5 -90.5t-224 -34.5z
M350 643h524q0 106 -72.5 165.5t-185.5 59.5q-117 0 -191.5 -59t-74.5 -166z" />
    <glyph glyph-name="Edotaccent" unicode="&#x116;" horiz-adv-x="1615" 
d="M807 1716q-76 0 -130 52t-54 128q0 72 54.5 123.5t129.5 51.5q77 0 132.5 -51.5t55.5 -123.5q0 -76 -55.5 -128t-132.5 -52zM498 303h927v-303h-1232v1556h1193v-303h-888v-313h807v-283h-807v-354z" />
    <glyph glyph-name="edotaccent" unicode="&#x117;" horiz-adv-x="1257" 
d="M606 1235q-76 0 -130 52t-54 128q0 72 54.5 123t129.5 51q77 0 133 -51t56 -123q0 -76 -56 -128t-133 -52zM621 -33q-180 0 -312 74t-198 202.5t-66 295.5q0 256 152 412.5t415 156.5q161 0 287.5 -60.5t201.5 -180t75 -281.5v-129h-828q14 -118 86 -184t195 -66
q98 0 165 43t85 104h297q-8 -70 -49 -138t-109.5 -124t-172.5 -90.5t-224 -34.5zM350 643h524q0 106 -72.5 165.5t-185.5 59.5q-117 0 -191.5 -59t-74.5 -166z" />
    <glyph glyph-name="Eogonek" unicode="&#x118;" horiz-adv-x="1615" 
d="M1382 -276q39 0 68 4v-146q-44 -6 -104 -6q-144 0 -211.5 53.5t-67.5 134.5q0 119 180 236h-1054v1556h1193v-303h-888v-313h807v-283h-807v-354h927v-303h-47q-143 -110 -143 -195q0 -81 147 -81z" />
    <glyph glyph-name="eogonek" unicode="&#x119;" horiz-adv-x="1202" 
d="M1176 586v-129h-828q14 -118 86 -184t195 -66q98 0 165 43t85 104h297q-7 -66 -44 -131t-99 -119t-156 -91t-203 -44q-105 -92 -105 -164q0 -81 148 -81q38 0 67 4v-146q-43 -6 -104 -6q-144 0 -211.5 53.5t-67.5 134.5q0 103 140 207q-235 24 -365.5 178.5t-130.5 389.5
q0 256 152 412.5t415 156.5q161 0 287.5 -60.5t201.5 -180t75 -281.5zM350 643h524q0 106 -72.5 165.5t-185.5 59.5q-117 0 -191.5 -59t-74.5 -166z" />
    <glyph glyph-name="Ecaron" unicode="&#x11a;" horiz-adv-x="1615" 
d="M1239 2038l-266 -359h-334l-266 359h235l199 -215l197 215h235zM498 303h927v-303h-1232v1556h1193v-303h-888v-313h807v-283h-807v-354z" />
    <glyph glyph-name="ecaron" unicode="&#x11b;" horiz-adv-x="1257" 
d="M1038 1556l-266 -358h-334l-266 358h236l200 -215l195 215h235zM621 -33q-180 0 -312 74t-198 202.5t-66 295.5q0 256 152 412.5t415 156.5q161 0 287.5 -60.5t201.5 -180t75 -281.5v-129h-828q14 -118 86 -184t195 -66q98 0 165 43t85 104h297q-8 -70 -49 -138
t-109.5 -124t-172.5 -90.5t-224 -34.5zM350 643h524q0 106 -72.5 165.5t-185.5 59.5q-117 0 -191.5 -59t-74.5 -166z" />
    <glyph glyph-name="Gbreve" unicode="&#x11e;" horiz-adv-x="1904" 
d="M1184 2038h229q0 -161 -121 -260t-319 -99q-197 0 -317.5 99t-120.5 260h227q0 -81 58.5 -130.5t152.5 -49.5q95 0 153 49t58 131zM1024 -33q-277 0 -483 100.5t-316 285t-110 429.5q0 246 105.5 429.5t295.5 280.5t440 97q322 0 545 -158.5t260 -408.5h-325
q-39 132 -167.5 213.5t-312.5 81.5q-236 0 -376 -143t-140 -392q0 -250 155 -396t431 -146q135 0 258 40t186 113v185h-575v262h866v-541q-99 -150 -301.5 -241t-435.5 -91z" />
    <glyph glyph-name="gbreve" unicode="&#x11f;" horiz-adv-x="1325" 
d="M866 1556h230q0 -161 -120.5 -259.5t-318.5 -98.5t-319 98.5t-121 259.5h229q0 -82 58 -131t153 -49q94 0 151.5 49t57.5 131zM926 1075h303v-932q0 -173 -35.5 -295.5t-107.5 -197t-173 -108.5t-239 -34q-247 0 -395.5 98t-188.5 288h295q23 -73 95.5 -114.5
t178.5 -41.5q143 0 203.5 73.5t63.5 245.5v76q-132 -166 -361 -166q-239 0 -379.5 160t-140.5 418q0 162 56.5 287.5t172.5 200.5t277 75q248 0 375 -174v141zM926 502v86q0 132 -82 205t-211 73q-140 0 -219.5 -84.5t-79.5 -240.5q0 -159 80.5 -245.5t220.5 -86.5
q131 0 211 75.5t80 217.5z" />
    <glyph glyph-name="Gdotaccent" unicode="&#x120;" horiz-adv-x="1904" 
d="M973 1716q-76 0 -131.5 52t-55.5 128q0 72 56 123.5t131 51.5q76 0 132 -51.5t56 -123.5q0 -75 -56 -127.5t-132 -52.5zM1024 -33q-277 0 -483 100.5t-316 285t-110 429.5q0 246 105.5 429.5t295.5 280.5t440 97q322 0 545 -158.5t260 -408.5h-325q-39 132 -167.5 213.5
t-312.5 81.5q-236 0 -376 -143t-140 -392q0 -250 155 -396t431 -146q135 0 258 40t186 113v185h-575v262h866v-541q-99 -150 -301.5 -241t-435.5 -91z" />
    <glyph glyph-name="gdotaccent" unicode="&#x121;" horiz-adv-x="1325" 
d="M655 1235q-76 0 -130 52t-54 128q0 72 54.5 123t129.5 51q77 0 133 -51t56 -123q0 -76 -56 -128t-133 -52zM926 1075h303v-932q0 -173 -35.5 -295.5t-107.5 -197t-173 -108.5t-239 -34q-247 0 -395.5 98t-188.5 288h295q23 -73 95.5 -114.5t178.5 -41.5q143 0 203.5 73.5
t63.5 245.5v76q-132 -166 -361 -166q-239 0 -379.5 160t-140.5 418q0 162 56.5 287.5t172.5 200.5t277 75q248 0 375 -174v141zM926 502v86q0 132 -82 205t-211 73q-140 0 -219.5 -84.5t-79.5 -240.5q0 -159 80.5 -245.5t220.5 -86.5q131 0 211 75.5t80 217.5z" />
    <glyph glyph-name="uni0122" unicode="&#x122;" horiz-adv-x="1904" 
d="M1024 -33q-277 0 -483 100.5t-316 285t-110 429.5q0 246 105.5 429.5t295.5 280.5t440 97q322 0 545 -158.5t260 -408.5h-325q-39 132 -167.5 213.5t-312.5 81.5q-236 0 -376 -143t-140 -392q0 -250 155 -396t431 -146q135 0 258 40t186 113v185h-575v262h866v-541
q-99 -150 -301.5 -241t-435.5 -91zM795 -492l75 349h283l-141 -349h-217z" />
    <glyph glyph-name="uni0123" unicode="&#x123;" horiz-adv-x="1325" 
d="M807 1829l-123 -316h141v-313h-338v313l156 316h164zM926 1075h303v-932q0 -173 -35.5 -295.5t-107.5 -197t-173 -108.5t-239 -34q-247 0 -395.5 98t-188.5 288h295q23 -73 95.5 -114.5t178.5 -41.5q143 0 203.5 73.5t63.5 245.5v76q-132 -166 -361 -166
q-239 0 -379.5 160t-140.5 418q0 162 56.5 287.5t172.5 200.5t277 75q248 0 375 -174v141zM926 502v86q0 132 -82 205t-211 73q-140 0 -219.5 -84.5t-79.5 -240.5q0 -159 80.5 -245.5t220.5 -86.5q131 0 211 75.5t80 217.5z" />
    <glyph glyph-name="Hbar" unicode="&#x126;" horiz-adv-x="1751" 
d="M1653 1298v-231h-92v-1067h-310v647h-751v-647h-307v1067h-95v231h95v258h307v-258h751v258h310v-258h92zM1251 940v127h-751v-127h751z" />
    <glyph glyph-name="hbar" unicode="&#x127;" horiz-adv-x="1345" 
d="M791 1108q205 0 319.5 -116t114.5 -326v-666h-303v547q0 164 -61.5 242.5t-174.5 78.5q-123 0 -205 -91.5t-82 -241.5v-535h-303v1165h-131v232h131v159h303v-159h346v-232h-346v-252q66 101 170 148t222 47z" />
    <glyph glyph-name="Imacron" unicode="&#x12a;" horiz-adv-x="634" 
d="M705 1735h-779v221h779v-221zM164 0v1556h307v-1556h-307z" />
    <glyph glyph-name="imacron" unicode="&#x12b;" horiz-adv-x="634" 
d="M709 1253h-781v222h781v-222zM166 0v1075h303v-1075h-303z" />
    <glyph glyph-name="Iogonek" unicode="&#x12e;" horiz-adv-x="634" 
d="M449 -276q38 0 67 4v-146q-44 -6 -104 -6q-143 0 -210 53.5t-67 134.5q0 119 180 236h-151v1556h307v-1556h-27q-143 -110 -143 -195q0 -81 148 -81z" />
    <glyph glyph-name="iogonek" unicode="&#x12f;" horiz-adv-x="628" 
d="M205 1556h321v-288h-321v288zM215 0v1075h303v-1075h-112q-144 -111 -144 -195q0 -81 148 -81q38 0 67 4v-146q-43 -6 -104 -6q-143 0 -210 53.5t-67 134.5q0 119 180 236h-61z" />
    <glyph glyph-name="Idotaccent" unicode="&#x130;" horiz-adv-x="634" 
d="M315 1716q-76 0 -130 52t-54 128q0 72 54.5 123.5t129.5 51.5q77 0 133 -51.5t56 -123.5q0 -76 -56 -128t-133 -52zM164 0v1556h307v-1556h-307z" />
    <glyph glyph-name="dotlessi" unicode="&#x131;" horiz-adv-x="634" 
d="M166 0v1075h303v-1075h-303z" />
    <glyph glyph-name="uni0136" unicode="&#x136;" horiz-adv-x="1560" 
d="M764 788l745 -788h-379l-630 678v-678h-307v1556h307v-661l594 661h376zM569 -492l76 349h283l-142 -349h-217z" />
    <glyph glyph-name="uni0137" unicode="&#x137;" horiz-adv-x="1089" 
d="M651 539l418 -537h-315l-355 399v-401h-303v1556h303v-958l326 477h315zM283 -492l75 349h283l-141 -349h-217z" />
    <glyph glyph-name="Lacute" unicode="&#x139;" horiz-adv-x="1394" 
d="M1004 2038l-371 -359h-252l244 359h379zM498 303h866v-303h-1171v1556h305v-1253z" />
    <glyph glyph-name="lacute" unicode="&#x13a;" horiz-adv-x="493" 
d="M559 1995l-371 -359h-251l243 359h379zM96 0v1556h303v-1556h-303z" />
    <glyph glyph-name="uni013B" unicode="&#x13b;" horiz-adv-x="1394" 
d="M498 303h866v-303h-1171v1556h305v-1253zM514 -492l76 349h282l-141 -349h-217z" />
    <glyph glyph-name="uni013C" unicode="&#x13c;" horiz-adv-x="493" 
d="M96 0v1556h303v-1556h-303zM63 -492l76 349h285l-143 -349h-218z" />
    <glyph glyph-name="Lcaron" unicode="&#x13d;" horiz-adv-x="1394" 
d="M498 303h866v-303h-1171v1556h305v-1253zM1323 1556l-215 -358h-238l99 358h354z" />
    <glyph glyph-name="lcaron" unicode="&#x13e;" horiz-adv-x="669" 
d="M125 0v1556h303v-1556h-303zM997 1556l-215 -358h-235l98 358h352z" />
    <glyph glyph-name="Lslash" unicode="&#x141;" horiz-adv-x="1394" 
d="M498 303h866v-303h-1171v664l-205 -129v323l205 129v569h305v-378l229 143v-324l-229 -143v-551z" />
    <glyph glyph-name="lslash" unicode="&#x142;" horiz-adv-x="493" 
d="M625 1163v-323l-226 -142v-698h-303v508l-209 -131v323l209 131v725h303v-534z" />
    <glyph glyph-name="Nacute" unicode="&#x143;" horiz-adv-x="1751" 
d="M1182 2038l-371 -359h-252l244 359h379zM193 0v1556h296l762 -1056v1056h310v-1556h-310l-751 1020v-1020h-307z" />
    <glyph glyph-name="nacute" unicode="&#x144;" horiz-adv-x="1345" 
d="M971 1556l-371 -358h-252l244 358h379zM96 0v1075h303v-162q66 101 170 148t222 47q203 0 318.5 -121t115.5 -332v-655h-303v547q0 164 -61.5 242.5t-174.5 78.5q-123 0 -205 -91.5t-82 -241.5v-535h-303z" />
    <glyph glyph-name="uni0145" unicode="&#x145;" horiz-adv-x="1751" 
d="M193 0v1556h296l762 -1056v1056h310v-1556h-310l-751 1020v-1020h-307zM692 -492l76 349h285l-144 -349h-217z" />
    <glyph glyph-name="uni0146" unicode="&#x146;" horiz-adv-x="1345" 
d="M96 0v1075h303v-162q66 101 170 148t222 47q203 0 318.5 -121t115.5 -332v-655h-303v547q0 164 -61.5 242.5t-174.5 78.5q-123 0 -205 -91.5t-82 -241.5v-535h-303zM481 -492l76 349h283l-142 -349h-217z" />
    <glyph glyph-name="Ncaron" unicode="&#x147;" horiz-adv-x="1751" 
d="M1303 2038l-267 -359h-334l-266 359h236l200 -215l195 215h236zM193 0v1556h296l762 -1056v1056h310v-1556h-310l-751 1020v-1020h-307z" />
    <glyph glyph-name="ncaron" unicode="&#x148;" horiz-adv-x="1345" 
d="M1092 1556l-267 -358h-333l-267 358h236l198 -215l197 215h236zM96 0v1075h303v-162q66 101 170 148t222 47q203 0 318.5 -121t115.5 -332v-655h-303v547q0 164 -61.5 242.5t-174.5 78.5q-123 0 -205 -91.5t-82 -241.5v-535h-303z" />
    <glyph glyph-name="Eng" unicode="&#x14a;" horiz-adv-x="1751" 
d="M1100 -492q-111 0 -198.5 25.5t-140.5 65t-89 95t-51.5 106.5t-20.5 108h311q6 -164 174 -164q44 0 75.5 13.5t49.5 34.5t28 56t13 66.5t4 77.5l-753 1028v-1020h-309v1556h301l755 -1056v1056h312v-1556q0 -84 -9.5 -149.5t-39 -132.5t-78.5 -111t-134 -71.5t-200 -27.5
z" />
    <glyph glyph-name="eng" unicode="&#x14b;" horiz-adv-x="1345" 
d="M852 -492q-53 0 -99 3t-65 7l-20 3v225q26 -6 73 -6q94 0 137.5 33.5t43.5 103.5v680q0 311 -228 311q-131 0 -213 -90.5t-82 -242.5v-535h-303v1075h303v-162q130 195 398 195q205 0 316 -117t112 -344v-811q0 -163 -85 -245.5t-288 -82.5z" />
    <glyph glyph-name="Omacron" unicode="&#x14c;" horiz-adv-x="1931" 
d="M1354 1735h-781v221h781v-221zM969 -33q-196 0 -358 62t-270 171t-167 257.5t-59 320.5t59 320.5t167 257.5t270 171t358 62q195 0 356 -62t268.5 -171t166.5 -257.5t59 -320.5t-59 -320.5t-166.5 -257.5t-268.5 -171t-356 -62zM965 240q122 0 222.5 44t165.5 119
t100.5 171.5t35.5 203.5t-35.5 204t-100.5 171.5t-165.5 119t-222.5 44.5q-121 0 -221.5 -44.5t-165.5 -119t-100.5 -171.5t-35.5 -204t35.5 -203.5t101 -171.5t165.5 -119t221 -44z" />
    <glyph glyph-name="omacron" unicode="&#x14d;" horiz-adv-x="1273" 
d="M1026 1253h-780v222h780v-222zM639 -33q-268 0 -431 160.5t-163 411.5q0 253 162.5 411t431.5 158t429.5 -158t160.5 -411q0 -123 -41.5 -228.5t-117 -181.5t-187 -119t-244.5 -43zM637 207q137 0 216 87t79 245q0 156 -79 242.5t-216 86.5q-136 0 -214.5 -86t-78.5 -243
q0 -158 78.5 -245t214.5 -87z" />
    <glyph glyph-name="Ohungarumlaut" unicode="&#x150;" horiz-adv-x="1931" 
d="M993 2038l-370 -359h-252l243 359h379zM1554 2038l-370 -359h-252l244 359h378zM969 -33q-196 0 -358 62t-270 171t-167 257.5t-59 320.5t59 320.5t167 257.5t270 171t358 62q195 0 356 -62t268.5 -171t166.5 -257.5t59 -320.5t-59 -320.5t-166.5 -257.5t-268.5 -171
t-356 -62zM965 240q122 0 222.5 44t165.5 119t100.5 171.5t35.5 203.5t-35.5 204t-100.5 171.5t-165.5 119t-222.5 44.5q-121 0 -221.5 -44.5t-165.5 -119t-100.5 -171.5t-35.5 -204t35.5 -203.5t101 -171.5t165.5 -119t221 -44z" />
    <glyph glyph-name="ohungarumlaut" unicode="&#x151;" horiz-adv-x="1273" 
d="M666 1556l-371 -358h-252l244 358h379zM1227 1556l-371 -358h-252l244 358h379zM639 -33q-268 0 -431 160.5t-163 411.5q0 253 162.5 411t431.5 158t429.5 -158t160.5 -411q0 -123 -41.5 -228.5t-117 -181.5t-187 -119t-244.5 -43zM637 207q137 0 216 87t79 245
q0 156 -79 242.5t-216 86.5q-136 0 -214.5 -86t-78.5 -243q0 -158 78.5 -245t214.5 -87z" />
    <glyph glyph-name="OE" unicode="&#x152;" horiz-adv-x="2922" 
d="M965 -33q-157 0 -292.5 40t-237 113.5t-174 173.5t-109.5 223.5t-37 260.5t37 260.5t109.5 223.5t174 173.5t237 113.5t292.5 40q334 0 532 -172v142h1196v-304h-887v-303h807v-303h-807v-346h924v-301h-1233v139q-197 -174 -532 -174zM965 240q122 0 222 44t165 119
t100 171.5t35 203.5t-35 204t-100 171.5t-165 119t-222 44.5q-121 0 -221.5 -44.5t-165.5 -119t-100.5 -171.5t-35.5 -204t35.5 -203.5t101 -171.5t165.5 -119t221 -44z" />
    <glyph glyph-name="oe" unicode="&#x153;" horiz-adv-x="2172" 
d="M651 -33q-184 0 -322.5 74.5t-211 203.5t-72.5 294q0 254 164.5 411.5t443.5 157.5q289 0 451 -162q152 162 428 162q119 0 218 -34.5t174 -101t118 -170.5t47 -237v-104l-2 -4h-825q15 -118 87 -184t193 -66q106 0 173 47t79 121h297q-3 -77 -44 -150t-111 -130.5
t-175 -92.5t-227 -35q-279 0 -430 164q-164 -164 -453 -164zM651 207q147 0 228.5 86.5t81.5 245.5q0 158 -81.5 243.5t-228.5 85.5t-227 -85.5t-80 -243.5q0 -159 80 -245.5t227 -86.5zM1266 647h526q-17 110 -83.5 165.5t-170.5 55.5q-117 0 -187.5 -59.5t-84.5 -161.5z
" />
    <glyph glyph-name="Racute" unicode="&#x154;" horiz-adv-x="1533" 
d="M1071 2038l-371 -359h-251l243 359h379zM193 0v1556h630q274 0 432 -116.5t158 -335.5q0 -173 -126.5 -294t-340.5 -144q-68 -7 -98 -7l655 -659h-375l-630 637v-637h-305zM498 897h305q122 0 206.5 48t84.5 145q0 98 -81.5 149t-230.5 51h-284v-393z" />
    <glyph glyph-name="racute" unicode="&#x155;" horiz-adv-x="831" 
d="M702 1556l-370 -358h-252l244 358h378zM96 0v1075h293v-192q74 132 201 184q86 35 227 35v-305h-41q-177 0 -277 -101.5t-100 -271.5v-424h-303z" />
    <glyph glyph-name="uni0156" unicode="&#x156;" horiz-adv-x="1533" 
d="M193 0v1556h630q274 0 432 -116.5t158 -335.5q0 -173 -126.5 -294t-340.5 -144q-68 -7 -98 -7l655 -659h-375l-630 637v-637h-305zM498 897h305q122 0 206.5 48t84.5 145q0 98 -81.5 149t-230.5 51h-284v-393zM582 -492l75 349h285l-143 -349h-217z" />
    <glyph glyph-name="uni0157" unicode="&#x157;" horiz-adv-x="831" 
d="M96 0v1075h293v-192q74 132 201 184q86 35 227 35v-305h-41q-177 0 -277 -101.5t-100 -271.5v-424h-303zM225 -492l76 349h285l-144 -349h-217z" />
    <glyph glyph-name="Rcaron" unicode="&#x158;" horiz-adv-x="1533" 
d="M1192 2038l-266 -359h-334l-266 359h235l201 -215l194 215h236zM193 0v1556h630q274 0 432 -116.5t158 -335.5q0 -173 -126.5 -294t-340.5 -144q-68 -7 -98 -7l655 -659h-375l-630 637v-637h-305zM498 897h305q122 0 206.5 48t84.5 145q0 98 -81.5 149t-230.5 51h-284
v-393z" />
    <glyph glyph-name="rcaron" unicode="&#x159;" horiz-adv-x="831" 
d="M823 1556l-266 -358h-334l-266 358h236l198 -215l197 215h235zM96 0v1075h293v-192q74 132 201 184q86 35 227 35v-305h-41q-177 0 -277 -101.5t-100 -271.5v-424h-303z" />
    <glyph glyph-name="Sacute" unicode="&#x15a;" horiz-adv-x="1525" 
d="M1075 2038l-370 -359h-252l243 359h379zM827 -33q-183 0 -324.5 39.5t-232.5 112.5t-141.5 169.5t-62.5 215.5h329q41 -147 154.5 -211t296.5 -64q140 0 220.5 46.5t80.5 132.5q0 35 -18 65t-42.5 50t-65.5 38.5t-72.5 29t-76.5 23.5q-36 11 -108.5 30t-136.5 38t-123 41
q-83 31 -143 64.5t-111.5 81t-78 112t-26.5 145.5q0 98 37.5 177.5t99 132t145 87.5t171.5 50.5t182 15.5q298 0 464 -141t175 -379h-327q-6 60 -29 106.5t-55 74.5t-75.5 46t-85.5 24.5t-89 6.5q-42 0 -84.5 -7t-90 -24.5t-77 -55.5t-29.5 -91q-1 -66 45.5 -107t149.5 -73
q40 -12 79.5 -23t105 -29.5t124.5 -35.5q133 -35 182 -55q297 -116 295 -400q1 -230 -160 -344.5t-471 -114.5z" />
    <glyph glyph-name="sacute" unicode="&#x15b;" horiz-adv-x="1146" 
d="M893 1556l-371 -358h-252l244 358h379zM625 -33q-268 0 -413 104.5t-161 280.5h285q41 -159 287 -159q198 0 198 102q0 20 -7.5 37t-24.5 29.5t-34.5 22t-48 18.5t-54 14.5t-62.5 13.5q-93 19 -162.5 39t-133 49.5t-103 66t-63 87.5t-24.5 114q0 83 38.5 146.5t106.5 101
t155 56t190 18.5q241 0 365 -95t135 -265h-291q-15 139 -223 139q-85 0 -142 -24t-57 -79q0 -14 5.5 -26.5t19 -24t27 -20t40 -18.5t47 -16.5t58.5 -16t63.5 -15t73.5 -16.5q55 -13 93 -23.5t83 -26.5t75 -32.5t60.5 -41.5t48 -53.5t28.5 -67.5t11 -85q0 -164 -126 -249
t-363 -85z" />
    <glyph glyph-name="Scedilla" unicode="&#x15e;" horiz-adv-x="1525" 
d="M827 -33h-20l-78 -71h39q89 0 143 -39.5t54 -104.5q0 -77 -69 -121.5t-204 -44.5h-129v117h123q46 0 74 12.5t28 34.5q0 19 -28 30t-74 11h-100v105l78 79q-279 32 -428 173t-170 356h329q41 -147 154.5 -211t296.5 -64q140 0 220.5 46.5t80.5 132.5q0 35 -18 65
t-42.5 50t-65.5 38.5t-72.5 29t-76.5 23.5q-36 11 -108.5 30t-136.5 38t-123 41q-83 31 -143 64.5t-111.5 81t-78 112t-26.5 145.5q0 98 37.5 177.5t99 132t145 87.5t171.5 50.5t182 15.5q298 0 464 -141t175 -379h-327q-6 60 -29 106.5t-55 74.5t-75.5 46t-85.5 24.5
t-89 6.5q-42 0 -84.5 -7t-90 -24.5t-77 -55.5t-29.5 -91q-1 -66 45.5 -107t149.5 -73q40 -12 79.5 -23t105 -29.5t124.5 -35.5q133 -35 182 -55q297 -116 295 -400q1 -230 -160 -344.5t-471 -114.5z" />
    <glyph glyph-name="scedilla" unicode="&#x15f;" horiz-adv-x="1146" 
d="M1114 301q0 -164 -126 -249t-363 -85l-78 -71h39q89 0 142.5 -39.5t53.5 -104.5q0 -77 -68.5 -121.5t-201.5 -44.5h-129v117h123q46 0 74 12.5t28 34.5q0 19 -28 30t-74 11h-100v105l77 79q-201 27 -309.5 126.5t-122.5 250.5h285q41 -159 287 -159q198 0 198 102
q0 20 -7.5 37t-24.5 29.5t-34.5 22t-48 18.5t-54 14.5t-62.5 13.5q-93 19 -162.5 39t-133 49.5t-103 66t-63 87.5t-24.5 114q0 83 38.5 146.5t106.5 101t155 56t190 18.5q241 0 365 -95t135 -265h-291q-15 139 -223 139q-85 0 -142 -24t-57 -79q0 -14 5.5 -26.5t19 -24
t27 -20t40 -18.5t47 -16.5t58.5 -16t63.5 -15t73.5 -16.5q55 -13 93 -23.5t83 -26.5t75 -32.5t60.5 -41.5t48 -53.5t28.5 -67.5t11 -85z" />
    <glyph glyph-name="Scaron" unicode="&#x160;" horiz-adv-x="1525" 
d="M1196 2038l-266 -359h-334l-266 359h233l201 -215l197 215h235zM827 -33q-183 0 -324.5 39.5t-232.5 112.5t-141.5 169.5t-62.5 215.5h329q41 -147 154.5 -211t296.5 -64q140 0 220.5 46.5t80.5 132.5q0 35 -18 65t-42.5 50t-65.5 38.5t-72.5 29t-76.5 23.5
q-36 11 -108.5 30t-136.5 38t-123 41q-83 31 -143 64.5t-111.5 81t-78 112t-26.5 145.5q0 98 37.5 177.5t99 132t145 87.5t171.5 50.5t182 15.5q298 0 464 -141t175 -379h-327q-6 60 -29 106.5t-55 74.5t-75.5 46t-85.5 24.5t-89 6.5q-42 0 -84.5 -7t-90 -24.5t-77 -55.5
t-29.5 -91q-1 -66 45.5 -107t149.5 -73q40 -12 79.5 -23t105 -29.5t124.5 -35.5q133 -35 182 -55q297 -116 295 -400q1 -230 -160 -344.5t-471 -114.5z" />
    <glyph glyph-name="scaron" unicode="&#x161;" horiz-adv-x="1146" 
d="M1014 1556l-266 -358h-334l-267 358h236l199 -215l196 215h236zM625 -33q-268 0 -413 104.5t-161 280.5h285q41 -159 287 -159q198 0 198 102q0 20 -7.5 37t-24.5 29.5t-34.5 22t-48 18.5t-54 14.5t-62.5 13.5q-93 19 -162.5 39t-133 49.5t-103 66t-63 87.5t-24.5 114
q0 83 38.5 146.5t106.5 101t155 56t190 18.5q241 0 365 -95t135 -265h-291q-15 139 -223 139q-85 0 -142 -24t-57 -79q0 -14 5.5 -26.5t19 -24t27 -20t40 -18.5t47 -16.5t58.5 -16t63.5 -15t73.5 -16.5q55 -13 93 -23.5t83 -26.5t75 -32.5t60.5 -41.5t48 -53.5t28.5 -67.5
t11 -85q0 -164 -126 -249t-363 -85z" />
    <glyph glyph-name="uni0162" unicode="&#x162;" horiz-adv-x="1370" 
d="M688 -104q90 0 144.5 -39.5t54.5 -104.5q0 -77 -69 -121.5t-204 -44.5h-129v117h123q46 0 74.5 12.5t28.5 34.5q0 19 -28.5 30t-74.5 11h-100v105l102 104h-78v1253h-520v303h1344l2 -303h-520v-1253h-74l-115 -104h39z" />
    <glyph glyph-name="uni0163" unicode="&#x163;" horiz-adv-x="845" 
d="M586 -20q-54 0 -101 6l-100 -90h39q89 0 143 -39.5t54 -104.5q0 -77 -69 -121.5t-202 -44.5h-129v117h123q46 0 74 12.5t28 34.5q0 19 -28 30t-74 11h-100v105l118 122q-165 71 -165 310v479h-146v242q92 0 126 38.5t34 131.5v133h289v-277h243v-268h-243v-391
q0 -91 44.5 -123.5t149.5 -32.5h74v-270q-92 -10 -182 -10z" />
    <glyph glyph-name="Tcaron" unicode="&#x164;" horiz-adv-x="1370" 
d="M1116 2038l-266 -359h-334l-266 359h235l201 -215l197 215h233zM1358 1253h-520v-1253h-306v1253h-520v303h1344z" />
    <glyph glyph-name="tcaron" unicode="&#x165;" horiz-adv-x="794" 
d="M1055 1556l-215 -358h-236l98 358h353zM582 -20q-210 1 -301 88t-91 260v479h-143v242q92 0 126 38.5t34 131.5v133h287v-277h243v-268h-243v-391q0 -91 45 -123.5t149 -32.5h74v-270q-92 -10 -180 -10z" />
    <glyph glyph-name="Tbar" unicode="&#x166;" horiz-adv-x="1370" 
d="M838 1253v-360h237v-231h-237v-662h-306v662h-237v231h237v360h-520v303h1344l2 -303h-520z" />
    <glyph glyph-name="tbar" unicode="&#x167;" horiz-adv-x="907" 
d="M705 213q70 0 88 6v-227q-4 -1 -26 -4t-72 -5.5t-107 -2.5q-195 1 -275 80t-80 237v125h-129v231h129v195h-129v217q77 0 111.5 46t34.5 151v90h287v-277h213v-227h-213v-195h213v-231h-213v-53q0 -85 38.5 -120.5t129.5 -35.5z" />
    <glyph glyph-name="Umacron" unicode="&#x16a;" horiz-adv-x="1701" 
d="M1262 1735h-781v221h781v-221zM877 -33q-118 0 -214 17.5t-166.5 48.5t-123.5 78.5t-87 103.5t-55 128t-29.5 146.5t-8.5 165.5v901h307v-792q0 -76 2.5 -127.5t11 -111t24 -98.5t43.5 -77.5t67.5 -60.5t97 -35.5t131.5 -13.5q52 0 96 6t78 19t62 29.5t48 41.5t35 50
t25 60.5t16 67.5t9 77t4 83t1 90v792h310v-901q0 -93 -9 -169t-30 -148t-56 -128t-88 -102.5t-123.5 -77t-165.5 -47t-212 -16.5z" />
    <glyph glyph-name="umacron" unicode="&#x16b;" horiz-adv-x="1331" 
d="M1061 1253h-780v222h780v-222zM537 -33q-208 0 -319.5 117.5t-111.5 345.5v645h304v-557q0 -311 227 -311q131 0 213 91.5t82 244.5v532h303v-1075h-303v172q-129 -205 -395 -205z" />
    <glyph glyph-name="Uring" unicode="&#x16e;" horiz-adv-x="1701" 
d="M872 1679q-95 0 -152.5 53.5t-57.5 141.5q0 86 57.5 138t152.5 52q94 0 151.5 -52t57.5 -138q0 -88 -57.5 -141.5t-151.5 -53.5zM872 1802q34 0 56 19.5t22 50.5q0 30 -22 48.5t-56 18.5q-37 0 -58 -18t-21 -49t21.5 -50.5t57.5 -19.5zM877 -33q-118 0 -214 17.5
t-166.5 48.5t-123.5 78.5t-87 103.5t-55 128t-29.5 146.5t-8.5 165.5v901h307v-792q0 -76 2.5 -127.5t11 -111t24 -98.5t43.5 -77.5t67.5 -60.5t97 -35.5t131.5 -13.5q52 0 96 6t78 19t62 29.5t48 41.5t35 50t25 60.5t16 67.5t9 77t4 83t1 90v792h310v-901q0 -93 -9 -169
t-30 -148t-56 -128t-88 -102.5t-123.5 -77t-165.5 -47t-212 -16.5z" />
    <glyph glyph-name="uring" unicode="&#x16f;" horiz-adv-x="1331" 
d="M672 1198q-95 0 -153 53.5t-58 141.5q0 86 58 138t153 52t153 -52t58 -138q0 -88 -58 -141.5t-153 -53.5zM672 1321q34 0 56 19.5t22 50.5q0 30 -22 48.5t-56 18.5q-36 0 -58 -18.5t-22 -48.5q0 -31 22.5 -50.5t57.5 -19.5zM537 -33q-208 0 -319.5 117.5t-111.5 345.5
v645h304v-557q0 -311 227 -311q131 0 213 91.5t82 244.5v532h303v-1075h-303v172q-129 -205 -395 -205z" />
    <glyph glyph-name="Uhungarumlaut" unicode="&#x170;" horiz-adv-x="1701" 
d="M901 2038l-371 -359h-251l243 359h379zM1462 2038l-370 -359h-252l243 359h379zM877 -33q-118 0 -214 17.5t-166.5 48.5t-123.5 78.5t-87 103.5t-55 128t-29.5 146.5t-8.5 165.5v901h307v-792q0 -76 2.5 -127.5t11 -111t24 -98.5t43.5 -77.5t67.5 -60.5t97 -35.5
t131.5 -13.5q52 0 96 6t78 19t62 29.5t48 41.5t35 50t25 60.5t16 67.5t9 77t4 83t1 90v792h310v-901q0 -93 -9 -169t-30 -148t-56 -128t-88 -102.5t-123.5 -77t-165.5 -47t-212 -16.5z" />
    <glyph glyph-name="uhungarumlaut" unicode="&#x171;" horiz-adv-x="1331" 
d="M700 1556l-370 -358h-252l244 358h378zM1262 1556l-371 -358h-252l244 358h379zM537 -33q-208 0 -319.5 117.5t-111.5 345.5v645h304v-557q0 -311 227 -311q131 0 213 91.5t82 244.5v532h303v-1075h-303v172q-129 -205 -395 -205z" />
    <glyph glyph-name="Uogonek" unicode="&#x172;" horiz-adv-x="1701" 
d="M1251 1556h310v-901q0 -126 -16.5 -223.5t-59.5 -185t-113.5 -145t-181.5 -93.5t-260 -41q-105 -92 -105 -162q0 -81 148 -81q38 0 67 4v-146q-44 -6 -104 -6q-143 0 -210 53.5t-67 134.5q0 102 138 205q-144 8 -251.5 46t-174 96.5t-107 145.5t-56 181.5t-15.5 216.5
v901h307v-792q0 -76 2.5 -127.5t11 -111t24 -98.5t43.5 -77.5t67.5 -60.5t97 -35.5t131.5 -13.5q52 0 96 6t78 19t62 29.5t48 41.5t35 50t25 60.5t16 67.5t9 77t4 83t1 90v792z" />
    <glyph glyph-name="uogonek" unicode="&#x173;" horiz-adv-x="1331" 
d="M1153 0q-143 -110 -143 -195q0 -81 147 -81q39 0 68 4v-146q-43 -6 -105 -6q-143 0 -209.5 53.5t-66.5 134.5q0 119 180 236h-92v172q-129 -205 -395 -205q-208 0 -319.5 117.5t-111.5 345.5v645h304v-557q0 -311 227 -311q131 0 213 91.5t82 244.5v532h303v-1075h-82z
" />
    <glyph glyph-name="Wcircumflex" unicode="&#x174;" horiz-adv-x="2512" 
d="M1688 1679h-236l-197 215l-198 -215h-236l266 359h334zM498 0l-467 1556h340l305 -1204l389 1204h381l391 -1204l305 1204h340l-467 -1556h-340l-420 1241l-419 -1241h-338z" />
    <glyph glyph-name="wcircumflex" unicode="&#x175;" horiz-adv-x="2041" 
d="M1454 1198h-235l-197 215l-199 -215h-235l266 358h334zM469 0l-449 1075h318l280 -764h5l258 764h280l258 -764h4l281 764h315l-446 -1075h-301l-248 774h-6l-250 -774h-299z" />
    <glyph glyph-name="Ycircumflex" unicode="&#x176;" horiz-adv-x="1587" 
d="M1225 1679h-234l-196 215l-201 -215h-236l267 359h333zM641 0v543l-596 1013h342l408 -739l405 739h342l-596 -1013v-543h-305z" />
    <glyph glyph-name="ycircumflex" unicode="&#x177;" horiz-adv-x="1239" 
d="M1051 1198h-234l-196 215l-201 -215h-236l267 358h333zM274 -492l195 494l-449 1073h318l242 -663l38 -105h5l36 105l242 663h318l-420 -1001l-221 -566h-304z" />
    <glyph glyph-name="Ydieresis" unicode="&#x178;" horiz-adv-x="1587" 
d="M469 1798v240h248v-240h-248zM874 1798v240h244v-240h-244zM641 0v543l-596 1013h342l408 -739l405 739h342l-596 -1013v-543h-305z" />
    <glyph glyph-name="Zacute" unicode="&#x179;" horiz-adv-x="1564" 
d="M1100 2038l-371 -359h-252l244 359h379zM494 303h981v-303h-1369v303l900 950h-877v303h1262l2 -303z" />
    <glyph glyph-name="zacute" unicode="&#x17a;" horiz-adv-x="1259" 
d="M948 1556l-370 -358h-252l243 358h379zM422 244h768v-244h-1108v244l721 587h-705v244h1043l2 -244z" />
    <glyph glyph-name="Zdotaccent" unicode="&#x17b;" horiz-adv-x="1564" 
d="M788 1716q-76 0 -130 52t-54 128q0 72 54.5 123.5t129.5 51.5q77 0 133 -51.5t56 -123.5q0 -76 -56 -128t-133 -52zM494 303h981v-303h-1369v303l900 950h-877v303h1262l2 -303z" />
    <glyph glyph-name="zdotaccent" unicode="&#x17c;" horiz-adv-x="1259" 
d="M637 1235q-76 0 -130 52t-54 128q0 72 54.5 123t129.5 51q77 0 132.5 -51t55.5 -123q0 -76 -55.5 -128t-132.5 -52zM422 244h768v-244h-1108v244l721 587h-705v244h1043l2 -244z" />
    <glyph glyph-name="Zcaron" unicode="&#x17d;" horiz-adv-x="1564" 
d="M1221 2038l-267 -359h-333l-267 359h236l201 -215l194 215h236zM494 303h981v-303h-1369v303l900 950h-877v303h1262l2 -303z" />
    <glyph glyph-name="zcaron" unicode="&#x17e;" horiz-adv-x="1259" 
d="M1069 1556l-266 -358h-334l-266 358h235l201 -215l195 215h235zM422 244h768v-244h-1108v244l721 587h-705v244h1043l2 -244z" />
    <glyph glyph-name="AEacute" unicode="&#x1fc;" horiz-adv-x="2570" 
d="M1593 2038l-370 -359h-252l243 359h379zM1452 307h926v-307h-1233v356h-613l-180 -356h-340l785 1556h1542v-307h-887v-297h807v-307h-807v-338zM973 1249l-291 -583h463v583h-172z" />
    <glyph glyph-name="aeacute" unicode="&#x1fd;" horiz-adv-x="2076" 
d="M1274 1556l-371 -358h-252l244 358h379zM518 -33q-105 0 -187 21t-132 54t-82 78.5t-44 89t-12 91.5q0 35 7 68t25.5 70t48 68.5t78.5 61t113 50t155.5 33t201.5 12.5h168q0 51 -8 87t-30.5 68t-68.5 48t-116 16q-114 0 -167 -44t-58 -112h-297q2 61 17.5 114t54 103.5
t96.5 85.5t151 56.5t213 21.5q289 0 406 -133q136 133 389 133q118 0 217 -34.5t173 -101t117 -170.5t46 -237v-104l-2 -4h-824q14 -118 86 -184t195 -66q105 0 172 47t78 121h297q-2 -76 -43 -149t-110.5 -131t-173.5 -93t-224 -35q-147 0 -262.5 47.5t-182.5 124.5
q-72 -86 -200 -129t-281 -43zM1169 657h527q-15 104 -83 157.5t-173 53.5q-114 0 -185.5 -58t-85.5 -153zM573 182q136 0 211.5 53t75.5 130v114h-178q-81 0 -141.5 -11t-95 -27.5t-55.5 -39.5t-27.5 -43t-6.5 -43q0 -133 217 -133z" />
    <glyph glyph-name="uni0218" unicode="&#x218;" horiz-adv-x="1525" 
d="M827 -33q-183 0 -324.5 39.5t-232.5 112.5t-141.5 169.5t-62.5 215.5h329q41 -147 154.5 -211t296.5 -64q140 0 220.5 46.5t80.5 132.5q0 35 -18 65t-42.5 50t-65.5 38.5t-72.5 29t-76.5 23.5q-36 11 -108.5 30t-136.5 38t-123 41q-83 31 -143 64.5t-111.5 81t-78 112
t-26.5 145.5q0 98 37.5 177.5t99 132t145 87.5t171.5 50.5t182 15.5q298 0 464 -141t175 -379h-327q-6 60 -29 106.5t-55 74.5t-75.5 46t-85.5 24.5t-89 6.5q-42 0 -84.5 -7t-90 -24.5t-77 -55.5t-29.5 -91q-1 -66 45.5 -107t149.5 -73q40 -12 79.5 -23t105 -29.5
t124.5 -35.5q133 -35 182 -55q297 -116 295 -400q1 -230 -160 -344.5t-471 -114.5zM586 -492l76 349h282l-141 -349h-217z" />
    <glyph glyph-name="uni0219" unicode="&#x219;" horiz-adv-x="1146" 
d="M625 -33q-268 0 -413 104.5t-161 280.5h285q41 -159 287 -159q198 0 198 102q0 20 -7.5 37t-24.5 29.5t-34.5 22t-48 18.5t-54 14.5t-62.5 13.5q-93 19 -162.5 39t-133 49.5t-103 66t-63 87.5t-24.5 114q0 83 38.5 146.5t106.5 101t155 56t190 18.5q241 0 365 -95
t135 -265h-291q-15 139 -223 139q-85 0 -142 -24t-57 -79q0 -14 5.5 -26.5t19 -24t27 -20t40 -18.5t47 -16.5t58.5 -16t63.5 -15t73.5 -16.5q55 -13 93 -23.5t83 -26.5t75 -32.5t60.5 -41.5t48 -53.5t28.5 -67.5t11 -85q0 -164 -126 -249t-363 -85zM403 -492l76 349h283
l-141 -349h-218z" />
    <glyph glyph-name="uni021A" unicode="&#x21a;" horiz-adv-x="1370" 
d="M1358 1253h-520v-1253h-306v1253h-520v303h1344zM506 -492l76 349h284l-143 -349h-217z" />
    <glyph glyph-name="uni021B" unicode="&#x21b;" horiz-adv-x="845" 
d="M586 -20q-210 1 -299.5 87.5t-89.5 260.5v479h-146v242q92 0 126 38.5t34 131.5v133h289v-277h243v-268h-243v-391q0 -91 44.5 -123.5t149.5 -32.5h74v-270q-92 -10 -182 -10zM242 -492l75 349h283l-141 -349h-217z" />
    <glyph glyph-name="circumflex" unicode="&#x2c6;" horiz-adv-x="1075" 
d="M836 1198h-234l-196 215l-201 -215h-236l267 358h333z" />
    <glyph glyph-name="caron" unicode="&#x2c7;" horiz-adv-x="1075" 
d="M733 1556l-266 -358h-334l-266 358h235l199 -215l197 215h235z" />
    <glyph glyph-name="breve" unicode="&#x2d8;" horiz-adv-x="1064" 
d="M573 1556h228q0 -161 -120.5 -259.5t-318.5 -98.5q-197 0 -317.5 98.5t-120.5 259.5h228q0 -81 58 -130.5t152 -49.5q95 0 153 49t58 131z" />
    <glyph glyph-name="dotaccent" unicode="&#x2d9;" horiz-adv-x="628" 
d="M20 1235q-76 0 -130 52t-54 128q0 72 54.5 123t129.5 51q77 0 133 -51t56 -123q0 -76 -56 -128t-133 -52z" />
    <glyph glyph-name="ring" unicode="&#x2da;" horiz-adv-x="669" 
d="M131 1198q-94 0 -151.5 53.5t-57.5 141.5q0 86 57.5 138t151.5 52q95 0 153 -52t58 -138q0 -88 -58 -141.5t-153 -53.5zM131 1321q35 0 56.5 19.5t21.5 50.5t-21.5 49t-56.5 18t-56.5 -18t-21.5 -49t21.5 -50.5t56.5 -19.5z" />
    <glyph glyph-name="ogonek" unicode="&#x2db;" horiz-adv-x="585" 
d="M385 -424q-143 0 -209.5 53.5t-66.5 134.5q0 31 13 62.5t29.5 54t45 48t45.5 38t45.5 32t31.5 21.5h125q-170 -124 -170 -215q0 -81 148 -81q38 0 67 4v-146q-44 -6 -104 -6z" />
    <glyph glyph-name="tilde" unicode="&#x2dc;" horiz-adv-x="1040" 
d="M281 1526q46 0 89 -17t69.5 -37.5t58 -37.5t57.5 -17q36 0 58 26.5t22 72.5h196q0 -134 -69.5 -210.5t-183.5 -76.5q-51 0 -95 17t-69 37t-54.5 37t-54.5 17q-34 0 -55 -26.5t-21 -71.5h-198q0 126 70 206.5t180 80.5z" />
    <glyph glyph-name="hungarumlaut" unicode="&#x2dd;" horiz-adv-x="1267" 
d="M676 1556l-371 -358h-252l244 358h379zM1237 1556l-371 -358h-252l244 358h379z" />
    <glyph glyph-name="gravecomb" unicode="&#x300;" 
d="M-676 1556h379l244 -358h-250z" />
    <glyph glyph-name="acutecomb" unicode="&#x301;" 
d="M-31 1556l-370 -358h-252l243 358h379z" />
    <glyph glyph-name="uni0302" unicode="&#x302;" 
d="M-104 1198h-236l-197 215l-198 -215h-236l266 358h334z" />
    <glyph glyph-name="tildecomb" unicode="&#x303;" 
d="M-674 1526q46 0 89 -17t70 -37.5t58.5 -37.5t57.5 -17q37 0 58.5 26t21.5 73h198q0 -134 -70.5 -210.5t-185.5 -76.5q-51 0 -94.5 17t-68.5 37t-53.5 37t-53.5 17q-34 0 -56 -26.5t-22 -71.5h-197q0 126 69 206.5t179 80.5z" />
    <glyph glyph-name="uni0304" unicode="&#x304;" 
d="M-166 1253h-780v222h780v-222z" />
    <glyph glyph-name="uni0306" unicode="&#x306;" 
d="M-324 1556h230q0 -161 -120 -259.5t-318 -98.5t-319.5 98.5t-121.5 259.5h230q0 -82 58 -131t153 -49t151.5 49t56.5 131z" />
    <glyph glyph-name="uni0307" unicode="&#x307;" 
d="M-315 1235q-76 0 -131.5 52t-55.5 128q0 71 55.5 122.5t131.5 51.5t132 -51.5t56 -122.5q0 -75 -56 -127.5t-132 -52.5z" />
    <glyph glyph-name="uni0308" unicode="&#x308;" 
d="M-750 1317v239h248v-239h-248zM-344 1317v239h244v-239h-244z" />
    <glyph glyph-name="uni030A" unicode="&#x30a;" 
d="M-336 1198q-95 0 -153 53.5t-58 141.5q0 86 58 138t153 52t153 -52t58 -138q0 -88 -58 -141.5t-153 -53.5zM-336 1321q35 0 56.5 19.5t21.5 50.5t-21.5 49t-56.5 18q-36 0 -58 -18.5t-22 -48.5q0 -31 22.5 -50.5t57.5 -19.5z" />
    <glyph glyph-name="uni030B" unicode="&#x30b;" 
d="M-592 1556l-371 -358h-251l243 358h379zM-31 1556l-370 -358h-252l243 358h379z" />
    <glyph glyph-name="uni030C" unicode="&#x30c;" 
d="M-104 1556l-267 -358h-334l-266 358h236l198 -215l197 215h236z" />
    <glyph glyph-name="uni0312" unicode="&#x312;" 
d="M-154 1829l-122 -316h141v-313h-340v313l156 316h165z" />
    <glyph glyph-name="uni0326" unicode="&#x326;" 
d="M-451 -492l76 349h283l-141 -349h-218z" />
    <glyph glyph-name="uni0327" unicode="&#x327;" 
d="M-338 -104h39q89 0 143 -39.5t54 -104.5q0 -77 -69 -121.5t-204 -44.5h-129v117h125q46 0 74.5 12.5t28.5 34.5q0 19 -28.5 30t-74.5 11h-102v105l166 167h159z" />
    <glyph glyph-name="uni0328" unicode="&#x328;" 
d="M-199 -424q-143 0 -209.5 53.5t-66.5 134.5q0 31 13 62.5t30 54t45 48t45.5 38t46 32t31.5 21.5h125q-170 -124 -170 -215q0 -81 147 -81q39 0 68 4v-146q-44 -6 -105 -6z" />
    <glyph glyph-name="uni0335" unicode="&#x335;" 
d="M-166 436h-780v230h780v-230z" />
    <glyph glyph-name="uni0336" unicode="&#x336;" 
d="M-166 666v-230h-1554v230h1554z" />
    <glyph glyph-name="uni0337" unicode="&#x337;" 
d="M-813 768l739 463v-324l-739 -463v324z" />
    <glyph glyph-name="uni0338" unicode="&#x338;" 
d="M-1536 -238l1255 1794h281l-1255 -1794h-281z" />
    <glyph glyph-name="Wgrave" unicode="&#x1e80;" horiz-adv-x="2512" 
d="M944 2038h379l244 -359h-250zM498 0l-467 1556h340l305 -1204l389 1204h381l391 -1204l305 1204h340l-467 -1556h-340l-420 1241l-419 -1241h-338z" />
    <glyph glyph-name="wgrave" unicode="&#x1e81;" horiz-adv-x="2041" 
d="M711 1556h379l243 -358h-250zM469 0l-449 1075h318l280 -764h5l258 764h280l258 -764h4l281 764h315l-446 -1075h-301l-248 774h-6l-250 -774h-299z" />
    <glyph glyph-name="Wacute" unicode="&#x1e82;" horiz-adv-x="2512" 
d="M1567 2038l-371 -359h-252l244 359h379zM498 0l-467 1556h340l305 -1204l389 1204h381l391 -1204l305 1204h340l-467 -1556h-340l-420 1241l-419 -1241h-338z" />
    <glyph glyph-name="wacute" unicode="&#x1e83;" horiz-adv-x="2041" 
d="M1333 1556l-370 -358h-252l243 358h379zM469 0l-449 1075h318l280 -764h5l258 764h280l258 -764h4l281 764h315l-446 -1075h-301l-248 774h-6l-250 -774h-299z" />
    <glyph glyph-name="Wdieresis" unicode="&#x1e84;" horiz-adv-x="2512" 
d="M930 1798v240h248v-240h-248zM1335 1798v240h244v-240h-244zM498 0l-467 1556h340l305 -1204l389 1204h381l391 -1204l305 1204h340l-467 -1556h-340l-420 1241l-419 -1241h-338z" />
    <glyph glyph-name="wdieresis" unicode="&#x1e85;" horiz-adv-x="2041" 
d="M684 1317v239h248v-239h-248zM1090 1317v239h243v-239h-243zM469 0l-449 1075h318l280 -764h5l258 764h280l258 -764h4l281 764h315l-446 -1075h-301l-248 774h-6l-250 -774h-299z" />
    <glyph glyph-name="Ygrave" unicode="&#x1ef2;" horiz-adv-x="1587" 
d="M481 2038h379l244 -359h-250zM641 0v543l-596 1013h342l408 -739l405 739h342l-596 -1013v-543h-305z" />
    <glyph glyph-name="ygrave" unicode="&#x1ef3;" horiz-adv-x="1239" 
d="M307 1556h379l244 -358h-250zM274 -492l195 494l-449 1073h318l242 -663l38 -105h5l36 105l242 663h318l-420 -1001l-221 -566h-304z" />
    <glyph glyph-name="uni2009" unicode="&#x2009;" horiz-adv-x="389" 
 />
    <glyph glyph-name="endash" unicode="&#x2013;" horiz-adv-x="1492" 
d="M166 416v250h1161v-250h-1161z" />
    <glyph glyph-name="emdash" unicode="&#x2014;" horiz-adv-x="2584" 
d="M166 666h2253v-250h-2253v250z" />
    <glyph glyph-name="quoteleft" unicode="&#x2018;" horiz-adv-x="501" 
d="M385 1538l-111 -289h127v-288h-303v288l140 289h147z" />
    <glyph glyph-name="quoteright" unicode="&#x2019;" horiz-adv-x="501" 
d="M117 961l110 288h-129v289h303v-289l-137 -288h-147z" />
    <glyph glyph-name="quotesinglbase" unicode="&#x201a;" horiz-adv-x="501" 
d="M117 -289l110 289h-129v289h303v-289l-137 -289h-147z" />
    <glyph glyph-name="quotedblleft" unicode="&#x201c;" horiz-adv-x="919" 
d="M98 961v288l140 289h147l-111 -289h127v-288h-303zM518 961v288l139 289h146l-109 -289h127v-288h-303z" />
    <glyph glyph-name="quotedblright" unicode="&#x201d;" horiz-adv-x="919" 
d="M117 961l110 288h-129v289h303v-289l-137 -288h-147zM537 961l108 288h-127v289h303v-289l-139 -288h-145z" />
    <glyph glyph-name="quotedblbase" unicode="&#x201e;" horiz-adv-x="919" 
d="M117 -289l110 289h-129v289h303v-289l-137 -289h-147zM537 -289l108 289h-127v289h303v-289l-139 -289h-145z" />
    <glyph glyph-name="dagger" unicode="&#x2020;" horiz-adv-x="1239" 
d="M469 -492v658h-369v209h369v1181h303v-1181h365v-209h-365v-658h-303z" />
    <glyph glyph-name="daggerdbl" unicode="&#x2021;" horiz-adv-x="1298" 
d="M1167 588h-364v-213h364v-209h-364v-658h-303v658h-369v209h369v213h-369v209h369v759h303v-759h364v-209z" />
    <glyph glyph-name="bullet" unicode="&#x2022;" horiz-adv-x="731" 
d="M367 299q-111 0 -190 74t-79 182q0 102 79 175t190 73q108 0 187 -73t79 -175q0 -107 -78.5 -181.5t-187.5 -74.5z" />
    <glyph glyph-name="ellipsis" unicode="&#x2026;" horiz-adv-x="1544" 
d="M98 0v315h340v-315h-340zM604 0v315h336v-315h-336zM1106 0v315h340v-315h-340z" />
    <glyph glyph-name="perthousand" unicode="&#x2030;" horiz-adv-x="3287" 
d="M446 696q-104 0 -184.5 36t-130 98t-75 141.5t-25.5 171.5t25.5 171.5t75 141.5t130 97.5t184.5 35.5t185.5 -35.5t131 -98t74.5 -141.5t25 -171q0 -73 -15.5 -138.5t-48.5 -122.5t-81 -98t-117.5 -64.5t-153.5 -23.5zM477 -33l1039 1620h229l-1040 -1620h-228zM446 868
q71 0 119 43.5t67 103t19 128.5q0 50 -11.5 96.5t-34.5 87.5t-64 65.5t-95 24.5q-71 0 -119 -43.5t-66.5 -102.5t-18.5 -128q0 -50 11 -97t34 -88t64 -65.5t95 -24.5zM1749 -18q-104 0 -185 35.5t-130.5 97.5t-75 141.5t-25.5 171.5t25.5 171.5t75 141.5t130.5 97.5
t185 35.5t185 -35.5t130.5 -97.5t75 -141.5t25.5 -171.5t-25.5 -171.5t-75 -141.5t-130.5 -97.5t-185 -35.5zM2775 -18q-104 0 -185 35.5t-130.5 97.5t-75 141.5t-25.5 171.5t25.5 171.5t75 141.5t130.5 97.5t185 35.5t185 -35.5t130.5 -97.5t75 -141.5t25.5 -171.5
t-25.5 -171.5t-75 -141.5t-130.5 -97.5t-185 -35.5zM1749 154q54 0 95 24.5t64 65.5t34.5 87.5t11.5 96.5t-11.5 96.5t-34.5 87.5t-64 65.5t-95 24.5t-95 -24.5t-64 -65.5t-34.5 -87.5t-11.5 -96.5t11.5 -96.5t34.5 -87.5t64 -65.5t95 -24.5zM2775 154q54 0 95 24.5t64 65.5
t34.5 87.5t11.5 96.5t-11.5 96.5t-34.5 87.5t-64 65.5t-95 24.5t-95 -24.5t-64 -65.5t-34.5 -87.5t-11.5 -96.5t11.5 -96.5t34.5 -87.5t64 -65.5t95 -24.5z" />
    <glyph glyph-name="guilsinglleft" unicode="&#x2039;" horiz-adv-x="845" 
d="M786 997l-405 -454l405 -455h-319l-406 455l406 454h319z" />
    <glyph glyph-name="guilsinglright" unicode="&#x203a;" horiz-adv-x="845" 
d="M59 997h320l405 -454l-405 -455h-320l406 455z" />
    <glyph glyph-name="fraction" unicode="&#x2044;" horiz-adv-x="526" 
d="M-317 -33l944 1620h217l-944 -1620h-217z" />
    <glyph glyph-name="uni2070" unicode="&#x2070;" horiz-adv-x="866" 
d="M434 678q-177 0 -281 124t-104 322t104 322.5t281 124.5q176 0 278.5 -124.5t102.5 -322.5t-102.5 -322t-278.5 -124zM432 848q82 0 129 76t47 200t-47 200.5t-129 76.5t-128 -76.5t-46 -200.5t46 -200t128 -76z" />
    <glyph glyph-name="uni2074" unicode="&#x2074;" horiz-adv-x="837" 
d="M778 1036v-194h-131v-146h-194v146h-396v207l285 503h223l-284 -516h172v174h194v-174h131z" />
    <glyph glyph-name="uni2075" unicode="&#x2075;" horiz-adv-x="847" 
d="M426 678q-153 0 -257.5 72t-111.5 188h211q3 -40 46 -66t106 -26q78 0 126 39.5t48 105.5q0 64 -45.5 105t-112.5 41q-53 0 -94.5 -27t-58.5 -72h-211l131 514h514v-176h-375l-39 -153q68 65 186 65q133 0 216 -83t83 -214q0 -143 -98 -228t-264 -85z" />
    <glyph glyph-name="uni2076" unicode="&#x2076;" horiz-adv-x="819" 
d="M418 678q-173 0 -271 110.5t-98 305.5q0 210 106 343.5t277 133.5q123 0 201 -65t96 -175h-201q-11 41 -41.5 61.5t-68.5 20.5q-74 0 -119 -70t-45 -188q28 54 91 86.5t142 32.5q126 0 203.5 -78.5t77.5 -204.5q0 -140 -97 -226.5t-253 -86.5zM410 844q62 0 99.5 38
t37.5 101q0 61 -37.5 99t-99.5 38t-100 -38t-38 -99q0 -63 38 -101t100 -38z" />
    <glyph glyph-name="uni2077" unicode="&#x2077;" horiz-adv-x="731" 
d="M113 696l342 662h-398v194h617v-194l-338 -662h-223z" />
    <glyph glyph-name="uni2078" unicode="&#x2078;" horiz-adv-x="858" 
d="M430 678q-101 0 -176.5 23t-116 62.5t-59.5 83.5t-19 93q0 85 49 143.5t117 71.5q-53 16 -89 64.5t-36 117.5q0 46 17.5 85.5t54.5 74t103.5 54.5t154.5 20q170 0 250 -67.5t80 -164.5q0 -68 -37 -118t-88 -66q65 -13 114.5 -71.5t49.5 -143.5q0 -50 -18.5 -93.5
t-58.5 -83t-115 -62.5t-177 -23zM428 1233q58 0 92.5 26t34.5 66q0 41 -34.5 68.5t-92.5 27.5q-57 0 -91 -27.5t-34 -68.5q0 -39 34 -65.5t91 -26.5zM428 844q75 0 115.5 30.5t40.5 77.5q0 45 -38.5 77t-117.5 32q-77 0 -115.5 -31.5t-38.5 -77.5q0 -47 40.5 -77.5
t113.5 -30.5z" />
    <glyph glyph-name="uni2079" unicode="&#x2079;" horiz-adv-x="821" 
d="M397 678q-148 0 -238.5 65.5t-99.5 163.5h209q9 -34 45.5 -55t83.5 -21q56 0 94.5 35t53 79t14.5 91v23q-26 -40 -80 -62t-123 -22q-143 0 -218 83.5t-75 203.5q0 58 18.5 110.5t57 98.5t106.5 73t158 27q179 0 269 -110t90 -318q0 -135 -37.5 -237.5t-121 -165
t-206.5 -62.5zM406 1128q64 0 103.5 37.5t39.5 96.5q0 64 -39.5 103.5t-103.5 39.5q-65 0 -104.5 -39.5t-39.5 -103.5q0 -59 40 -96.5t104 -37.5z" />
    <glyph glyph-name="Euro" unicode="&#x20ac;" horiz-adv-x="1630" 
d="M1253 -33q-311 0 -508.5 126t-271.5 356h-358l47 172h272q-6 58 -6 118v49h-235l49 175h209q60 259 262 403.5t540 144.5q163 0 277 -26v-248q-126 20 -252 20q-210 0 -337 -78t-175 -216h491l-45 -175h-479q-2 -16 -2 -51q0 -51 10 -116h443l-49 -172h-340
q128 -228 481 -228q122 0 254 21v-248q-119 -27 -277 -27z" />
    <glyph glyph-name="trademark" unicode="&#x2122;" horiz-adv-x="1054" 
d="M420 1556v-98h-131v-291h-92v291h-129v98h352zM821 1556h105v-389h-95v213l-90 -213h-82l-92 213v-213h-92v389h105l118 -276z" />
    <glyph glyph-name="oneeighth" unicode="&#x215b;" horiz-adv-x="1900" 
d="M209 -33l944 1620h229l-944 -1620h-229zM201 700v660h-170v196h366v-856h-196zM1407 -18q-109 0 -190 23t-125 62t-65 83.5t-21 93.5q0 86 52 144t128 71q-59 16 -97 64t-38 118q0 97 87 165t269 68q181 0 267.5 -67t86.5 -164q0 -70 -38 -119t-97 -65
q75 -13 127.5 -70.5t52.5 -144.5q0 -49 -20.5 -93t-64.5 -83.5t-124.5 -62.5t-189.5 -23zM1405 537q72 0 111.5 26t39.5 66q0 42 -39.5 69t-111.5 27t-112 -27t-40 -69q0 -40 40 -66t112 -26zM1405 147q92 0 139 31t47 78q0 45 -45.5 77t-140.5 32q-94 0 -140 -31.5
t-46 -77.5q0 -47 47 -78t139 -31z" />
    <glyph glyph-name="threeeighths" unicode="&#x215c;" horiz-adv-x="2091" 
d="M444 -33l945 1620h227l-944 -1620h-228zM438 682q-172 0 -277.5 76t-111.5 184h213q3 -34 32.5 -55t64.5 -28t75 -7q87 0 123.5 34.5t36.5 86.5q0 125 -213 125h-119v143l256 137h-420v178h666v-208l-246 -119l2 -2q112 0 191.5 -67t79.5 -185q0 -54 -17.5 -102.5
t-56 -93t-110.5 -71t-169 -26.5zM1640 -18q-108 0 -188.5 23t-124.5 62t-65 83.5t-21 93.5q0 86 51.5 144t128.5 71q-60 15 -97.5 63.5t-37.5 118.5q0 97 86.5 165t267.5 68q182 0 269.5 -67t87.5 -164q0 -70 -38.5 -119.5t-98.5 -64.5q76 -13 129 -70.5t53 -144.5
q0 -39 -12 -74.5t-42 -70.5t-74.5 -60.5t-115 -41t-158.5 -15.5zM1638 537q72 0 112 26t40 66q0 42 -40 69t-112 27q-71 0 -110 -27t-39 -69q0 -40 39 -66t110 -26zM1638 147q93 0 140 30.5t47 78.5q0 45 -45.5 77t-141.5 32q-93 0 -138.5 -31.5t-45.5 -77.5q0 -47 46.5 -78
t137.5 -31z" />
    <glyph glyph-name="fiveeighths" unicode="&#x215d;" horiz-adv-x="2187" 
d="M541 -33l944 1620h227l-944 -1620h-227zM444 682q-164 0 -275 72t-120 188h211q3 -40 53.5 -66t124.5 -26q94 0 150.5 39.5t56.5 105.5q0 64 -54.5 105t-133.5 41q-64 0 -111.5 -27t-66.5 -72h-213l141 514h553v-176h-412l-47 -153q75 65 207 65q149 0 241.5 -83
t92.5 -214q0 -143 -108.5 -228t-289.5 -85zM1737 -18q-108 0 -188.5 23t-125 62t-65.5 83.5t-21 93.5q0 86 52 144t129 71q-60 16 -98 64t-38 118q0 97 87 165t268 68q182 0 269 -67t87 -164q0 -70 -38 -119t-97 -65q75 -13 127.5 -70.5t52.5 -144.5q0 -49 -20.5 -93
t-64.5 -83.5t-125.5 -62.5t-190.5 -23zM1735 537q74 0 113.5 26t39.5 66q0 42 -40 69t-113 27q-71 0 -110.5 -27t-39.5 -69q0 -40 39.5 -66t110.5 -26zM1735 147q93 0 139.5 30.5t46.5 78.5q0 45 -45 77t-141 32q-93 0 -139 -31.5t-46 -77.5q0 -47 47 -78t138 -31z" />
    <glyph glyph-name="seveneighths" unicode="&#x215e;" horiz-adv-x="1884" 
d="M238 -33l944 1620h229l-944 -1620h-229zM104 700l367 660h-422v196h645v-208l-362 -648h-228zM1436 -18q-109 0 -190 23t-125.5 62t-65.5 83.5t-21 93.5q0 86 52 144t128 71q-59 16 -97 64t-38 118q0 97 87.5 165t269.5 68q181 0 267.5 -67t86.5 -164q0 -70 -38 -119
t-97 -65q75 -13 127.5 -70.5t52.5 -144.5q0 -49 -20.5 -93t-64.5 -83.5t-124.5 -62.5t-189.5 -23zM1434 537q72 0 111.5 26t39.5 66q0 42 -39.5 69t-111.5 27q-71 0 -111.5 -27.5t-40.5 -68.5q0 -40 40.5 -66t111.5 -26zM1434 147q92 0 139 31t47 78q0 45 -45.5 77
t-140.5 32q-94 0 -140.5 -31.5t-46.5 -77.5q0 -47 47.5 -78t139.5 -31z" />
    <glyph glyph-name="arrowleft" unicode="&#x2190;" horiz-adv-x="1884" 
d="M1720 721v-236h-1138l178 -299l-596 416l596 418l-178 -299h1138z" />
    <glyph glyph-name="arrowup" unicode="&#x2191;" horiz-adv-x="1161" 
d="M461 0v1139l-297 -178l416 595l417 -595l-299 178v-1139h-237z" />
    <glyph glyph-name="arrowright" unicode="&#x2192;" horiz-adv-x="1884" 
d="M164 721h1139l-179 299l596 -418l-596 -416l179 299h-1139v236z" />
    <glyph glyph-name="arrowdown" unicode="&#x2193;" horiz-adv-x="1161" 
d="M461 1556h237v-1138l299 178l-417 -596l-416 596l297 -178v1138z" />
    <glyph glyph-name="arrowboth" unicode="&#x2194;" horiz-adv-x="2568" 
d="M2404 602l-596 -416l179 299h-1405l178 -299l-596 416l596 418l-178 -299h1405l-179 299z" />
    <glyph glyph-name="arrowupdn" unicode="&#x2195;" horiz-adv-x="1159" 
d="M580 0l-416 596l297 -158v680l-297 -157l416 595l415 -595l-297 157v-680l297 158z" />
    <glyph glyph-name="uni2196" unicode="&#x2196;" horiz-adv-x="2019" 
d="M1690 0l-1305 1176l-53 -316l-168 696l756 -143l-361 -74l1296 -1163z" />
    <glyph glyph-name="uni2197" unicode="&#x2197;" horiz-adv-x="2019" 
d="M330 0l-166 176l1294 1163l-360 74l757 143l-167 -696l-56 316z" />
    <glyph glyph-name="uni2198" unicode="&#x2198;" horiz-adv-x="2019" 
d="M330 1556l1302 -1175l56 315l167 -696l-757 143l360 74l-1294 1163z" />
    <glyph glyph-name="uni2199" unicode="&#x2199;" horiz-adv-x="2019" 
d="M1690 1556l165 -176l-1296 -1163l361 -74l-756 -143l168 696l53 -315z" />
    <glyph glyph-name="partialdiff" unicode="&#x2202;" horiz-adv-x="1468" 
d="M696 -33q-251 0 -398.5 136.5t-147.5 365.5q0 159 75 283t204.5 191t289.5 67q279 0 397 -199q10 264 -91 398t-306 134q-70 0 -129.5 -14.5t-111 -44.5t-85 -83.5t-43.5 -125.5h-235q32 222 199 351.5t417 129.5q294 0 458.5 -201.5t164.5 -576.5q0 -198 -48 -353.5
t-136 -255t-208 -151t-266 -51.5zM713 195q156 0 246 95t90 234q0 121 -75 191.5t-214 70.5q-148 0 -241 -87t-93 -232q0 -126 76 -199t211 -73z" />
    <glyph glyph-name="emptyset" unicode="&#x2205;" horiz-adv-x="1605" 
d="M1214 1024q112 -78 174 -198t62 -269q0 -265 -178.5 -427.5t-468.5 -162.5q-140 0 -246 33l-166 -254h-219l217 344q-112 78 -173.5 198t-61.5 269q0 265 178.5 427.5t470.5 162.5q141 0 244 -33l165 254h220zM356 557q0 -177 140 -285l444 658q-66 16 -137 16
q-201 0 -324 -107t-123 -282zM803 168q201 0 323.5 107t122.5 282q0 178 -141 285l-444 -658q66 -16 139 -16z" />
    <glyph glyph-name="product" unicode="&#x220f;" horiz-adv-x="1742" 
d="M193 -238v1794h1359v-1794h-288v1502h-783v-1502h-288z" />
    <glyph glyph-name="summation" unicode="&#x2211;" horiz-adv-x="1742" 
d="M1530 1264h-1049l486 -564l-486 -645h1071v-293h-1359v314l452 624l-452 543v313h1337v-292z" />
    <glyph glyph-name="minus" unicode="&#x2212;" horiz-adv-x="1234" 
d="M1135 436h-1037v209h1037v-209z" />
    <glyph glyph-name="radical" unicode="&#x221a;" horiz-adv-x="1853" 
d="M1749 1556v-258h-506l-592 -1531h-299l-332 786h299l140 -369l43 -112h4l39 112l506 1372h698z" />
    <glyph glyph-name="infinity" unicode="&#x221e;" horiz-adv-x="1955" 
d="M512 172q-204 0 -335.5 115t-131.5 301q0 184 131 297.5t336 113.5q146 0 269 -61t196 -166q75 106 197 166.5t270 60.5q205 0 336 -113.5t131 -297.5q0 -186 -131.5 -301t-335.5 -115q-146 0 -269 61.5t-198 167.5q-75 -106 -197.5 -167.5t-267.5 -61.5zM1425 373
q112 0 187.5 59t75.5 154t-77 154t-190 59q-105 0 -186.5 -56t-126.5 -157q42 -98 125.5 -155.5t191.5 -57.5zM535 375q112 0 198.5 57t130.5 154q-45 99 -130.5 155t-194.5 56q-116 0 -192.5 -58t-76.5 -153q0 -94 75 -152.5t190 -58.5z" />
    <glyph glyph-name="integral" unicode="&#x222b;" horiz-adv-x="1372" 
d="M1124 1589q50 0 98.5 -4.5t55.5 -7.5l-41 -225q-1 0 -9.5 1.5t-25 3t-35.5 1.5q-182 0 -206 -137l-240 -1217q-13 -68 -34.5 -123.5t-59 -106t-88 -85t-124.5 -54.5t-165 -20q-51 0 -100 4.5t-56 7.5l43 228q7 -7 68 -7q182 0 209 138l237 1214q14 68 35.5 123.5t59 106
t88 85t124.5 54.5t166 20z" />
    <glyph glyph-name="approxequal" unicode="&#x2248;" horiz-adv-x="1574" 
d="M1026 612q-63 0 -119 19t-95.5 46t-75.5 54.5t-74 46.5t-76 19q-54 0 -93.5 -35.5t-39.5 -112.5v-26h-203v30q0 132 86.5 227t236.5 95q65 0 120.5 -17.5t94.5 -43t74 -51t73 -43t77 -17.5q110 0 110 129v24h203v-20q0 -61 -17 -116.5t-51 -103t-93.5 -76t-137.5 -28.5z
M1026 184q-63 0 -119 19t-95.5 46t-75.5 54.5t-74 46.5t-76 19q-54 0 -93.5 -36t-39.5 -112v-26h-203v30q0 130 86.5 226t236.5 96q65 0 120.5 -18t94.5 -43.5t74 -51t73 -43.5t77 -18q110 0 110 129v24h203v-20q0 -61 -17 -116t-51 -102.5t-93.5 -75.5t-137.5 -28z" />
    <glyph glyph-name="notequal" unicode="&#x2260;" horiz-adv-x="1406" 
d="M1223 682h-328l-90 -240h418v-209h-486l-82 -233h-274l82 233h-277v209h346l91 240h-437v209h500l68 184h274l-70 -184h265v-209z" />
    <glyph glyph-name="lessequal" unicode="&#x2264;" horiz-adv-x="1306" 
d="M911 211l-749 340v219l946 477v-227l-743 -358l788 -359v-303h-1036v211h794z" />
    <glyph glyph-name="greaterequal" unicode="&#x2265;" horiz-adv-x="1308" 
d="M395 211h793v-211h-1036v303l788 359l-743 358v227l946 -477v-219z" />
    <glyph glyph-name="lozenge" unicode="&#x25ca;" horiz-adv-x="1128" 
d="M426 -33l-406 670l406 670h281l401 -670l-401 -670h-281zM567 109l312 528l-312 530l-313 -530z" />
    <glyph glyph-name="I.ss01" horiz-adv-x="1673" 
d="M164 0v303h520v950h-520v303h1343l2 -303h-520v-950h520l-2 -303h-1343z" />
    <glyph glyph-name="Iacute.ss01" horiz-adv-x="1574" 
d="M1083 2038l-338 -359h-256l222 359h372zM164 0v303h471v950h-471v303h1245l2 -303h-471v-950h471l-2 -303h-1245z" />
    <glyph glyph-name="Icircumflex.ss01" horiz-adv-x="1673" 
d="M1268 1679h-234l-196 215l-201 -215h-236l267 359h333zM164 0v303h520v950h-520v303h1343l2 -303h-520v-950h520l-2 -303h-1343z" />
    <glyph glyph-name="Idieresis.ss01" horiz-adv-x="1673" 
d="M641 1769q-59 0 -102 42.5t-43 103.5q0 58 43 98.5t102 40.5q64 0 105.5 -40t41.5 -99q0 -61 -43.5 -103.5t-103.5 -42.5zM1024 1769q-62 0 -106 42.5t-44 103.5q0 58 44 98.5t106 40.5q61 0 103 -40t42 -99q0 -61 -43.5 -103.5t-101.5 -42.5zM164 0v303h520v950h-520
v303h1343l2 -303h-520v-950h520l-2 -303h-1343z" />
    <glyph glyph-name="Idotaccent.ss01" horiz-adv-x="1673" 
d="M791 1716q-76 0 -130.5 52t-54.5 128q0 72 55 123.5t130 51.5q77 0 132.5 -51.5t55.5 -123.5q0 -76 -55.5 -128t-132.5 -52zM164 0v303h520v950h-520v303h1343l2 -303h-520v-950h520l-2 -303h-1343z" />
    <glyph glyph-name="Igrave.ss01" horiz-adv-x="1673" 
d="M477 2038h379l244 -359h-250zM164 0v303h520v950h-520v303h1343l2 -303h-520v-950h520l-2 -303h-1343z" />
    <glyph glyph-name="Imacron.ss01" horiz-adv-x="1673" 
d="M1204 1735h-780v221h780v-221zM164 0v303h520v950h-520v303h1343l2 -303h-520v-950h520l-2 -303h-1343z" />
    <glyph glyph-name="Iogonek.ss01" horiz-adv-x="1673" 
d="M989 1253v-950h520l-2 -303h-637q-143 -110 -143 -195q0 -81 147 -81q39 0 68 4v-146q-44 -6 -104 -6q-143 0 -210 53.5t-67 134.5q0 119 180 236h-577v303h520v950h-520v303h1343l2 -303h-520z" />
    <glyph glyph-name="J.ss01" horiz-adv-x="1437" 
d="M670 -33q-302 0 -462 137.5t-177 403.5h319q18 -138 90 -203t219 -65q44 0 80.5 5t65.5 17.5t51.5 27t39 39.5t28.5 48t20 61t12.5 69t7 81t3 89.5t0.5 100.5v475h-809v303h1116v-882q0 -138 -15.5 -242t-56.5 -194.5t-108 -148t-173.5 -90t-250.5 -32.5z" />
    <glyph glyph-name="K.ss01" horiz-adv-x="1605" 
d="M1036 813l518 -813h-364l-340 498l-340 -498h-317v1556h307v-1062l653 1062h363z" />
    <glyph glyph-name="uni0136.ss01" horiz-adv-x="1605" 
d="M1036 813l518 -813h-364l-340 498l-340 -498h-317v1556h307v-1062l653 1062h363zM559 -492l76 349h283l-142 -349h-217z" />
    <glyph glyph-name="M.ss01" horiz-adv-x="2060" 
d="M193 0v1556h342l497 -954l494 954h342v-1556h-305v1083l-381 -741h-303l-381 741v-1083h-305z" />
    <glyph glyph-name="Q.ss01" horiz-adv-x="1931" 
d="M969 -33q-30 0 -92 4l-91 -135h723v-237h-1022v237l129 191q-237 88 -369 288.5t-132 462.5q0 172 59 320.5t167 257.5t270 171t358 62q195 0 356 -62t268.5 -171t166.5 -257.5t59 -320.5t-59 -320.5t-166.5 -257.5t-268.5 -171t-356 -62zM442 778q0 -107 35.5 -203.5
t101 -171.5t165.5 -119t221 -44q122 0 222.5 44t165.5 119t100.5 171.5t35.5 203.5t-35.5 204t-100.5 171.5t-165.5 119t-222.5 44.5q-121 0 -221.5 -44.5t-165.5 -119t-100.5 -171.5t-35.5 -204z" />
    <glyph glyph-name="R.ss01" horiz-adv-x="1554" 
d="M193 0v1556h630q275 0 432.5 -118.5t157.5 -343.5q0 -171 -113 -286t-325 -144l528 -664h-356l-522 635h-127v-635h-305zM498 897h305q122 0 206.5 48t84.5 145q0 98 -81.5 149t-230.5 51h-284v-393z" />
    <glyph glyph-name="Racute.ss01" horiz-adv-x="1533" 
d="M1106 2038l-371 -359h-252l244 359h379zM193 0v1556h630q275 0 432.5 -118.5t157.5 -343.5q0 -171 -113 -286t-325 -144l528 -664h-356l-522 635h-127v-635h-305zM498 897h305q122 0 206.5 48t84.5 145q0 98 -81.5 149t-230.5 51h-284v-393z" />
    <glyph glyph-name="Rcaron.ss01" horiz-adv-x="1533" 
d="M1243 2038l-266 -359h-334l-266 359h235l201 -215l195 215h235zM193 0v1556h630q275 0 432.5 -118.5t157.5 -343.5q0 -171 -113 -286t-325 -144l528 -664h-356l-522 635h-127v-635h-305zM498 897h305q122 0 206.5 48t84.5 145q0 98 -81.5 149t-230.5 51h-284v-393z" />
    <glyph glyph-name="uni0156.ss01" horiz-adv-x="1533" 
d="M193 0v1556h630q275 0 432.5 -118.5t157.5 -343.5q0 -171 -113 -286t-325 -144l528 -664h-356l-522 635h-127v-635h-305zM498 897h305q122 0 206.5 48t84.5 145q0 98 -81.5 149t-230.5 51h-284v-393zM610 -492l76 349h285l-144 -349h-217z" />
    <glyph glyph-name="U.ss01" horiz-adv-x="1701" 
d="M840 -33q-154 0 -268 32t-186 88t-115.5 144t-60.5 188t-17 232v905h307v-796q0 -76 2.5 -127.5t11 -111t24 -97.5t43.5 -76.5t67.5 -59.5t97 -34.5t131.5 -13.5q65 0 117 9t90 29t66 44t46 62t29.5 74t17 90t7 99.5t1.5 112.5v796h310v-1556h-310v123
q-59 -85 -156 -120.5t-255 -35.5z" />
    <glyph glyph-name="Uacute.ss01" horiz-adv-x="1701" 
d="M1155 2038l-371 -359h-252l244 359h379zM840 -33q-154 0 -268 32t-186 88t-115.5 144t-60.5 188t-17 232v905h307v-796q0 -76 2.5 -127.5t11 -111t24 -97.5t43.5 -76.5t67.5 -59.5t97 -34.5t131.5 -13.5q65 0 117 9t90 29t66 44t46 62t29.5 74t17 90t7 99.5t1.5 112.5
v796h310v-1556h-310v123q-59 -85 -156 -120.5t-255 -35.5z" />
    <glyph glyph-name="Ucircumflex.ss01" horiz-adv-x="1581" 
d="M1292 1679h-235l-197 215l-198 -215h-236l266 359h334zM840 -33q-155 0 -269 32t-186 88t-115.5 144.5t-60 188t-16.5 231.5v905h307v-796q0 -76 2.5 -127.5t11 -111t24 -97.5t43.5 -76.5t67.5 -59.5t97 -34.5t131.5 -13.5q65 0 117 9t90 29t66 44t46 62t29.5 74t17 90
t7 99.5t1.5 112.5v796h310v-1556h-310v123q-59 -85 -156 -120.5t-255 -35.5z" />
    <glyph glyph-name="Udieresis.ss01" horiz-adv-x="1701" 
d="M528 1798v240h246v-240h-246zM934 1798v240h244v-240h-244zM840 -33q-154 0 -268 32t-186 88t-115.5 144t-60.5 188t-17 232v905h307v-796q0 -76 2.5 -127.5t11 -111t24 -97.5t43.5 -76.5t67.5 -59.5t97 -34.5t131.5 -13.5q65 0 117 9t90 29t66 44t46 62t29.5 74t17 90
t7 99.5t1.5 112.5v796h310v-1556h-310v123q-59 -85 -156 -120.5t-255 -35.5z" />
    <glyph glyph-name="Ugrave.ss01" horiz-adv-x="1701" 
d="M530 2038h379l244 -359h-250zM840 -33q-154 0 -268 32t-186 88t-115.5 144t-60.5 188t-17 232v905h307v-796q0 -76 2.5 -127.5t11 -111t24 -97.5t43.5 -76.5t67.5 -59.5t97 -34.5t131.5 -13.5q65 0 117 9t90 29t66 44t46 62t29.5 74t17 90t7 99.5t1.5 112.5v796h310
v-1556h-310v123q-59 -85 -156 -120.5t-255 -35.5z" />
    <glyph glyph-name="Uhungarumlaut.ss01" horiz-adv-x="1701" 
d="M887 2038l-371 -359h-252l244 359h379zM1448 2038l-371 -359h-252l244 359h379zM840 -33q-154 0 -268 32t-186 88t-115.5 144t-60.5 188t-17 232v905h307v-796q0 -76 2.5 -127.5t11 -111t24 -97.5t43.5 -76.5t67.5 -59.5t97 -34.5t131.5 -13.5q65 0 117 9t90 29t66 44
t46 62t29.5 74t17 90t7 99.5t1.5 112.5v796h310v-1556h-310v123q-59 -85 -156 -120.5t-255 -35.5z" />
    <glyph glyph-name="Umacron.ss01" horiz-adv-x="1701" 
d="M1255 1735h-780v221h780v-221zM840 -33q-154 0 -268 32t-186 88t-115.5 144t-60.5 188t-17 232v905h307v-796q0 -76 2.5 -127.5t11 -111t24 -97.5t43.5 -76.5t67.5 -59.5t97 -34.5t131.5 -13.5q65 0 117 9t90 29t66 44t46 62t29.5 74t17 90t7 99.5t1.5 112.5v796h310
v-1556h-310v123q-59 -85 -156 -120.5t-255 -35.5z" />
    <glyph glyph-name="Uogonek.ss01" horiz-adv-x="1603" 
d="M1155 1556h307v-1556h-307v123q-79 -130 -258 -150q-100 -95 -100 -168q0 -81 135 -81q34 0 61 4v-146q-41 -6 -96 -6q-134 0 -196 53.5t-62 134.5q0 102 123 203q-130 3 -228 36.5t-162.5 90.5t-105 143t-57 186.5t-16.5 227.5v905h305v-796q0 -67 1.5 -112.5t6.5 -99.5
t15 -90t26 -74t40.5 -62t58 -44t79 -29t102.5 -9t102.5 9t79 29t58 44t40.5 62t25.5 74t14.5 90t6.5 99.5t1.5 112.5v796z" />
    <glyph glyph-name="Uring.ss01" horiz-adv-x="1701" 
d="M852 1679q-95 0 -153 53.5t-58 141.5q0 86 58 138t153 52q94 0 152.5 -52t58.5 -138q0 -87 -58.5 -141t-152.5 -54zM852 1802q34 0 56 19.5t22 50.5q0 30 -22 48.5t-56 18.5q-37 0 -58.5 -18t-21.5 -49t22 -50.5t58 -19.5zM840 -33q-154 0 -268 32t-186 88t-115.5 144
t-60.5 188t-17 232v905h307v-796q0 -76 2.5 -127.5t11 -111t24 -97.5t43.5 -76.5t67.5 -59.5t97 -34.5t131.5 -13.5q65 0 117 9t90 29t66 44t46 62t29.5 74t17 90t7 99.5t1.5 112.5v796h310v-1556h-310v123q-59 -85 -156 -120.5t-255 -35.5z" />
    <glyph glyph-name="X.ss01" horiz-adv-x="1720" 
d="M51 0l580 784l-541 772h363l407 -600l412 600h358l-538 -772l577 -784h-360l-449 621l-446 -621h-363z" />
    <glyph glyph-name="i.loclTRK" horiz-adv-x="634" 
d="M317 1235q-76 0 -130 52t-54 128q0 72 54.5 123t129.5 51q77 0 133 -51t56 -123q0 -76 -56 -128t-133 -52zM166 0v1075h303v-1075h-303z" />
    <glyph glyph-name="a.ss01" horiz-adv-x="1341" 
d="M586 -33q-159 0 -279 74.5t-183 204.5t-63 297q0 163 61 290t181.5 201t284.5 74q233 0 354 -170v137h303v-1075h-303v133q-54 -75 -144 -120.5t-212 -45.5zM651 209q130 0 210.5 78t80.5 215v86q0 128 -81.5 203t-211.5 75q-140 0 -219.5 -84.5t-79.5 -240.5
q0 -159 80.5 -245.5t220.5 -86.5z" />
    <glyph glyph-name="aacute.ss01" horiz-adv-x="1341" 
d="M950 1554l-370 -358h-252l243 358h379zM586 -33q-159 0 -279 74.5t-183 204.5t-63 297q0 163 61 290t181.5 201t284.5 74q233 0 354 -170v137h303v-1075h-303v133q-54 -75 -144 -120.5t-212 -45.5zM651 209q130 0 210.5 78t80.5 215v86q0 128 -81.5 203t-211.5 75
q-140 0 -219.5 -84.5t-79.5 -240.5q0 -159 80.5 -245.5t220.5 -86.5z" />
    <glyph glyph-name="abreve.ss01" horiz-adv-x="1341" 
d="M870 1554h228q0 -161 -120.5 -259.5t-318.5 -98.5q-197 0 -317.5 98.5t-120.5 259.5h228q0 -81 58 -130.5t152 -49.5q95 0 153 49t58 131zM586 -33q-159 0 -279 74.5t-183 204.5t-63 297q0 163 61 290t181.5 201t284.5 74q233 0 354 -170v137h303v-1075h-303v133
q-54 -75 -144 -120.5t-212 -45.5zM651 209q130 0 210.5 78t80.5 215v86q0 128 -81.5 203t-211.5 75q-140 0 -219.5 -84.5t-79.5 -240.5q0 -159 80.5 -245.5t220.5 -86.5z" />
    <glyph glyph-name="acircumflex.ss01" horiz-adv-x="1341" 
d="M1087 1196h-235l-197 215l-200 -215h-234l266 358h334zM586 -33q-159 0 -279 74.5t-183 204.5t-63 297q0 163 61 290t181.5 201t284.5 74q233 0 354 -170v137h303v-1075h-303v133q-54 -75 -144 -120.5t-212 -45.5zM651 209q130 0 210.5 78t80.5 215v86q0 128 -81.5 203
t-211.5 75q-140 0 -219.5 -84.5t-79.5 -240.5q0 -159 80.5 -245.5t220.5 -86.5z" />
    <glyph glyph-name="adieresis.ss01" horiz-adv-x="1341" 
d="M469 1288q-58 0 -101.5 42.5t-43.5 103.5q0 58 43.5 98.5t101.5 40.5q64 0 106.5 -40t42.5 -99q0 -61 -44 -103.5t-105 -42.5zM852 1288q-60 0 -103.5 42.5t-43.5 103.5q0 58 43.5 98.5t103.5 40.5q61 0 103 -40t42 -99q0 -61 -43 -103.5t-102 -42.5zM586 -33
q-159 0 -279 74.5t-183 204.5t-63 297q0 163 61 290t181.5 201t284.5 74q233 0 354 -170v137h303v-1075h-303v133q-54 -75 -144 -120.5t-212 -45.5zM651 209q130 0 210.5 78t80.5 215v86q0 128 -81.5 203t-211.5 75q-140 0 -219.5 -84.5t-79.5 -240.5q0 -159 80.5 -245.5
t220.5 -86.5z" />
    <glyph glyph-name="agrave.ss01" horiz-adv-x="1341" 
d="M326 1554h379l243 -358h-250zM586 -33q-159 0 -279 74.5t-183 204.5t-63 297q0 163 61 290t181.5 201t284.5 74q233 0 354 -170v137h303v-1075h-303v133q-54 -75 -144 -120.5t-212 -45.5zM651 209q130 0 210.5 78t80.5 215v86q0 128 -81.5 203t-211.5 75
q-140 0 -219.5 -84.5t-79.5 -240.5q0 -159 80.5 -245.5t220.5 -86.5z" />
    <glyph glyph-name="amacron.ss01" horiz-adv-x="1341" 
d="M1049 1251h-781v222h781v-222zM586 -33q-159 0 -279 74.5t-183 204.5t-63 297q0 163 61 290t181.5 201t284.5 74q233 0 354 -170v137h303v-1075h-303v133q-54 -75 -144 -120.5t-212 -45.5zM651 209q130 0 210.5 78t80.5 215v86q0 128 -81.5 203t-211.5 75
q-140 0 -219.5 -84.5t-79.5 -240.5q0 -159 80.5 -245.5t220.5 -86.5z" />
    <glyph glyph-name="aogonek.ss01" horiz-adv-x="1341" 
d="M1063 0q-145 -110 -145 -197q0 -79 147 -79q39 0 68 4v-148q-43 -6 -105 -6q-143 0 -209.5 54.5t-66.5 135.5q0 33 14.5 66t33.5 57t48.5 49.5t48.5 39t45 30.5v127q-54 -75 -144 -120.5t-212 -45.5q-159 0 -279 74.5t-183 204.5t-63 297q0 163 61 290t181.5 201
t284.5 74q233 0 354 -170v137h303v-1075h-182zM651 209q130 0 210.5 78t80.5 215v86q0 128 -81.5 203t-211.5 75q-140 0 -219.5 -84.5t-79.5 -240.5q0 -159 80.5 -245.5t220.5 -86.5z" />
    <glyph glyph-name="aring.ss01" horiz-adv-x="1341" 
d="M645 1196q-94 0 -152.5 54t-58.5 141q0 86 58.5 138t152.5 52q95 0 153 -52t58 -138q0 -88 -58 -141.5t-153 -53.5zM645 1319q35 0 56.5 19.5t21.5 50.5t-21.5 49t-56.5 18q-36 0 -58 -18.5t-22 -48.5q0 -31 22.5 -50.5t57.5 -19.5zM586 -33q-159 0 -279 74.5t-183 204.5
t-63 297q0 163 61 290t181.5 201t284.5 74q233 0 354 -170v137h303v-1075h-303v133q-54 -75 -144 -120.5t-212 -45.5zM651 209q130 0 210.5 78t80.5 215v86q0 128 -81.5 203t-211.5 75q-140 0 -219.5 -84.5t-79.5 -240.5q0 -159 80.5 -245.5t220.5 -86.5z" />
    <glyph glyph-name="atilde.ss01" horiz-adv-x="1341" 
d="M504 1524q46 0 89 -17t69.5 -37.5t58 -37.5t57.5 -17q37 0 58.5 25.5t21.5 72.5h199q0 -134 -70.5 -210t-185.5 -76q-51 0 -95 17t-68.5 37t-53.5 37t-54 17q-34 0 -55.5 -26.5t-21.5 -71.5h-197q0 126 69 206.5t179 80.5zM586 -33q-159 0 -279 74.5t-183 204.5t-63 297
q0 163 61 290t181.5 201t284.5 74q233 0 354 -170v137h303v-1075h-303v133q-54 -75 -144 -120.5t-212 -45.5zM651 209q130 0 210.5 78t80.5 215v86q0 128 -81.5 203t-211.5 75q-140 0 -219.5 -84.5t-79.5 -240.5q0 -159 80.5 -245.5t220.5 -86.5z" />
    <glyph glyph-name="d.ss01" horiz-adv-x="1394" 
d="M569 -33q-235 0 -379.5 159.5t-144.5 418.5q0 254 145 408.5t383 154.5q102 0 200 -44t153 -116v608h303v-1556h-213l-90 123q-47 -70 -146.5 -113t-210.5 -43zM635 209q132 0 211.5 80t79.5 213v86q0 126 -80.5 202t-212.5 76q-131 0 -210 -88.5t-79 -236.5
q0 -151 79.5 -241.5t211.5 -90.5z" />
    <glyph glyph-name="i.ss01" horiz-adv-x="557" 
d="M279 1219q-74 0 -128.5 52t-54.5 128q0 72 54.5 123t128.5 51q76 0 129 -51t53 -123q0 -76 -54 -128t-128 -52zM129 0v1075h303v-1075h-303z" />
    <glyph glyph-name="idieresis.ss01" horiz-adv-x="634" 
d="M123 1288q-59 0 -102.5 42.5t-43.5 103.5q0 58 43.5 98.5t102.5 40.5q64 0 106.5 -40t42.5 -99q0 -61 -44 -103.5t-105 -42.5zM506 1288q-61 0 -105.5 42.5t-44.5 103.5q0 58 44.5 98.5t105.5 40.5t103 -40t42 -99q0 -61 -43.5 -103.5t-101.5 -42.5zM166 0v1075h303
v-1075h-303z" />
    <glyph glyph-name="j.ss01" horiz-adv-x="595" 
d="M315 1219q-75 0 -129.5 52.5t-54.5 127.5q0 71 55 122.5t129 51.5q75 0 130 -51t55 -123q0 -76 -54.5 -128t-130.5 -52zM96 -492q-53 0 -99 3t-65 7l-20 3v225q25 -6 72 -6q180 0 180 170v1165h303v-1218q0 -161 -93 -255t-278 -94z" />
    <glyph glyph-name="k.ss01" horiz-adv-x="1234" 
d="M1214 0h-315l-235 352l-265 -352h-303v1556h303v-1101l455 620h326l-355 -477z" />
    <glyph glyph-name="uni0137.ss01" horiz-adv-x="1234" 
d="M1214 0h-315l-235 352l-265 -352h-303v1556h303v-1101l455 620h326l-355 -477zM504 -492l76 349h282l-141 -349h-217z" />
    <glyph glyph-name="l.ss01" horiz-adv-x="493" 
d="M96 0v1556h236l67 -483v-1073h-303z" />
    <glyph glyph-name="lacute.ss01" horiz-adv-x="604" 
d="M795 1995l-371 -359h-252l244 359h379zM102 0v1556h236l68 -483v-1073h-304z" />
    <glyph glyph-name="lcaron.ss01" horiz-adv-x="598" 
d="M102 0v1556h236l68 -483v-1073h-304zM975 1556l-215 -358h-236l99 358h352z" />
    <glyph glyph-name="uni013C.ss01" horiz-adv-x="598" 
d="M102 0v1556h236l68 -483v-1073h-304zM98 -492l76 349h283l-142 -349h-217z" />
    <glyph glyph-name="lslash.ss01" horiz-adv-x="493" 
d="M625 1163v-323l-226 -142v-698h-303v508l-209 -131v323l209 131v725h236l67 -483v-51z" />
    <glyph glyph-name="n.ss01" horiz-adv-x="1345" 
d="M96 0v1075h1129v-1075h-303v776h-523v-776h-303z" />
    <glyph glyph-name="nacute.ss01" horiz-adv-x="1345" 
d="M1008 1556l-371 -358h-252l244 358h379zM96 0v1075h1129v-1075h-303v776h-523v-776h-303z" />
    <glyph glyph-name="ncaron.ss01" horiz-adv-x="1345" 
d="M1145 1556l-266 -358h-334l-266 358h235l199 -215l196 215h236zM96 0v1075h1129v-1075h-303v776h-523v-776h-303z" />
    <glyph glyph-name="uni0146.ss01" horiz-adv-x="1345" 
d="M96 0v1075h1129v-1075h-303v776h-523v-776h-303zM512 -492l76 349h282l-141 -349h-217z" />
    <glyph glyph-name="ntilde.ss01" horiz-adv-x="1345" 
d="M563 1526q46 0 89 -17t70 -37.5t58.5 -37.5t57.5 -17q36 0 58 26.5t22 72.5h196q0 -134 -69.5 -210.5t-184.5 -76.5q-51 0 -94.5 17t-68.5 37t-54.5 37t-54.5 17q-33 0 -54.5 -26.5t-21.5 -71.5h-197q0 126 69 206.5t179 80.5zM96 0v1075h1129v-1075h-303v776h-523v-776
h-303z" />
    <glyph glyph-name="q.ss01" horiz-adv-x="1394" 
d="M926 -492v615q-47 -70 -146.5 -113t-210.5 -43q-235 0 -379.5 158.5t-144.5 417.5q0 255 144.5 410t381.5 155q103 0 201.5 -44t153.5 -116l90 127h213v-1567h-303zM635 209q132 0 211.5 80t79.5 213v86q0 126 -80.5 202t-212.5 76q-131 0 -210 -88.5t-79 -236.5
q0 -151 79.5 -241.5t211.5 -90.5z" />
    <glyph glyph-name="r.ss01" horiz-adv-x="860" 
d="M96 0v1075h721v-299h-418v-776h-303z" />
    <glyph glyph-name="racute.ss01" horiz-adv-x="872" 
d="M823 1556l-370 -358h-252l243 358h379zM98 0v1075h721v-299h-418v-776h-303z" />
    <glyph glyph-name="rcaron.ss01" horiz-adv-x="870" 
d="M961 1556l-267 -358h-334l-266 358h236l198 -215l197 215h236zM98 0v1075h721v-299h-418v-776h-303z" />
    <glyph glyph-name="uni0157.ss01" horiz-adv-x="870" 
d="M131 0v1075h721v-299h-418v-776h-303zM115 -492l75 349h283l-141 -349h-217z" />
    <glyph glyph-name="germandbls.ss01" horiz-adv-x="1730" 
d="M1081 -33q-251 0 -401.5 126t-153.5 313h297q12 -77 79 -125t169 -48q92 0 156 43.5t91.5 108t27.5 141.5q0 128 -69 202.5t-196 74.5q-80 0 -134.5 -32t-100.5 -95l-43 -64l-266 72l342 569h-480v-1253h-303v1556h1053v-303l-211 -323h12q55 49 108.5 72.5t127.5 23.5
q144 0 255 -70t168.5 -185t57.5 -253q0 -110 -37 -208t-107.5 -175.5t-184.5 -122.5t-257 -45z" />
    <glyph glyph-name="t.ss01" horiz-adv-x="821" 
d="M197 0v809h-146v266h146v277h303v-277h243v-266h-243v-809h-303z" />
    <glyph glyph-name="tbar.ss01" horiz-adv-x="866" 
d="M825 809h-241v-209h192v-229h-192v-371h-303v371h-148v229h148v209h-146v266h146v277h303v-277h241v-266z" />
    <glyph glyph-name="tcaron.ss01" horiz-adv-x="880" 
d="M1110 1556l-215 -358h-238l99 358h354zM215 0v809h-145v266h145v277h303v-277h244v-266h-244v-809h-303z" />
    <glyph glyph-name="uni0163.ss01" horiz-adv-x="768" 
d="M741 809h-243v-746h6l-6 -6v-57h-64l-115 -104h39q90 0 144.5 -39.5t54.5 -104.5q0 -77 -69 -121.5t-203 -44.5h-129v117h123q46 0 74 12.5t28 34.5q0 19 -28 30t-74 11h-101v105l103 104h-86v809h-144v266h144v277h303v-277h243v-266z" />
    <glyph glyph-name="uni021B.ss01" horiz-adv-x="770" 
d="M197 0v809h-144v266h144v277h303v-277h243v-266h-243v-809h-303zM127 -492l76 349h284l-143 -349h-217z" />
    <glyph glyph-name="u.ss01" horiz-adv-x="1460" 
d="M166 0v1075h303v-776h522v776h303v-1075h-1128z" />
    <glyph glyph-name="uacute.ss01" horiz-adv-x="1331" 
d="M950 1556l-370 -358h-252l243 358h379zM106 0v1075h304v-776h522v776h303v-1075h-1129z" />
    <glyph glyph-name="ucircumflex.ss01" horiz-adv-x="1331" 
d="M1087 1198h-235l-197 215l-198 -215h-236l266 358h334zM106 0v1075h304v-776h522v776h303v-1075h-1129z" />
    <glyph glyph-name="udieresis.ss01" horiz-adv-x="1331" 
d="M311 1317v239h248v-239h-248zM717 1317v239h244v-239h-244zM106 0v1075h304v-776h522v776h303v-1075h-1129z" />
    <glyph glyph-name="ugrave.ss01" horiz-adv-x="1331" 
d="M326 1556h379l243 -358h-250zM106 0v1075h304v-776h522v776h303v-1075h-1129z" />
    <glyph glyph-name="uhungarumlaut.ss01" horiz-adv-x="1404" 
d="M729 1556l-371 -358h-252l244 358h379zM1290 1556l-370 -358h-252l243 358h379zM154 0v1075h303v-776h522v776h303v-1075h-1128z" />
    <glyph glyph-name="umacron.ss01" horiz-adv-x="1331" 
d="M1051 1253h-781v222h781v-222zM106 0v1075h304v-776h522v776h303v-1075h-1129z" />
    <glyph glyph-name="uogonek.ss01" horiz-adv-x="1331" 
d="M762 0q-144 -111 -144 -195q0 -81 148 -81q39 0 68 4v-146q-44 -6 -105 -6q-143 0 -209.5 53.5t-66.5 134.5q0 119 180 236h-527v1075h304v-776h522v776h303v-1075h-473z" />
    <glyph glyph-name="uring.ss01" horiz-adv-x="1331" 
d="M647 1198q-95 0 -153 53.5t-58 141.5q0 86 58 138t153 52t153 -52t58 -138q0 -88 -58 -141.5t-153 -53.5zM647 1321q34 0 56 19.5t22 50.5q0 30 -22 48.5t-56 18.5q-36 0 -58 -18.5t-22 -48.5q0 -31 22.5 -50.5t57.5 -19.5zM106 0v1075h304v-776h522v776h303v-1075h-1129
z" />
    <glyph glyph-name="y.ss01" horiz-adv-x="1241" 
d="M469 -492v494l-449 1073h318l244 -663l36 -105h5l39 105l241 663h318l-449 -1073v-494h-303z" />
    <glyph glyph-name="yacute.ss01" horiz-adv-x="1150" 
d="M909 1556l-370 -358h-252l243 358h379zM467 -492v494l-447 1073h318l242 -663l36 -105h7l36 105l242 663h318l-449 -1073v-494h-303z" />
    <glyph glyph-name="ycircumflex.ss01" horiz-adv-x="1150" 
d="M1047 1198h-236l-197 215l-198 -215h-236l266 358h334zM467 -492v494l-447 1073h318l242 -663l36 -105h7l36 105l242 663h318l-449 -1073v-494h-303z" />
    <glyph glyph-name="ydieresis.ss01" horiz-adv-x="1241" 
d="M297 1317v239h246v-239h-246zM702 1317v239h244v-239h-244zM469 -492v494l-449 1073h318l244 -663l36 -105h5l39 105l241 663h318l-449 -1073v-494h-303z" />
    <glyph glyph-name="ygrave.ss01" horiz-adv-x="1241" 
d="M236 1556h378l244 -358h-250zM469 -492v494l-449 1073h318l244 -663l36 -105h5l39 105l241 663h318l-449 -1073v-494h-303z" />
    <glyph glyph-name="A.sc" horiz-adv-x="1660" 
d="M66 0l610 1323h309l608 -1323h-323l-137 283h-607l-135 -283h-325zM623 551h415l-209 436z" />
    <glyph glyph-name="Aacute.sc" horiz-adv-x="1660" 
d="M1141 1804l-371 -358h-252l244 358h379zM66 0l610 1323h309l608 -1323h-323l-137 283h-607l-135 -283h-325zM623 551h415l-209 436z" />
    <glyph glyph-name="Abreve.sc" horiz-adv-x="1660" 
d="M1040 1804h230q0 -161 -121 -259.5t-320 -98.5q-197 0 -317.5 98.5t-120.5 259.5h230q0 -82 57 -131t151 -49q95 0 153 49t58 131zM66 0l610 1323h309l608 -1323h-323l-137 283h-607l-135 -283h-325zM623 551h415l-209 436z" />
    <glyph glyph-name="Acircumflex.sc" horiz-adv-x="1660" 
d="M1262 1446h-236l-197 215l-198 -215h-236l267 358h333zM66 0l610 1323h309l608 -1323h-323l-137 283h-607l-135 -283h-325zM623 551h415l-209 436z" />
    <glyph glyph-name="Adieresis.sc" horiz-adv-x="1660" 
d="M506 1565v239h246v-239h-246zM911 1565v239h244v-239h-244zM66 0l610 1323h309l608 -1323h-323l-137 283h-607l-135 -283h-325zM623 551h415l-209 436z" />
    <glyph glyph-name="Agrave.sc" horiz-adv-x="1660" 
d="M518 1804h379l244 -358h-250zM66 0l610 1323h309l608 -1323h-323l-137 283h-607l-135 -283h-325zM623 551h415l-209 436z" />
    <glyph glyph-name="Amacron.sc" horiz-adv-x="1660" 
d="M1219 1501h-781v221h781v-221zM66 0l610 1323h309l608 -1323h-323l-137 283h-607l-135 -283h-325zM623 551h415l-209 436z" />
    <glyph glyph-name="Aogonek.sc" horiz-adv-x="1660" 
d="M1266 -197q0 -82 147 -82q32 0 68 5v-146q-43 -6 -105 -6q-143 0 -209.5 53.5t-66.5 134.5q0 40 18 77.5t50.5 69t57.5 50.5t58 41h-14l-137 283h-607l-135 -283h-325l610 1323h309l608 -1323h-182q-145 -110 -145 -197zM623 551h415l-209 436z" />
    <glyph glyph-name="Aring.sc" horiz-adv-x="1660" 
d="M829 1446q-94 0 -151 53t-57 141q0 86 57 138.5t151 52.5q95 0 153 -52.5t58 -138.5q0 -88 -58 -141t-153 -53zM829 1569q35 0 56.5 19t21.5 50t-21.5 49.5t-56.5 18.5t-57 -18.5t-22 -49.5t22 -50t57 -19zM66 0l610 1323h309l608 -1323h-323l-137 283h-607l-135 -283
h-325zM623 551h415l-209 436z" />
    <glyph glyph-name="Atilde.sc" horiz-adv-x="1660" 
d="M678 1774q46 0 89 -17t69.5 -37.5t58 -37.5t57.5 -17q37 0 58.5 25.5t21.5 72.5h199q0 -134 -70.5 -210t-185.5 -76q-51 0 -94.5 17t-68.5 37t-53.5 37t-53.5 17q-34 0 -56 -26.5t-22 -71.5h-197q0 126 69 206.5t179 80.5zM66 0l610 1323h309l608 -1323h-323l-137 283
h-607l-135 -283h-325zM623 551h415l-209 436z" />
    <glyph glyph-name="AE.sc" horiz-adv-x="2390" 
d="M1380 305h824v-305h-1127v264h-536l-135 -264h-340l684 1323h1419v-305h-789v-197h717v-303h-717v-213zM924 1018l-232 -449h385v449h-153z" />
    <glyph glyph-name="AEacute.sc" horiz-adv-x="2390" 
d="M1522 1804l-371 -358h-252l244 358h379zM1380 305h824v-305h-1127v264h-536l-135 -264h-340l684 1323h1419v-305h-789v-197h717v-303h-717v-213zM924 1018l-232 -449h385v449h-153z" />
    <glyph glyph-name="B.sc" horiz-adv-x="1488" 
d="M186 0v1323h576q161 0 278 -35t186.5 -112.5t69.5 -192.5q0 -97 -59 -170t-156 -92q133 -23 215 -115.5t82 -214.5q0 -186 -145.5 -288.5t-396.5 -102.5h-650zM481 793h236q131 0 201.5 33t70.5 98q0 71 -64.5 108t-189.5 37h-254v-276zM481 254h285q138 0 221.5 41
t83.5 125q0 85 -83.5 126.5t-231.5 41.5h-275v-334z" />
    <glyph glyph-name="C.sc" horiz-adv-x="1730" 
d="M877 -29q-178 0 -323 53.5t-238.5 146t-144 216t-50.5 264.5q0 149 53 277t149.5 222.5t241.5 148t320 53.5q157 0 291 -46t225.5 -124.5t148 -179t70.5 -211.5h-315q-30 127 -145 215t-288 88q-203 0 -319.5 -124.5t-116.5 -310.5q0 -185 117.5 -307.5t323.5 -122.5
q171 0 285 89.5t143 213.5h315q-12 -90 -49.5 -172.5t-102.5 -153.5t-150.5 -123t-198.5 -82t-242 -30z" />
    <glyph glyph-name="Cacute.sc" horiz-adv-x="1730" 
d="M1176 1804l-371 -358h-252l244 358h379zM877 -29q-178 0 -323 53.5t-238.5 146t-144 216t-50.5 264.5q0 149 53 277t149.5 222.5t241.5 148t320 53.5q157 0 291 -46t225.5 -124.5t148 -179t70.5 -211.5h-315q-30 127 -145 215t-288 88q-203 0 -319.5 -124.5
t-116.5 -310.5q0 -185 117.5 -307.5t323.5 -122.5q171 0 285 89.5t143 213.5h315q-12 -90 -49.5 -172.5t-102.5 -153.5t-150.5 -123t-198.5 -82t-242 -30z" />
    <glyph glyph-name="Ccaron.sc" horiz-adv-x="1730" 
d="M1296 1804l-266 -358h-334l-266 358h236l200 -215l195 215h235zM877 -29q-178 0 -323 53.5t-238.5 146t-144 216t-50.5 264.5q0 149 53 277t149.5 222.5t241.5 148t320 53.5q157 0 291 -46t225.5 -124.5t148 -179t70.5 -211.5h-315q-30 127 -145 215t-288 88
q-203 0 -319.5 -124.5t-116.5 -310.5q0 -185 117.5 -307.5t323.5 -122.5q171 0 285 89.5t143 213.5h315q-12 -90 -49.5 -172.5t-102.5 -153.5t-150.5 -123t-198.5 -82t-242 -30z" />
    <glyph glyph-name="Ccedilla.sc" horiz-adv-x="1730" 
d="M877 229q171 0 285 89.5t143 213.5h315q-14 -110 -68 -208t-142 -175.5t-216.5 -125t-280.5 -52.5l-84 -75h39q90 0 144.5 -39.5t54.5 -104.5q0 -77 -69 -121.5t-203 -44.5h-129v117h122q46 0 74.5 12.5t28.5 34.5q0 19 -28.5 30t-74.5 11h-100v105l80 81
q-203 20 -351.5 115.5t-222 239.5t-73.5 319q0 149 53 277t149.5 222.5t241.5 148t320 53.5q157 0 291 -46t225.5 -124.5t148 -179t70.5 -211.5h-315q-30 127 -145 215t-288 88q-203 0 -319.5 -124.5t-116.5 -310.5q0 -185 117.5 -307.5t323.5 -122.5z" />
    <glyph glyph-name="Cdotaccent.sc" horiz-adv-x="1730" 
d="M864 1483q-76 0 -130 52t-54 128q0 72 54.5 123t129.5 51q77 0 133 -51t56 -123q0 -76 -56 -128t-133 -52zM877 -29q-178 0 -323 53.5t-238.5 146t-144 216t-50.5 264.5q0 149 53 277t149.5 222.5t241.5 148t320 53.5q157 0 291 -46t225.5 -124.5t148 -179t70.5 -211.5
h-315q-30 127 -145 215t-288 88q-203 0 -319.5 -124.5t-116.5 -310.5q0 -185 117.5 -307.5t323.5 -122.5q171 0 285 89.5t143 213.5h315q-12 -90 -49.5 -172.5t-102.5 -153.5t-150.5 -123t-198.5 -82t-242 -30z" />
    <glyph glyph-name="D.sc" horiz-adv-x="1632" 
d="M813 0h-627l2 1323h625q175 0 302.5 -33.5t221 -109t139.5 -203t46 -309.5q0 -186 -43.5 -315t-134.5 -207t-220 -112.5t-311 -33.5zM483 258h287q113 0 188 16.5t134 60t86.5 124t27.5 203.5q0 120 -25 198.5t-81 123.5t-134 63t-196 18h-287v-807z" />
    <glyph glyph-name="Eth.sc" horiz-adv-x="1632" 
d="M813 1323q175 0 302.5 -33.5t221 -109t139.5 -203t46 -309.5q0 -186 -43.5 -315t-134.5 -207t-220 -112.5t-311 -33.5h-627v545h-153v231h155v547h625zM770 258q113 0 188 16.5t134 60t86.5 124t27.5 203.5q0 120 -25 198.5t-81 123.5t-134 63t-196 18h-287v-289h330
v-231h-330v-287h287z" />
    <glyph glyph-name="Dcaron.sc" horiz-adv-x="1632" 
d="M1237 1804l-266 -358h-334l-266 358h235l201 -215l194 215h236zM813 0h-627l2 1323h625q175 0 302.5 -33.5t221 -109t139.5 -203t46 -309.5q0 -186 -43.5 -315t-134.5 -207t-220 -112.5t-311 -33.5zM483 258h287q113 0 188 16.5t134 60t86.5 124t27.5 203.5
q0 120 -25 198.5t-81 123.5t-134 63t-196 18h-287v-807z" />
    <glyph glyph-name="Dcroat.sc" horiz-adv-x="1632" 
d="M813 1323q175 0 302.5 -33.5t221 -109t139.5 -203t46 -309.5q0 -186 -43.5 -315t-134.5 -207t-220 -112.5t-311 -33.5h-627v545h-153v231h155v547h625zM770 258q113 0 188 16.5t134 60t86.5 124t27.5 203.5q0 120 -25 198.5t-81 123.5t-134 63t-196 18h-287v-289h330
v-231h-330v-287h287z" />
    <glyph glyph-name="E.sc" horiz-adv-x="1495" 
d="M481 291h828v-291h-1123v1323h1086v-291h-791v-225h721v-268h-721v-248z" />
    <glyph glyph-name="Eacute.sc" horiz-adv-x="1495" 
d="M1057 1804l-371 -358h-252l244 358h379zM481 291h828v-291h-1123v1323h1086v-291h-791v-225h721v-268h-721v-248z" />
    <glyph glyph-name="Ecaron.sc" horiz-adv-x="1495" 
d="M1178 1804l-267 -358h-333l-267 358h236l198 -215l197 215h236zM481 291h828v-291h-1123v1323h1086v-291h-791v-225h721v-268h-721v-248z" />
    <glyph glyph-name="Ecircumflex.sc" horiz-adv-x="1495" 
d="M1178 1446h-236l-197 215l-198 -215h-236l267 358h333zM481 291h828v-291h-1123v1323h1086v-291h-791v-225h721v-268h-721v-248z" />
    <glyph glyph-name="Edieresis.sc" horiz-adv-x="1495" 
d="M422 1565v239h246v-239h-246zM827 1565v239h244v-239h-244zM481 291h828v-291h-1123v1323h1086v-291h-791v-225h721v-268h-721v-248z" />
    <glyph glyph-name="Edotaccent.sc" horiz-adv-x="1495" 
d="M745 1483q-76 0 -130 52t-54 128q0 72 54.5 123t129.5 51q77 0 133 -51t56 -123q0 -76 -56 -128t-133 -52zM481 291h828v-291h-1123v1323h1086v-291h-791v-225h721v-268h-721v-248z" />
    <glyph glyph-name="Egrave.sc" horiz-adv-x="1495" 
d="M434 1804h379l244 -358h-250zM481 291h828v-291h-1123v1323h1086v-291h-791v-225h721v-268h-721v-248z" />
    <glyph glyph-name="Emacron.sc" horiz-adv-x="1495" 
d="M1135 1501h-779v221h779v-221zM481 291h828v-291h-1123v1323h1086v-291h-791v-225h721v-268h-721v-248z" />
    <glyph glyph-name="Eogonek.sc" horiz-adv-x="1495" 
d="M1260 -279q31 0 67 5v-146q-43 -6 -104 -6q-143 0 -210 53.5t-67 134.5q0 40 18 77.5t50.5 69t57.5 50.5t58 41h-944v1323h1086v-291h-791v-225h721v-268h-721v-248h828v-291h-52q-145 -110 -145 -197q0 -82 148 -82z" />
    <glyph glyph-name="F.sc" horiz-adv-x="1306" 
d="M1255 1032h-774v-225h693v-268h-693v-539h-295v1323h1069v-291z" />
    <glyph glyph-name="G.sc" horiz-adv-x="1767" 
d="M946 -29q-381 0 -603 188.5t-222 506.5q0 210 96 366t269 238t401 82q294 0 497 -138t236 -352h-315q-35 103 -146 167.5t-272 64.5q-208 0 -329.5 -113t-121.5 -315t134.5 -319.5t377.5 -117.5q121 0 229.5 30.5t163.5 90.5v133h-512v246h791v-465q-90 -133 -275 -213
t-399 -80z" />
    <glyph glyph-name="Gbreve.sc" horiz-adv-x="1767" 
d="M1112 1804h229q0 -161 -121 -259.5t-319 -98.5q-197 0 -317.5 98.5t-120.5 259.5h227q0 -81 58.5 -130.5t152.5 -49.5q95 0 153 49t58 131zM946 -29q-381 0 -603 188.5t-222 506.5q0 210 96 366t269 238t401 82q294 0 497 -138t236 -352h-315q-35 103 -146 167.5
t-272 64.5q-208 0 -329.5 -113t-121.5 -315t134.5 -319.5t377.5 -117.5q121 0 229.5 30.5t163.5 90.5v133h-512v246h791v-465q-90 -133 -275 -213t-399 -80z" />
    <glyph glyph-name="uni0122.sc" horiz-adv-x="1767" 
d="M946 -29q-381 0 -603 188.5t-222 506.5q0 210 96 366t269 238t401 82q294 0 497 -138t236 -352h-315q-35 103 -146 167.5t-272 64.5q-208 0 -329.5 -113t-121.5 -315t134.5 -319.5t377.5 -117.5q121 0 229.5 30.5t163.5 90.5v133h-512v246h791v-465q-90 -133 -275 -213
t-399 -80zM723 -492l76 349h282l-141 -349h-217z" />
    <glyph glyph-name="Gdotaccent.sc" horiz-adv-x="1767" 
d="M901 1483q-76 0 -131 52t-55 128q0 72 55.5 123t130.5 51q76 0 132.5 -51.5t56.5 -122.5q0 -75 -56.5 -127.5t-132.5 -52.5zM946 -29q-381 0 -603 188.5t-222 506.5q0 210 96 366t269 238t401 82q294 0 497 -138t236 -352h-315q-35 103 -146 167.5t-272 64.5
q-208 0 -329.5 -113t-121.5 -315t134.5 -319.5t377.5 -117.5q121 0 229.5 30.5t163.5 90.5v133h-512v246h791v-465q-90 -133 -275 -213t-399 -80z" />
    <glyph glyph-name="H.sc" horiz-adv-x="1624" 
d="M1141 1323h297v-1323h-297v524h-658v-524h-297v1323h297v-516h658v516z" />
    <glyph glyph-name="Hbar.sc" horiz-adv-x="1624" 
d="M1589 1120v-231h-151v-889h-297v524h-658v-524h-297v889h-151v231h151v203h297v-203h658v203h297v-203h151zM1141 807v82h-658v-82h658z" />
    <glyph glyph-name="I.sc" horiz-adv-x="630" 
d="M166 0v1323h297v-1323h-297z" />
    <glyph glyph-name="Iacute.sc" horiz-adv-x="630" 
d="M625 1804l-371 -358h-252l244 358h379zM166 0v1323h297v-1323h-297z" />
    <glyph glyph-name="Icircumflex.sc" horiz-adv-x="630" 
d="M745 1446h-235l-197 215l-198 -215h-236l266 358h334zM166 0v1323h297v-1323h-297z" />
    <glyph glyph-name="Idieresis.sc" horiz-adv-x="630" 
d="M-10 1565v239h246v-239h-246zM395 1565v239h244v-239h-244zM166 0v1323h297v-1323h-297z" />
    <glyph glyph-name="Idotaccent.sc" horiz-adv-x="630" 
d="M313 1483q-76 0 -131 52t-55 128q0 72 55.5 123t130.5 51q77 0 133 -51t56 -123q0 -76 -56 -128t-133 -52zM166 0v1323h297v-1323h-297z" />
    <glyph glyph-name="Igrave.sc" horiz-adv-x="630" 
d="M2 1804h379l244 -358h-250zM166 0v1323h297v-1323h-297z" />
    <glyph glyph-name="Imacron.sc" horiz-adv-x="630" 
d="M702 1501h-778v221h778v-221zM166 0v1323h297v-1323h-297z" />
    <glyph glyph-name="Iogonek.sc" horiz-adv-x="630" 
d="M436 -279q32 0 68 5v-146q-44 -6 -105 -6q-143 0 -209.5 53.5t-66.5 134.5q0 40 18 77.5t50.5 69t57.5 50.5t58 41h-141v1323h297v-1323h-29q-145 -110 -145 -197q0 -82 147 -82z" />
    <glyph glyph-name="J.sc" horiz-adv-x="1359" 
d="M633 -29q-553 0 -588 478h309q15 -113 78 -166.5t191 -53.5q39 0 71 4t57.5 14t45 22t34.5 32t25.5 39t17.5 49t11.5 55.5t6.5 65t2.5 72t0.5 80.5v661h299v-784q0 -141 -26.5 -241.5t-89.5 -176.5t-173.5 -113t-271.5 -37z" />
    <glyph glyph-name="K.sc" horiz-adv-x="1460" 
d="M1395 0h-363l-549 567v-567h-297v1323h297v-553l514 553h361l-627 -653z" />
    <glyph glyph-name="uni0136.sc" horiz-adv-x="1460" 
d="M731 670l664 -670h-363l-549 567v-567h-297v1323h297v-553l514 553h361zM518 -492l76 349h285l-144 -349h-217z" />
    <glyph glyph-name="L.sc" horiz-adv-x="1439" 
d="M481 291h772v-291h-1067v1323h295v-1032z" />
    <glyph glyph-name="Lacute.sc" horiz-adv-x="1298" 
d="M954 1804l-370 -358h-252l243 358h379zM481 291h772v-291h-1067v1323h295v-1032z" />
    <glyph glyph-name="Lcaron.sc" horiz-adv-x="1460" 
d="M502 291h772v-291h-1067v1323h295v-1032zM1225 1323l-195 -305h-235l88 305h342z" />
    <glyph glyph-name="uni013B.sc" horiz-adv-x="1298" 
d="M481 291h772v-291h-1067v1323h295v-1032zM465 -492l76 349h284l-143 -349h-217z" />
    <glyph glyph-name="Lslash.sc" horiz-adv-x="1298" 
d="M481 291h772v-291h-1067v561l-209 -131v324l209 131v438h295v-254l236 148v-324l-236 -148v-454z" />
    <glyph glyph-name="M.sc" horiz-adv-x="1937" 
d="M205 0v1323h327l449 -989l444 989h326v-1323h-295v741l-334 -741h-286l-336 741v-741h-295z" />
    <glyph glyph-name="N.sc" horiz-adv-x="1642" 
d="M186 0v1323h287l668 -838v838h297v-1323h-295l-660 811v-811h-297z" />
    <glyph glyph-name="Nacute.sc" horiz-adv-x="1642" 
d="M1118 1804l-370 -358h-252l243 358h379zM186 0v1323h287l668 -838v838h297v-1323h-295l-660 811v-811h-297z" />
    <glyph glyph-name="Ncaron.sc" horiz-adv-x="1642" 
d="M1239 1804l-266 -358h-334l-266 358h235l201 -215l195 215h235zM186 0v1323h287l668 -838v838h297v-1323h-295l-660 811v-811h-297z" />
    <glyph glyph-name="uni0145.sc" horiz-adv-x="1642" 
d="M186 0v1323h287l668 -838v838h297v-1323h-295l-660 811v-811h-297zM629 -492l76 349h284l-143 -349h-217z" />
    <glyph glyph-name="Eng.sc" horiz-adv-x="1642" 
d="M1016 -418q-100 0 -179 21t-128 54t-82 80.5t-48 93t-20 97.5h297q5 -129 145 -129q46 0 75.5 14.5t43.5 44t19 60.5t6 78l-660 815v-811h-299v1323h289l664 -838v838h299v-1323q0 -75 -9.5 -132.5t-37 -113t-73 -92t-122 -58.5t-180.5 -22z" />
    <glyph glyph-name="Ntilde.sc" horiz-adv-x="1642" 
d="M657 1774q46 0 89 -17t70 -37.5t58.5 -37.5t57.5 -17q36 0 58 26t22 72h196q0 -134 -70.5 -210t-183.5 -76q-51 0 -94.5 17t-68.5 37t-54.5 37t-54.5 17q-34 0 -55 -26.5t-21 -71.5h-198q0 127 68.5 207t180.5 80zM186 0v1323h287l668 -838v838h297v-1323h-295l-660 811
v-811h-297z" />
    <glyph glyph-name="O.sc" horiz-adv-x="1787" 
d="M897 -29q-179 0 -327 54.5t-245.5 148.5t-150.5 219.5t-53 268.5q0 114 33.5 218t99.5 190t158.5 149t216.5 98t268 35q178 0 324.5 -54t243 -148t149.5 -219.5t53 -268.5t-53 -268.5t-149.5 -219.5t-243.5 -148.5t-324 -54.5zM893 229q107 0 195.5 37.5t144.5 99.5
t86.5 138.5t30.5 157.5t-30.5 157.5t-86.5 138t-144.5 99t-195.5 37.5q-106 0 -194 -37.5t-144 -99t-86.5 -138t-30.5 -157.5t30.5 -157.5t86.5 -138.5t144 -99.5t194 -37.5z" />
    <glyph glyph-name="Oacute.sc" horiz-adv-x="1787" 
d="M1204 1804l-370 -358h-252l243 358h379zM897 -29q-179 0 -327 54.5t-245.5 148.5t-150.5 219.5t-53 268.5q0 114 33.5 218t99.5 190t158.5 149t216.5 98t268 35q178 0 324.5 -54t243 -148t149.5 -219.5t53 -268.5t-53 -268.5t-149.5 -219.5t-243.5 -148.5t-324 -54.5z
M893 229q107 0 195.5 37.5t144.5 99.5t86.5 138.5t30.5 157.5t-30.5 157.5t-86.5 138t-144.5 99t-195.5 37.5q-106 0 -194 -37.5t-144 -99t-86.5 -138t-30.5 -157.5t30.5 -157.5t86.5 -138.5t144 -99.5t194 -37.5z" />
    <glyph glyph-name="Ocircumflex.sc" horiz-adv-x="1787" 
d="M1325 1446h-235l-197 215l-201 -215h-233l266 358h334zM897 -29q-179 0 -327 54.5t-245.5 148.5t-150.5 219.5t-53 268.5q0 114 33.5 218t99.5 190t158.5 149t216.5 98t268 35q178 0 324.5 -54t243 -148t149.5 -219.5t53 -268.5t-53 -268.5t-149.5 -219.5t-243.5 -148.5
t-324 -54.5zM893 229q107 0 195.5 37.5t144.5 99.5t86.5 138.5t30.5 157.5t-30.5 157.5t-86.5 138t-144.5 99t-195.5 37.5q-106 0 -194 -37.5t-144 -99t-86.5 -138t-30.5 -157.5t30.5 -157.5t86.5 -138.5t144 -99.5t194 -37.5z" />
    <glyph glyph-name="Odieresis.sc" horiz-adv-x="1787" 
d="M569 1565v239h248v-239h-248zM975 1565v239h244v-239h-244zM897 -29q-179 0 -327 54.5t-245.5 148.5t-150.5 219.5t-53 268.5q0 114 33.5 218t99.5 190t158.5 149t216.5 98t268 35q178 0 324.5 -54t243 -148t149.5 -219.5t53 -268.5t-53 -268.5t-149.5 -219.5
t-243.5 -148.5t-324 -54.5zM893 229q107 0 195.5 37.5t144.5 99.5t86.5 138.5t30.5 157.5t-30.5 157.5t-86.5 138t-144.5 99t-195.5 37.5q-106 0 -194 -37.5t-144 -99t-86.5 -138t-30.5 -157.5t30.5 -157.5t86.5 -138.5t144 -99.5t194 -37.5z" />
    <glyph glyph-name="Ograve.sc" horiz-adv-x="1787" 
d="M582 1804h379l243 -358h-250zM897 -29q-179 0 -327 54.5t-245.5 148.5t-150.5 219.5t-53 268.5q0 114 33.5 218t99.5 190t158.5 149t216.5 98t268 35q178 0 324.5 -54t243 -148t149.5 -219.5t53 -268.5t-53 -268.5t-149.5 -219.5t-243.5 -148.5t-324 -54.5zM893 229
q107 0 195.5 37.5t144.5 99.5t86.5 138.5t30.5 157.5t-30.5 157.5t-86.5 138t-144.5 99t-195.5 37.5q-106 0 -194 -37.5t-144 -99t-86.5 -138t-30.5 -157.5t30.5 -157.5t86.5 -138.5t144 -99.5t194 -37.5z" />
    <glyph glyph-name="Ohungarumlaut.sc" horiz-adv-x="1787" 
d="M922 1804l-371 -358h-252l244 358h379zM1483 1804l-371 -358h-252l244 358h379zM897 -29q-179 0 -327 54.5t-245.5 148.5t-150.5 219.5t-53 268.5q0 114 33.5 218t99.5 190t158.5 149t216.5 98t268 35q178 0 324.5 -54t243 -148t149.5 -219.5t53 -268.5t-53 -268.5
t-149.5 -219.5t-243.5 -148.5t-324 -54.5zM893 229q107 0 195.5 37.5t144.5 99.5t86.5 138.5t30.5 157.5t-30.5 157.5t-86.5 138t-144.5 99t-195.5 37.5q-106 0 -194 -37.5t-144 -99t-86.5 -138t-30.5 -157.5t30.5 -157.5t86.5 -138.5t144 -99.5t194 -37.5z" />
    <glyph glyph-name="Omacron.sc" horiz-adv-x="1787" 
d="M1282 1501h-780v221h780v-221zM897 -29q-179 0 -327 54.5t-245.5 148.5t-150.5 219.5t-53 268.5q0 114 33.5 218t99.5 190t158.5 149t216.5 98t268 35q178 0 324.5 -54t243 -148t149.5 -219.5t53 -268.5t-53 -268.5t-149.5 -219.5t-243.5 -148.5t-324 -54.5zM893 229
q107 0 195.5 37.5t144.5 99.5t86.5 138.5t30.5 157.5t-30.5 157.5t-86.5 138t-144.5 99t-195.5 37.5q-106 0 -194 -37.5t-144 -99t-86.5 -138t-30.5 -157.5t30.5 -157.5t86.5 -138.5t144 -99.5t194 -37.5z" />
    <glyph glyph-name="Oslash.sc" horiz-adv-x="1787" 
d="M1409 1196q125 -95 191.5 -233.5t66.5 -300.5q0 -143 -53 -268.5t-149.5 -219.5t-243.5 -148.5t-324 -54.5q-174 0 -311 49l-178 -256h-281l254 363q-125 95 -192.5 234t-67.5 301q0 114 33.5 218t99.5 190t158.5 149t216.5 98t268 35q171 0 307 -47l178 254h281z
M438 662q0 -79 29 -155.5t84 -135.5l491 702q-79 21 -149 21q-106 0 -194 -37.5t-144 -99t-86.5 -138t-30.5 -157.5zM893 229q107 0 195.5 37.5t144.5 99.5t86.5 138.5t30.5 157.5q0 166 -113 288l-489 -700q75 -21 145 -21z" />
    <glyph glyph-name="Otilde.sc" horiz-adv-x="1787" 
d="M741 1774q46 0 89 -17t70 -37.5t58.5 -37.5t57.5 -17q37 0 58.5 25.5t21.5 72.5h198q0 -134 -70.5 -210t-185.5 -76q-51 0 -94.5 17t-68.5 37t-53.5 37t-53.5 17q-34 0 -56 -26.5t-22 -71.5h-196q0 126 68.5 206.5t178.5 80.5zM897 -29q-179 0 -327 54.5t-245.5 148.5
t-150.5 219.5t-53 268.5q0 114 33.5 218t99.5 190t158.5 149t216.5 98t268 35q178 0 324.5 -54t243 -148t149.5 -219.5t53 -268.5t-53 -268.5t-149.5 -219.5t-243.5 -148.5t-324 -54.5zM893 229q107 0 195.5 37.5t144.5 99.5t86.5 138.5t30.5 157.5t-30.5 157.5t-86.5 138
t-144.5 99t-195.5 37.5q-106 0 -194 -37.5t-144 -99t-86.5 -138t-30.5 -157.5t30.5 -157.5t86.5 -138.5t144 -99.5t194 -37.5z" />
    <glyph glyph-name="OE.sc" horiz-adv-x="2666" 
d="M893 -29q-178 0 -325 54.5t-244 148.5t-150 219.5t-53 268.5t53 268.5t150 219.5t244 148t325 54q295 0 467 -131v102h1087v-291h-790v-213h721v-293h-721v-233h823v-293h-1120v102q-172 -131 -467 -131zM893 229q107 0 195.5 37.5t144.5 99.5t86.5 138.5t30.5 157.5
t-30.5 157.5t-86.5 138t-144.5 99t-195.5 37.5q-106 0 -194 -37.5t-144 -99t-86.5 -138t-30.5 -157.5t30.5 -157.5t86.5 -138.5t144 -99.5t194 -37.5z" />
    <glyph glyph-name="P.sc" horiz-adv-x="1406" 
d="M186 0v1323h596q236 0 375 -107t139 -307q0 -206 -141.5 -311.5t-392.5 -105.5h-281v-492h-295zM481 748h240q268 0 268 155q0 84 -71 125t-197 41h-240v-321z" />
    <glyph glyph-name="Thorn.sc" horiz-adv-x="1406" 
d="M752 1092q113 0 208.5 -23.5t172 -71.5t120 -129t43.5 -188q0 -91 -30.5 -163t-81.5 -119t-123 -78t-151 -44.5t-169 -13.5h-256v-262h-299v1323h299v-231h267zM711 520q270 0 270 152q0 159 -270 159h-226v-311h226z" />
    <glyph glyph-name="Q.sc" horiz-adv-x="1787" 
d="M1667 662q0 -164 -67.5 -303t-194.5 -234l262 -240h-342l-139 127q-131 -41 -289 -41q-179 0 -327 54.5t-245.5 148.5t-150.5 219.5t-53 268.5q0 114 33.5 218t99.5 190t158.5 149t216.5 98t268 35q178 0 324.5 -54t243 -148t149.5 -219.5t53 -268.5zM893 229q35 0 51 2
l-221 203h344l121 -110q80 62 123 151.5t43 186.5q0 81 -30.5 157.5t-87 138t-146 99t-197.5 37.5q-107 0 -196 -37.5t-144.5 -99t-86 -138t-30.5 -157.5t30.5 -157.5t86 -138.5t144.5 -99.5t196 -37.5z" />
    <glyph glyph-name="R.sc" horiz-adv-x="1429" 
d="M186 0v1323h576q248 0 391 -103t143 -294q0 -144 -108.5 -251t-290.5 -134q-52 -9 -84 -9l569 -532h-358l-543 508v-508h-295zM481 756h252q69 0 123.5 13.5t92.5 49t38 90.5q0 81 -71.5 120.5t-198.5 39.5h-236v-313z" />
    <glyph glyph-name="Racute.sc" horiz-adv-x="1429" 
d="M1018 1804l-371 -358h-252l244 358h379zM186 0v1323h576q248 0 391 -103t143 -294q0 -144 -108.5 -251t-290.5 -134q-52 -9 -84 -9l569 -532h-358l-543 508v-508h-295zM481 756h252q69 0 123.5 13.5t92.5 49t38 90.5q0 81 -71.5 120.5t-198.5 39.5h-236v-313z" />
    <glyph glyph-name="Rcaron.sc" horiz-adv-x="1429" 
d="M1139 1804l-267 -358h-333l-267 358h236l201 -215l194 215h236zM186 0v1323h576q248 0 391 -103t143 -294q0 -144 -108.5 -251t-290.5 -134q-52 -9 -84 -9l569 -532h-358l-543 508v-508h-295zM481 756h252q69 0 123.5 13.5t92.5 49t38 90.5q0 81 -71.5 120.5t-198.5 39.5
h-236v-313z" />
    <glyph glyph-name="uni0156.sc" horiz-adv-x="1429" 
d="M186 0v1323h576q248 0 391 -103t143 -294q0 -144 -108.5 -251t-290.5 -134q-52 -9 -84 -9l569 -532h-358l-543 508v-508h-295zM481 756h252q69 0 123.5 13.5t92.5 49t38 90.5q0 81 -71.5 120.5t-198.5 39.5h-236v-313zM528 -492l76 349h285l-144 -349h-217z" />
    <glyph glyph-name="S.sc" horiz-adv-x="1476" 
d="M784 -41q-319 0 -492 128.5t-194 340.5h297q66 -229 406 -229q268 0 268 155q0 19 -5 36t-19 31.5t-25.5 25t-37.5 22t-40 18t-49 16.5t-48.5 14t-53.5 14q-15 4 -23 6q-73 18 -118 30.5t-107.5 31.5t-102 36.5t-86 42t-75 51.5t-54.5 61t-38 75.5t-13 90.5
q-2 82 30.5 149t87.5 111.5t130 74.5t155.5 43.5t167.5 13.5q272 0 422.5 -118.5t159.5 -320.5h-299q-6 58 -35 99.5t-74 63t-92.5 31t-101.5 9.5q-39 0 -79.5 -6.5t-83.5 -21t-70 -45t-27 -72.5q0 -27 9.5 -48t32.5 -39t48 -31t71 -27.5t85.5 -25.5t106.5 -28q11 -3 16 -4
q193 -51 254 -73q194 -73 249 -198q25 -57 25 -126q0 -204 -148.5 -306t-429.5 -102z" />
    <glyph glyph-name="Sacute.sc" horiz-adv-x="1476" 
d="M1047 1788l-371 -358h-252l244 358h379zM784 -41q-319 0 -492 128.5t-194 340.5h297q66 -229 406 -229q268 0 268 155q0 19 -5 36t-19 31.5t-25.5 25t-37.5 22t-40 18t-49 16.5t-48.5 14t-53.5 14q-15 4 -23 6q-73 18 -118 30.5t-107.5 31.5t-102 36.5t-86 42t-75 51.5
t-54.5 61t-38 75.5t-13 90.5q-2 82 30.5 149t87.5 111.5t130 74.5t155.5 43.5t167.5 13.5q272 0 422.5 -118.5t159.5 -320.5h-299q-6 58 -35 99.5t-74 63t-92.5 31t-101.5 9.5q-39 0 -79.5 -6.5t-83.5 -21t-70 -45t-27 -72.5q0 -27 9.5 -48t32.5 -39t48 -31t71 -27.5
t85.5 -25.5t106.5 -28q11 -3 16 -4q193 -51 254 -73q194 -73 249 -198q25 -57 25 -126q0 -204 -148.5 -306t-429.5 -102z" />
    <glyph glyph-name="Scaron.sc" horiz-adv-x="1476" 
d="M1167 1788l-266 -358h-334l-266 358h236l198 -215l197 215h235zM784 -41q-319 0 -492 128.5t-194 340.5h297q66 -229 406 -229q268 0 268 155q0 19 -5 36t-19 31.5t-25.5 25t-37.5 22t-40 18t-49 16.5t-48.5 14t-53.5 14q-15 4 -23 6q-73 18 -118 30.5t-107.5 31.5
t-102 36.5t-86 42t-75 51.5t-54.5 61t-38 75.5t-13 90.5q-2 82 30.5 149t87.5 111.5t130 74.5t155.5 43.5t167.5 13.5q272 0 422.5 -118.5t159.5 -320.5h-299q-6 58 -35 99.5t-74 63t-92.5 31t-101.5 9.5q-39 0 -79.5 -6.5t-83.5 -21t-70 -45t-27 -72.5q0 -27 9.5 -48
t32.5 -39t48 -31t71 -27.5t85.5 -25.5t106.5 -28q11 -3 16 -4q193 -51 254 -73q194 -73 249 -198q25 -57 25 -126q0 -204 -148.5 -306t-429.5 -102z" />
    <glyph glyph-name="Scedilla.sc" horiz-adv-x="1476" 
d="M784 -41h-14l-70 -63h39q89 0 143 -39.5t54 -104.5q0 -77 -69 -121.5t-203 -44.5h-129v117h122q46 0 74.5 12.5t28.5 34.5q0 19 -28.5 30t-74.5 11h-100v105l72 71q-246 31 -379.5 153.5t-151.5 307.5h297q66 -229 406 -229q268 0 268 155q0 19 -5 36t-19 31.5t-25.5 25
t-37.5 22t-40 18t-49 16.5t-48.5 14t-53.5 14q-15 4 -23 6q-73 18 -118 30.5t-107.5 31.5t-102 36.5t-86 42t-75 51.5t-54.5 61t-38 75.5t-13 90.5q-2 82 30.5 149t87.5 111.5t130 74.5t155.5 43.5t167.5 13.5q272 0 422.5 -118.5t159.5 -320.5h-299q-6 58 -35 99.5t-74 63
t-92.5 31t-101.5 9.5q-39 0 -79.5 -6.5t-83.5 -21t-70 -45t-27 -72.5q0 -27 9.5 -48t32.5 -39t48 -31t71 -27.5t85.5 -25.5t106.5 -28q11 -3 16 -4q193 -51 254 -73q194 -73 249 -198q25 -57 25 -126q0 -204 -148.5 -306t-429.5 -102z" />
    <glyph glyph-name="uni0218.sc" horiz-adv-x="1476" 
d="M784 -41q-319 0 -492 128.5t-194 340.5h297q66 -229 406 -229q268 0 268 155q0 19 -5 36t-19 31.5t-25.5 25t-37.5 22t-40 18t-49 16.5t-48.5 14t-53.5 14q-15 4 -23 6q-73 18 -118 30.5t-107.5 31.5t-102 36.5t-86 42t-75 51.5t-54.5 61t-38 75.5t-13 90.5
q-2 82 30.5 149t87.5 111.5t130 74.5t155.5 43.5t167.5 13.5q272 0 422.5 -118.5t159.5 -320.5h-299q-6 58 -35 99.5t-74 63t-92.5 31t-101.5 9.5q-39 0 -79.5 -6.5t-83.5 -21t-70 -45t-27 -72.5q0 -27 9.5 -48t32.5 -39t48 -31t71 -27.5t85.5 -25.5t106.5 -28q11 -3 16 -4
q193 -51 254 -73q194 -73 249 -198q25 -57 25 -126q0 -204 -148.5 -306t-429.5 -102zM557 -492l76 349h282l-141 -349h-217z" />
    <glyph glyph-name="T.sc" horiz-adv-x="1359" 
d="M1294 1032h-467v-1032h-295v1032h-466v291h1226z" />
    <glyph glyph-name="Tbar.sc" horiz-adv-x="1359" 
d="M827 1032v-256h242v-231h-242v-545h-295v545h-243v231h243v256h-466v291h1226l2 -291h-467z" />
    <glyph glyph-name="Tcaron.sc" horiz-adv-x="1359" 
d="M1112 1804l-266 -358h-334l-266 358h235l199 -215l197 215h235zM1294 1032h-467v-1032h-295v1032h-466v291h1226z" />
    <glyph glyph-name="uni0162.sc" horiz-adv-x="1359" 
d="M684 -104q89 0 143 -39.5t54 -104.5q0 -77 -69 -121.5t-204 -44.5h-129v117h125q46 0 74.5 12.5t28.5 34.5q0 19 -28.5 30t-74.5 11h-102v105l102 104h-72v1032h-466v291h1226l2 -291h-467v-1032h-69l-113 -104h39z" />
    <glyph glyph-name="uni021A.sc" horiz-adv-x="1359" 
d="M1294 1032h-467v-1032h-295v1032h-466v291h1226zM502 -492l76 349h282l-141 -349h-217z" />
    <glyph glyph-name="U.sc" horiz-adv-x="1624" 
d="M813 -29q-146 0 -255.5 25.5t-180 71.5t-113.5 117t-60.5 153.5t-17.5 189.5v795h297v-668q0 -63 2 -105t9.5 -91t21 -80t38 -62.5t59 -48.5t85 -28t115.5 -11q57 0 102.5 7.5t78.5 23.5t57.5 35.5t40.5 51t26 61t15 73.5t6.5 81.5t1.5 92.5v668h297v-795
q0 -139 -29.5 -237.5t-99.5 -172.5t-193 -110.5t-303 -36.5z" />
    <glyph glyph-name="Uacute.sc" horiz-adv-x="1583" 
d="M1118 1804l-370 -358h-252l243 358h379zM813 -29q-146 0 -255.5 25.5t-180 71.5t-113.5 117t-60.5 153.5t-17.5 189.5v795h297v-668q0 -63 2 -105t9.5 -91t21 -80t38 -62.5t59 -48.5t85 -28t115.5 -11q57 0 102.5 7.5t78.5 23.5t57.5 35.5t40.5 51t26 61t15 73.5
t6.5 81.5t1.5 92.5v668h297v-795q0 -139 -29.5 -237.5t-99.5 -172.5t-193 -110.5t-303 -36.5z" />
    <glyph glyph-name="Ucircumflex.sc" horiz-adv-x="1583" 
d="M1239 1446h-235l-195 215l-201 -215h-235l266 358h334zM813 -29q-146 0 -255.5 25.5t-180 71.5t-113.5 117t-60.5 153.5t-17.5 189.5v795h297v-668q0 -63 2 -105t9.5 -91t21 -80t38 -62.5t59 -48.5t85 -28t115.5 -11q57 0 102.5 7.5t78.5 23.5t57.5 35.5t40.5 51t26 61
t15 73.5t6.5 81.5t1.5 92.5v668h297v-795q0 -139 -29.5 -237.5t-99.5 -172.5t-193 -110.5t-303 -36.5z" />
    <glyph glyph-name="Udieresis.sc" horiz-adv-x="1583" 
d="M483 1565v239h248v-239h-248zM889 1565v239h244v-239h-244zM813 -29q-146 0 -255.5 25.5t-180 71.5t-113.5 117t-60.5 153.5t-17.5 189.5v795h297v-668q0 -63 2 -105t9.5 -91t21 -80t38 -62.5t59 -48.5t85 -28t115.5 -11q57 0 102.5 7.5t78.5 23.5t57.5 35.5t40.5 51
t26 61t15 73.5t6.5 81.5t1.5 92.5v668h297v-795q0 -139 -29.5 -237.5t-99.5 -172.5t-193 -110.5t-303 -36.5z" />
    <glyph glyph-name="Ugrave.sc" horiz-adv-x="1583" 
d="M496 1804h378l244 -358h-250zM813 -29q-146 0 -255.5 25.5t-180 71.5t-113.5 117t-60.5 153.5t-17.5 189.5v795h297v-668q0 -63 2 -105t9.5 -91t21 -80t38 -62.5t59 -48.5t85 -28t115.5 -11q57 0 102.5 7.5t78.5 23.5t57.5 35.5t40.5 51t26 61t15 73.5t6.5 81.5t1.5 92.5
v668h297v-795q0 -139 -29.5 -237.5t-99.5 -172.5t-193 -110.5t-303 -36.5z" />
    <glyph glyph-name="Uhungarumlaut.sc" horiz-adv-x="1583" 
d="M838 1804l-371 -358h-252l244 358h379zM1399 1804l-371 -358h-252l244 358h379zM813 -29q-146 0 -255.5 25.5t-180 71.5t-113.5 117t-60.5 153.5t-17.5 189.5v795h297v-668q0 -63 2 -105t9.5 -91t21 -80t38 -62.5t59 -48.5t85 -28t115.5 -11q57 0 102.5 7.5t78.5 23.5
t57.5 35.5t40.5 51t26 61t15 73.5t6.5 81.5t1.5 92.5v668h297v-795q0 -139 -29.5 -237.5t-99.5 -172.5t-193 -110.5t-303 -36.5z" />
    <glyph glyph-name="Umacron.sc" horiz-adv-x="1583" 
d="M1198 1501h-780v221h780v-221zM813 -29q-146 0 -255.5 25.5t-180 71.5t-113.5 117t-60.5 153.5t-17.5 189.5v795h297v-668q0 -63 2 -105t9.5 -91t21 -80t38 -62.5t59 -48.5t85 -28t115.5 -11q57 0 102.5 7.5t78.5 23.5t57.5 35.5t40.5 51t26 61t15 73.5t6.5 81.5
t1.5 92.5v668h297v-795q0 -139 -29.5 -237.5t-99.5 -172.5t-193 -110.5t-303 -36.5z" />
    <glyph glyph-name="Uogonek.sc" horiz-adv-x="1583" 
d="M1141 1323h297v-795q0 -135 -27.5 -231.5t-93 -170.5t-180 -112.5t-281.5 -42.5q-111 -95 -111 -168q0 -82 148 -82q32 0 68 5v-146q-43 -6 -105 -6q-143 0 -209.5 53.5t-66.5 134.5q0 108 145 211q-156 9 -262.5 51t-166.5 116.5t-85 167.5t-25 220v795h297v-668
q0 -63 2 -105t9.5 -91t21 -80t38 -62.5t59 -48.5t85 -28t115.5 -11q57 0 102.5 7.5t78.5 23.5t57.5 35.5t40.5 51t26 61t15 73.5t6.5 81.5t1.5 92.5v668z" />
    <glyph glyph-name="Uring.sc" horiz-adv-x="1583" 
d="M809 1446q-95 0 -153 53t-58 141q0 86 58 138.5t153 52.5q94 0 151.5 -52.5t57.5 -138.5q0 -88 -57.5 -141t-151.5 -53zM809 1569q34 0 56 19t22 50q0 30 -22 49t-56 19q-37 0 -58.5 -18.5t-21.5 -49.5t22 -50t58 -19zM813 -29q-146 0 -255.5 25.5t-180 71.5t-113.5 117
t-60.5 153.5t-17.5 189.5v795h297v-668q0 -63 2 -105t9.5 -91t21 -80t38 -62.5t59 -48.5t85 -28t115.5 -11q57 0 102.5 7.5t78.5 23.5t57.5 35.5t40.5 51t26 61t15 73.5t6.5 81.5t1.5 92.5v668h297v-795q0 -139 -29.5 -237.5t-99.5 -172.5t-193 -110.5t-303 -36.5z" />
    <glyph glyph-name="V.sc" horiz-adv-x="1619" 
d="M655 0l-610 1323h328l436 -987l436 987h328l-608 -1323h-310z" />
    <glyph glyph-name="W.sc" horiz-adv-x="2318" 
d="M465 0l-420 1323h328l264 -987l338 987h364l340 -987l265 987h327l-420 -1323h-327l-367 1020l-366 -1020h-326z" />
    <glyph glyph-name="Wacute.sc" horiz-adv-x="2318" 
d="M1468 1804l-370 -358h-252l244 358h378zM465 0l-420 1323h328l264 -987l338 987h364l340 -987l265 987h327l-420 -1323h-327l-367 1020l-366 -1020h-326z" />
    <glyph glyph-name="Wcircumflex.sc" horiz-adv-x="2318" 
d="M1589 1446h-235l-197 215l-199 -215h-235l266 358h334zM465 0l-420 1323h328l264 -987l338 987h364l340 -987l265 987h327l-420 -1323h-327l-367 1020l-366 -1020h-326z" />
    <glyph glyph-name="Wdieresis.sc" horiz-adv-x="2318" 
d="M834 1565v239h245v-239h-245zM1237 1565v239h246v-239h-246zM465 0l-420 1323h328l264 -987l338 987h364l340 -987l265 987h327l-420 -1323h-327l-367 1020l-366 -1020h-326z" />
    <glyph glyph-name="Wgrave.sc" horiz-adv-x="2318" 
d="M846 1804h379l243 -358h-249zM465 0l-420 1323h328l264 -987l338 987h364l340 -987l265 987h327l-420 -1323h-327l-367 1020l-366 -1020h-326z" />
    <glyph glyph-name="X.sc" horiz-adv-x="1533" 
d="M1468 0h-346l-356 453l-354 -453h-346l522 668l-488 655h346l320 -430l321 430h347l-488 -655z" />
    <glyph glyph-name="Y.sc" horiz-adv-x="1482" 
d="M594 0v463l-537 860h330l354 -600l355 600h327l-534 -860v-463h-295z" />
    <glyph glyph-name="Yacute.sc" horiz-adv-x="1482" 
d="M1053 1804l-371 -358h-252l244 358h379zM594 0v463l-537 860h330l354 -600l355 600h327l-534 -860v-463h-295z" />
    <glyph glyph-name="Ycircumflex.sc" horiz-adv-x="1482" 
d="M1174 1446h-236l-197 215l-198 -215h-236l266 358h334zM594 0v463l-537 860h330l354 -600l355 600h327l-534 -860v-463h-295z" />
    <glyph glyph-name="Ydieresis.sc" horiz-adv-x="1482" 
d="M414 1565v239h245v-239h-245zM817 1565v239h246v-239h-246zM594 0v463l-537 860h330l354 -600l355 600h327l-534 -860v-463h-295z" />
    <glyph glyph-name="Ygrave.sc" horiz-adv-x="1482" 
d="M430 1804h379l244 -358h-250zM594 0v463l-537 860h330l354 -600l355 600h327l-534 -860v-463h-295z" />
    <glyph glyph-name="Z.sc" horiz-adv-x="1472" 
d="M496 291h870v-291h-1247v291l801 741h-781v291h1155l2 -291z" />
    <glyph glyph-name="Zacute.sc" horiz-adv-x="1472" 
d="M1053 1804l-371 -358h-252l244 358h379zM496 291h870v-291h-1247v291l801 741h-781v291h1155l2 -291z" />
    <glyph glyph-name="Zcaron.sc" horiz-adv-x="1472" 
d="M1174 1804l-267 -358h-334l-266 358h236l200 -215l195 215h236zM496 291h870v-291h-1247v291l801 741h-781v291h1155l2 -291z" />
    <glyph glyph-name="Zdotaccent.sc" horiz-adv-x="1472" 
d="M741 1483q-76 0 -130 52t-54 128q0 72 54.5 123t129.5 51q77 0 133 -51t56 -123q0 -76 -56 -128t-133 -52zM496 291h870v-291h-1247v291l801 741h-781v291h1155l2 -291z" />
    <glyph glyph-name="a.dnom" horiz-adv-x="999" 
d="M371 -633q-160 0 -238 72t-78 180q0 123 109 197q127 84 454 84h56v43q0 139 -164 139q-90 0 -131 -33.5t-45 -79.5h-232q2 59 21.5 107.5t63.5 91.5t127.5 67.5t199.5 24.5q199 0 301.5 -86t102.5 -287v-288v-111v-109h-230v127h-2q-103 -139 -315 -139zM455 -469
q104 0 162.5 43.5t58.5 89.5v100h-64q-313 0 -313 -131q0 -102 156 -102z" />
    <glyph glyph-name="b.dnom" horiz-adv-x="1103" 
d="M625 260q186 0 298.5 -122.5t112.5 -323.5q0 -204 -112.5 -329.5t-296.5 -125.5q-83 0 -165 34t-126 89v-96h-236v1228h242v-483q51 60 127 94.5t156 34.5zM573 -449q102 0 165 71t63 188t-63.5 188.5t-166.5 71.5q-104 0 -166.5 -63t-62.5 -167v-67q0 -100 63 -161
t168 -61z" />
    <glyph glyph-name="c.dnom" horiz-adv-x="1026" 
d="M522 -641q-213 0 -333.5 125.5t-120.5 327.5t120 325t332 123q187 0 308.5 -96.5t132.5 -253.5h-236q-15 80 -66.5 120t-132.5 40q-106 0 -163.5 -67t-57.5 -191q0 -125 58 -194t163 -69q79 0 132 43.5t67 114.5h236q-11 -147 -129.5 -247.5t-309.5 -100.5z" />
    <glyph glyph-name="d.dnom" horiz-adv-x="1105" 
d="M768 614h242v-1228h-236v96q-45 -55 -126.5 -89t-164.5 -34q-184 0 -297.5 125.5t-113.5 329.5q0 201 113 323.5t300 122.5q81 0 155.5 -34.5t127.5 -94.5v483zM768 -217v65q0 100 -62 161t-165 61q-105 0 -167.5 -70.5t-62.5 -187.5t63 -189t167 -72q103 0 165 64
t62 168z" />
    <glyph glyph-name="e.dnom" horiz-adv-x="1026" 
d="M522 -641q-213 0 -333.5 125.5t-120.5 325.5q0 202 120 326t328 124q195 0 320 -110.5t125 -301.5v-102h-652q11 -93 67 -145t152 -52q77 0 129.5 34.5t67.5 82.5h236q-5 -56 -38 -110t-87.5 -98.5t-136.5 -71.5t-177 -27zM311 -106h412q0 83 -57.5 129.5t-147.5 46.5
q-91 0 -149 -46t-58 -130z" />
    <glyph glyph-name="f.dnom" horiz-adv-x="620" 
d="M160 -614v634h-115v216h115v98q0 307 305 307q102 0 137 -10v-193q-30 6 -57 6q-144 0 -144 -112v-96h189v-216h-189v-634h-241z" />
    <glyph glyph-name="g.dnom" horiz-adv-x="1085" 
d="M768 236h240v-738q0 -268 -109 -385t-330 -117q-195 0 -313 77.5t-150 228.5h234q19 -58 76 -90.5t141 -32.5q113 0 161 58.5t50 193.5v59q-106 -131 -285 -131q-188 0 -299.5 126.5t-111.5 330.5q0 196 105 320t294 124q193 0 297 -135v111zM768 -217v65
q0 105 -65 163.5t-166 58.5q-110 0 -173 -67t-63 -191t64 -192.5t174 -68.5q102 0 165.5 60t63.5 172z" />
    <glyph glyph-name="h.dnom" horiz-adv-x="1087" 
d="M100 -614v1228h242v-508q99 154 307 154q163 0 253.5 -91.5t90.5 -256.5v-526h-241v432q0 252 -185 252q-97 0 -161 -72t-64 -191v-421h-242z" />
    <glyph glyph-name="i.dnom" horiz-adv-x="454" 
d="M100 387v227h254v-227h-254zM106 -614v850h242v-850h-242z" />
    <glyph glyph-name="j.dnom" horiz-adv-x="473" 
d="M123 387v227h256v-227h-256zM76 -1004q-42 0 -78.5 3t-51.5 5l-16 3v178q19 -4 58 -4q141 0 141 133v922h242v-963q0 -127 -74 -202t-221 -75z" />
    <glyph glyph-name="k.dnom" horiz-adv-x="886" 
d="M870 -612h-252l-276 315v-317h-242v1228h242v-751l254 373h252l-307 -424z" />
    <glyph glyph-name="l.dnom" horiz-adv-x="440" 
d="M100 -614v1228h242v-1228h-242z" />
    <glyph glyph-name="m.dnom" horiz-adv-x="1767" 
d="M1319 260q163 0 250.5 -92t87.5 -272v-510h-242v440q0 244 -176 244q-104 0 -168.5 -71.5t-64.5 -191.5v-421h-242v440q0 244 -178 244q-103 0 -167.5 -71.5t-64.5 -191.5v-421h-241v850h241v-130q101 154 312 154q229 0 305 -172q125 172 348 172z" />
    <glyph glyph-name="n.dnom" horiz-adv-x="1116" 
d="M113 -614v850h241v-130q99 154 310 154q161 0 251.5 -95t90.5 -261v-518h-242v432q0 252 -184 252q-97 0 -161.5 -72t-64.5 -191v-421h-241z" />
    <glyph glyph-name="o.dnom" horiz-adv-x="1071" 
d="M537 -641q-212 0 -340.5 127t-128.5 326q0 200 128 324t341 124q214 0 340.5 -124t126.5 -324t-127 -326.5t-340 -126.5zM537 -451q107 0 169 69t62 194q0 123 -62 190.5t-169 67.5q-108 0 -170 -67.5t-62 -190.5q0 -125 62 -194t170 -69z" />
    <glyph glyph-name="p.dnom" horiz-adv-x="1116" 
d="M637 260q186 0 299 -122.5t113 -323.5q0 -204 -113 -329.5t-297 -125.5q-82 0 -160.5 34t-124.5 89v-486h-241v1240h237v-105q51 59 129 94t158 35zM586 -449q102 0 164.5 71t62.5 188t-63 188.5t-166 71.5q-104 0 -167 -63t-63 -167v-67q0 -100 63.5 -161t168.5 -61z
" />
    <glyph glyph-name="q.dnom" horiz-adv-x="1134" 
d="M768 236h236v-1240h-240v486q-45 -55 -125 -89t-160 -34q-186 0 -298.5 125.5t-112.5 329.5q0 201 112.5 323.5t298.5 122.5q82 0 160 -34.5t129 -94.5v105zM764 -217v65q0 100 -64 161t-168 61q-103 0 -165 -70.5t-62 -187.5t63 -189t167 -72q103 0 166 64t63 168z" />
    <glyph glyph-name="r.dnom" horiz-adv-x="688" 
d="M106 -614v850h232v-154q59 108 160 147q69 27 178 27v-244h-31q-141 0 -220 -79.5t-79 -213.5v-333h-240z" />
    <glyph glyph-name="s.dnom" horiz-adv-x="915" 
d="M487 -641q-197 0 -306.5 82t-123.5 223h228q33 -127 198 -127q63 0 98 22t35 64q0 17 -10 31.5t-22.5 23.5t-39.5 19t-43.5 15t-51.5 14q-64 17 -111 33t-94 40t-77 51.5t-49 67.5t-20 88q0 66 30 116t81.5 79.5t114.5 44t135 14.5q175 0 271 -76t104 -209h-232
q-7 58 -50.5 84.5t-102.5 26.5q-48 0 -89 -19t-41 -59q0 -10 3 -19t10 -17t14.5 -14.5t22 -13t25.5 -11.5t32 -12t36 -11.5t42 -12.5t45 -14q135 -42 182 -67q119 -64 119 -185q0 -134 -96 -203t-267 -69z" />
    <glyph glyph-name="t.dnom" horiz-adv-x="669" 
d="M463 -631q-165 1 -237 70t-72 207v374h-113v193q73 0 99 31t26 104v105h229v-217h193v-216h-193v-305q0 -71 36 -97t118 -26h59v-215q-90 -8 -145 -8z" />
    <glyph glyph-name="u.dnom" horiz-adv-x="1107" 
d="M424 -641q-164 0 -252 93t-88 274v510h242v-441q0 -246 178 -246q102 0 166.5 72.5t64.5 192.5v422h242v-850h-242v135q-103 -162 -311 -162z" />
    <glyph glyph-name="v.dnom" horiz-adv-x="983" 
d="M371 -614l-355 850h252l189 -517l32 -88h5l30 88l189 517h252l-355 -850h-239z" />
    <glyph glyph-name="w.dnom" horiz-adv-x="1615" 
d="M371 -614l-355 850h252l221 -605h5l202 605h224l202 -605h4l220 605h253l-354 -850h-239l-195 612h-6l-195 -612h-239z" />
    <glyph glyph-name="x.dnom" horiz-adv-x="899" 
d="M883 236l-285 -424l285 -424h-248l-184 280l-187 -280h-248l283 424l-283 424h248l180 -287l191 287h248z" />
    <glyph glyph-name="y.dnom" horiz-adv-x="983" 
d="M217 -1004l154 392l-355 848h252l193 -525l28 -82h5l28 82l191 525h252l-332 -793l-174 -447h-242z" />
    <glyph glyph-name="z.dnom" horiz-adv-x="995" 
d="M334 -422h608v-192h-876v192l567 465h-557v193h825l2 -193z" />
    <glyph glyph-name="a.numr" horiz-adv-x="999" 
d="M371 688q-160 0 -238 72t-78 180q0 123 109 197q127 84 454 84h56v43q0 139 -164 139q-90 0 -131 -33.5t-45 -79.5h-232q2 59 21.5 107.5t63.5 91.5t127.5 67.5t199.5 24.5q199 0 301.5 -86t102.5 -287v-288v-111v-109h-230v127h-2q-103 -139 -315 -139zM455 852
q104 0 162.5 43.5t58.5 89.5v100h-64q-313 0 -313 -131q0 -102 156 -102z" />
    <glyph glyph-name="b.numr" horiz-adv-x="1103" 
d="M625 1581q186 0 298.5 -122.5t112.5 -323.5q0 -204 -112.5 -329.5t-296.5 -125.5q-83 0 -165 34t-126 89v-96h-236v1228h242v-483q51 60 127 94.5t156 34.5zM573 872q102 0 165 71t63 187q0 117 -63.5 189t-166.5 72q-104 0 -166.5 -63t-62.5 -167v-67q0 -100 63 -161
t168 -61z" />
    <glyph glyph-name="c.numr" horiz-adv-x="1026" 
d="M522 680q-213 0 -333.5 125.5t-120.5 327.5t120 325t332 123q187 0 308.5 -96.5t132.5 -253.5h-236q-15 80 -66.5 120t-132.5 40q-106 0 -163.5 -67t-57.5 -191q0 -125 58 -194t163 -69q79 0 132 43.5t67 114.5h236q-11 -147 -129.5 -247.5t-309.5 -100.5z" />
    <glyph glyph-name="d.numr" horiz-adv-x="1105" 
d="M768 1935h242v-1228h-236v96q-45 -55 -126.5 -89t-164.5 -34q-184 0 -297.5 125.5t-113.5 329.5q0 201 113 323.5t300 122.5q81 0 155.5 -34.5t127.5 -94.5v483zM768 1104v65q0 100 -62 161t-165 61q-105 0 -167.5 -70.5t-62.5 -187.5t63 -189t167 -72q103 0 165 64
t62 168z" />
    <glyph glyph-name="e.numr" horiz-adv-x="1026" 
d="M522 680q-213 0 -333.5 125t-120.5 325q0 203 120 327t328 124q195 0 320 -110.5t125 -301.5v-102h-652q11 -93 67 -145t152 -52q77 0 129.5 34.5t67.5 82.5h236q-5 -56 -38 -110t-87.5 -98.5t-136.5 -71.5t-177 -27zM311 1214h412q0 84 -57.5 130.5t-147.5 46.5
q-91 0 -149 -46.5t-58 -130.5z" />
    <glyph glyph-name="f.numr" horiz-adv-x="620" 
d="M160 707v634h-115v215h115v99q0 307 305 307q102 0 137 -10v-193q-30 6 -57 6q-144 0 -144 -112v-97h189v-215h-189v-634h-241z" />
    <glyph glyph-name="g.numr" horiz-adv-x="1085" 
d="M768 1556h240v-737q0 -268 -109 -385t-330 -117q-195 0 -313 77.5t-150 228.5h234q19 -58 76 -90.5t141 -32.5q113 0 161 58.5t50 193.5v59q-106 -131 -285 -131q-188 0 -299.5 126.5t-111.5 330.5q0 196 105 320t294 124q193 0 297 -135v110zM768 1104v65
q0 105 -65 163.5t-166 58.5q-110 0 -173 -67t-63 -191t64 -192.5t174 -68.5q102 0 165.5 60t63.5 172z" />
    <glyph glyph-name="h.numr" horiz-adv-x="1087" 
d="M100 707v1228h242v-508q99 154 307 154q163 0 253.5 -91.5t90.5 -256.5v-526h-241v432q0 252 -185 252q-97 0 -161 -72t-64 -191v-421h-242z" />
    <glyph glyph-name="i.numr" horiz-adv-x="454" 
d="M100 1708v227h254v-227h-254zM106 707v849h242v-849h-242z" />
    <glyph glyph-name="j.numr" horiz-adv-x="477" 
d="M123 1708v227h256v-227h-256zM76 317q-42 0 -78.5 2.5t-51.5 5.5l-16 3v178q19 -4 58 -4q141 0 141 133v921h242v-962q0 -127 -74 -202t-221 -75z" />
    <glyph glyph-name="k.numr" horiz-adv-x="886" 
d="M870 709h-252l-276 315v-317h-242v1228h242v-751l254 372h252l-307 -423z" />
    <glyph glyph-name="l.numr" horiz-adv-x="440" 
d="M100 707v1228h242v-1228h-242z" />
    <glyph glyph-name="m.numr" horiz-adv-x="1767" 
d="M1319 1581q163 0 250.5 -92t87.5 -272v-510h-242v440q0 244 -176 244q-104 0 -168.5 -71.5t-64.5 -191.5v-421h-242v440q0 244 -178 244q-103 0 -167.5 -71.5t-64.5 -191.5v-421h-241v849h241v-129q101 154 312 154q229 0 305 -172q125 172 348 172z" />
    <glyph glyph-name="n.numr" horiz-adv-x="1116" 
d="M113 707v849h241v-129q99 154 310 154q161 0 251.5 -95t90.5 -261v-518h-242v432q0 252 -184 252q-97 0 -161.5 -72t-64.5 -191v-421h-241z" />
    <glyph glyph-name="o.numr" horiz-adv-x="1071" 
d="M537 680q-212 0 -340.5 127t-128.5 326q0 200 128 324t341 124q214 0 340.5 -124t126.5 -324t-127 -326.5t-340 -126.5zM537 870q107 0 169 69t62 194q0 123 -62 190.5t-169 67.5q-108 0 -170 -67.5t-62 -190.5q0 -125 62 -194t170 -69z" />
    <glyph glyph-name="p.numr" horiz-adv-x="1116" 
d="M637 1581q186 0 299 -122.5t113 -323.5q0 -204 -113 -329.5t-297 -125.5q-82 0 -160.5 34t-124.5 89v-486h-241v1239h237v-104q51 59 129 94t158 35zM586 872q102 0 164.5 70.5t62.5 187.5t-63 189t-166 72q-104 0 -167 -63t-63 -167v-67q0 -100 63.5 -161t168.5 -61z
" />
    <glyph glyph-name="q.numr" horiz-adv-x="1134" 
d="M768 1556h236v-1239h-240v486q-45 -55 -125 -89t-160 -34q-186 0 -298.5 125.5t-112.5 329.5q0 201 112.5 323.5t298.5 122.5q82 0 160 -34.5t129 -94.5v104zM764 1104v65q0 100 -64 161t-168 61q-103 0 -165 -70.5t-62 -187.5t63 -189t167 -72q103 0 166 64t63 168z" />
    <glyph glyph-name="r.numr" horiz-adv-x="688" 
d="M106 707v849h232v-153q59 108 160 147q69 27 178 27v-244h-31q-141 0 -220 -79.5t-79 -213.5v-333h-240z" />
    <glyph glyph-name="s.numr" horiz-adv-x="915" 
d="M487 680q-197 0 -306.5 82t-123.5 223h228q33 -127 198 -127q63 0 98 22t35 64q0 17 -10 31.5t-22.5 23.5t-39.5 19t-43.5 15t-51.5 14q-64 17 -111 33t-94 40t-77 51.5t-49 67.5t-20 88q0 66 30 116t81.5 79.5t114.5 44t135 14.5q175 0 271 -76t104 -209h-232
q-7 58 -50.5 84.5t-102.5 26.5q-48 0 -89 -19t-41 -59q0 -10 3 -19t10 -17t14.5 -14.5t22 -13t25.5 -11.5t32 -12t36 -11.5t42 -12.5t45 -14q135 -42 182 -67q119 -64 119 -185q0 -134 -96 -203t-267 -69z" />
    <glyph glyph-name="t.numr" horiz-adv-x="669" 
d="M463 690q-165 1 -237 70t-72 207v374h-113v193q73 0 99 31t26 104v105h229v-218h193v-215h-193v-305q0 -71 36 -97t118 -26h59v-215q-90 -8 -145 -8z" />
    <glyph glyph-name="u.numr" horiz-adv-x="1107" 
d="M424 680q-164 0 -252 93t-88 274v509h242v-440q0 -246 178 -246q102 0 166.5 72.5t64.5 192.5v421h242v-849h-242v135q-103 -162 -311 -162z" />
    <glyph glyph-name="v.numr" horiz-adv-x="983" 
d="M371 707l-355 849h252l189 -516l32 -88h5l30 88l189 516h252l-355 -849h-239z" />
    <glyph glyph-name="w.numr" horiz-adv-x="1615" 
d="M371 707l-355 849h252l221 -604h5l202 604h224l202 -604h4l220 604h253l-354 -849h-239l-195 612h-6l-195 -612h-239z" />
    <glyph glyph-name="x.numr" horiz-adv-x="899" 
d="M883 1556l-285 -423l285 -424h-248l-184 280l-187 -280h-248l283 424l-283 423h248l180 -286l191 286h248z" />
    <glyph glyph-name="y.numr" horiz-adv-x="983" 
d="M217 317l154 392l-355 847h252l193 -524l28 -82h5l28 82l191 524h252l-332 -792l-174 -447h-242z" />
    <glyph glyph-name="z.numr" horiz-adv-x="995" 
d="M334 899h608v-192h-876v192l567 465h-557v192h825l2 -192z" />
    <glyph glyph-name="a.subs" horiz-adv-x="999" 
d="M371 -633q-160 0 -238 72t-78 180q0 123 109 197q127 84 454 84h56v43q0 139 -164 139q-90 0 -131 -33.5t-45 -79.5h-232q2 59 21.5 107.5t63.5 91.5t127.5 67.5t199.5 24.5q199 0 301.5 -86t102.5 -287v-288v-111v-109h-230v127h-2q-103 -139 -315 -139zM455 -469
q104 0 162.5 43.5t58.5 89.5v100h-64q-313 0 -313 -131q0 -102 156 -102z" />
    <glyph glyph-name="b.subs" horiz-adv-x="1103" 
d="M625 260q186 0 298.5 -122.5t112.5 -323.5q0 -204 -112.5 -329.5t-296.5 -125.5q-83 0 -165 34t-126 89v-96h-236v1228h242v-483q51 60 127 94.5t156 34.5zM573 -449q102 0 165 71t63 188t-63.5 188.5t-166.5 71.5q-104 0 -166.5 -63t-62.5 -167v-67q0 -100 63 -161
t168 -61z" />
    <glyph glyph-name="c.subs" horiz-adv-x="1026" 
d="M522 -641q-213 0 -333.5 125.5t-120.5 327.5t120 325t332 123q187 0 308.5 -96.5t132.5 -253.5h-236q-15 80 -66.5 120t-132.5 40q-106 0 -163.5 -67t-57.5 -191q0 -125 58 -194t163 -69q79 0 132 43.5t67 114.5h236q-11 -147 -129.5 -247.5t-309.5 -100.5z" />
    <glyph glyph-name="d.subs" horiz-adv-x="1105" 
d="M768 614h242v-1228h-236v96q-45 -55 -126.5 -89t-164.5 -34q-184 0 -297.5 125.5t-113.5 329.5q0 201 113 323.5t300 122.5q81 0 155.5 -34.5t127.5 -94.5v483zM768 -217v65q0 100 -62 161t-165 61q-105 0 -167.5 -70.5t-62.5 -187.5t63 -189t167 -72q103 0 165 64
t62 168z" />
    <glyph glyph-name="e.subs" horiz-adv-x="1026" 
d="M522 -641q-213 0 -333.5 125.5t-120.5 325.5q0 202 120 326t328 124q195 0 320 -110.5t125 -301.5v-102h-652q11 -93 67 -145t152 -52q77 0 129.5 34.5t67.5 82.5h236q-5 -56 -38 -110t-87.5 -98.5t-136.5 -71.5t-177 -27zM311 -106h412q0 83 -57.5 129.5t-147.5 46.5
q-91 0 -149 -46t-58 -130z" />
    <glyph glyph-name="f.subs" horiz-adv-x="620" 
d="M160 -614v634h-115v216h115v98q0 307 305 307q102 0 137 -10v-193q-30 6 -57 6q-144 0 -144 -112v-96h189v-216h-189v-634h-241z" />
    <glyph glyph-name="g.subs" horiz-adv-x="1085" 
d="M768 236h240v-738q0 -268 -109 -385t-330 -117q-195 0 -313 77.5t-150 228.5h234q19 -58 76 -90.5t141 -32.5q113 0 161 58.5t50 193.5v59q-106 -131 -285 -131q-188 0 -299.5 126.5t-111.5 330.5q0 196 105 320t294 124q193 0 297 -135v111zM768 -217v65
q0 105 -65 163.5t-166 58.5q-110 0 -173 -67t-63 -191t64 -192.5t174 -68.5q102 0 165.5 60t63.5 172z" />
    <glyph glyph-name="h.subs" horiz-adv-x="1087" 
d="M100 -614v1228h242v-508q99 154 307 154q163 0 253.5 -91.5t90.5 -256.5v-526h-241v432q0 252 -185 252q-97 0 -161 -72t-64 -191v-421h-242z" />
    <glyph glyph-name="i.subs" horiz-adv-x="454" 
d="M100 387v227h254v-227h-254zM106 -614v850h242v-850h-242z" />
    <glyph glyph-name="j.subs" horiz-adv-x="477" 
d="M123 387v227h256v-227h-256zM76 -1004q-42 0 -78.5 3t-51.5 5l-16 3v178q19 -4 58 -4q141 0 141 133v922h242v-963q0 -127 -74 -202t-221 -75z" />
    <glyph glyph-name="k.subs" horiz-adv-x="886" 
d="M870 -612h-252l-276 315v-317h-242v1228h242v-751l254 373h252l-307 -424z" />
    <glyph glyph-name="l.subs" horiz-adv-x="440" 
d="M100 -614v1228h242v-1228h-242z" />
    <glyph glyph-name="m.subs" horiz-adv-x="1767" 
d="M1319 260q163 0 250.5 -92t87.5 -272v-510h-242v440q0 244 -176 244q-104 0 -168.5 -71.5t-64.5 -191.5v-421h-242v440q0 244 -178 244q-103 0 -167.5 -71.5t-64.5 -191.5v-421h-241v850h241v-130q101 154 312 154q229 0 305 -172q125 172 348 172z" />
    <glyph glyph-name="n.subs" horiz-adv-x="1116" 
d="M113 -614v850h241v-130q99 154 310 154q161 0 251.5 -95t90.5 -261v-518h-242v432q0 252 -184 252q-97 0 -161.5 -72t-64.5 -191v-421h-241z" />
    <glyph glyph-name="o.subs" horiz-adv-x="1071" 
d="M537 -641q-212 0 -340.5 127t-128.5 326q0 200 128 324t341 124q214 0 340.5 -124t126.5 -324t-127 -326.5t-340 -126.5zM537 -451q107 0 169 69t62 194q0 123 -62 190.5t-169 67.5q-108 0 -170 -67.5t-62 -190.5q0 -125 62 -194t170 -69z" />
    <glyph glyph-name="p.subs" horiz-adv-x="1116" 
d="M637 260q186 0 299 -122.5t113 -323.5q0 -204 -113 -329.5t-297 -125.5q-82 0 -160.5 34t-124.5 89v-486h-241v1240h237v-105q51 59 129 94t158 35zM586 -449q102 0 164.5 71t62.5 188t-63 188.5t-166 71.5q-104 0 -167 -63t-63 -167v-67q0 -100 63.5 -161t168.5 -61z
" />
    <glyph glyph-name="q.subs" horiz-adv-x="1134" 
d="M768 236h236v-1240h-240v486q-45 -55 -125 -89t-160 -34q-186 0 -298.5 125.5t-112.5 329.5q0 201 112.5 323.5t298.5 122.5q82 0 160 -34.5t129 -94.5v105zM764 -217v65q0 100 -64 161t-168 61q-103 0 -165 -70.5t-62 -187.5t63 -189t167 -72q103 0 166 64t63 168z" />
    <glyph glyph-name="r.subs" horiz-adv-x="688" 
d="M106 -614v850h232v-154q59 108 160 147q69 27 178 27v-244h-31q-141 0 -220 -79.5t-79 -213.5v-333h-240z" />
    <glyph glyph-name="s.subs" horiz-adv-x="915" 
d="M487 -641q-197 0 -306.5 82t-123.5 223h228q33 -127 198 -127q63 0 98 22t35 64q0 17 -10 31.5t-22.5 23.5t-39.5 19t-43.5 15t-51.5 14q-64 17 -111 33t-94 40t-77 51.5t-49 67.5t-20 88q0 66 30 116t81.5 79.5t114.5 44t135 14.5q175 0 271 -76t104 -209h-232
q-7 58 -50.5 84.5t-102.5 26.5q-48 0 -89 -19t-41 -59q0 -10 3 -19t10 -17t14.5 -14.5t22 -13t25.5 -11.5t32 -12t36 -11.5t42 -12.5t45 -14q135 -42 182 -67q119 -64 119 -185q0 -134 -96 -203t-267 -69z" />
    <glyph glyph-name="t.subs" horiz-adv-x="669" 
d="M463 -631q-165 1 -237 70t-72 207v374h-113v193q73 0 99 31t26 104v105h229v-217h193v-216h-193v-305q0 -71 36 -97t118 -26h59v-215q-90 -8 -145 -8z" />
    <glyph glyph-name="u.subs" horiz-adv-x="1107" 
d="M424 -641q-164 0 -252 93t-88 274v510h242v-441q0 -246 178 -246q102 0 166.5 72.5t64.5 192.5v422h242v-850h-242v135q-103 -162 -311 -162z" />
    <glyph glyph-name="v.subs" horiz-adv-x="983" 
d="M371 -614l-355 850h252l189 -517l32 -88h5l30 88l189 517h252l-355 -850h-239z" />
    <glyph glyph-name="w.subs" horiz-adv-x="1615" 
d="M371 -614l-355 850h252l221 -605h5l202 605h224l202 -605h4l220 605h253l-354 -850h-239l-195 612h-6l-195 -612h-239z" />
    <glyph glyph-name="x.subs" horiz-adv-x="899" 
d="M883 236l-285 -424l285 -424h-248l-184 280l-187 -280h-248l283 424l-283 424h248l180 -287l191 287h248z" />
    <glyph glyph-name="y.subs" horiz-adv-x="983" 
d="M217 -1004l154 392l-355 848h252l193 -525l28 -82h5l28 82l191 525h252l-332 -793l-174 -447h-242z" />
    <glyph glyph-name="z.subs" horiz-adv-x="995" 
d="M334 -422h608v-192h-876v192l567 465h-557v193h825l2 -193z" />
    <glyph glyph-name="a.sups" horiz-adv-x="999" 
d="M371 688q-160 0 -238 72t-78 180q0 123 109 197q127 84 454 84h56v43q0 139 -164 139q-90 0 -131 -33.5t-45 -79.5h-232q2 59 21.5 107.5t63.5 91.5t127.5 67.5t199.5 24.5q199 0 301.5 -86t102.5 -287v-288v-111v-109h-230v127h-2q-103 -139 -315 -139zM455 852
q104 0 162.5 43.5t58.5 89.5v100h-64q-313 0 -313 -131q0 -102 156 -102z" />
    <glyph glyph-name="b.sups" horiz-adv-x="1103" 
d="M625 1581q186 0 298.5 -122.5t112.5 -323.5q0 -204 -112.5 -329.5t-296.5 -125.5q-83 0 -165 34t-126 89v-96h-236v1228h242v-483q51 60 127 94.5t156 34.5zM573 872q102 0 165 71t63 187q0 117 -63.5 189t-166.5 72q-104 0 -166.5 -63t-62.5 -167v-67q0 -100 63 -161
t168 -61z" />
    <glyph glyph-name="c.sups" horiz-adv-x="1026" 
d="M522 680q-213 0 -333.5 125.5t-120.5 327.5t120 325t332 123q187 0 308.5 -96.5t132.5 -253.5h-236q-15 80 -66.5 120t-132.5 40q-106 0 -163.5 -67t-57.5 -191q0 -125 58 -194t163 -69q79 0 132 43.5t67 114.5h236q-11 -147 -129.5 -247.5t-309.5 -100.5z" />
    <glyph glyph-name="d.sups" horiz-adv-x="1105" 
d="M768 1935h242v-1228h-236v96q-45 -55 -126.5 -89t-164.5 -34q-184 0 -297.5 125.5t-113.5 329.5q0 201 113 323.5t300 122.5q81 0 155.5 -34.5t127.5 -94.5v483zM768 1104v65q0 100 -62 161t-165 61q-105 0 -167.5 -70.5t-62.5 -187.5t63 -189t167 -72q103 0 165 64
t62 168z" />
    <glyph glyph-name="e.sups" horiz-adv-x="1026" 
d="M522 680q-213 0 -333.5 125t-120.5 325q0 203 120 327t328 124q195 0 320 -110.5t125 -301.5v-102h-652q11 -93 67 -145t152 -52q77 0 129.5 34.5t67.5 82.5h236q-5 -56 -38 -110t-87.5 -98.5t-136.5 -71.5t-177 -27zM311 1214h412q0 84 -57.5 130.5t-147.5 46.5
q-91 0 -149 -46.5t-58 -130.5z" />
    <glyph glyph-name="f.sups" horiz-adv-x="620" 
d="M160 707v634h-115v215h115v99q0 307 305 307q102 0 137 -10v-193q-30 6 -57 6q-144 0 -144 -112v-97h189v-215h-189v-634h-241z" />
    <glyph glyph-name="g.sups" horiz-adv-x="1085" 
d="M768 1556h240v-737q0 -268 -109 -385t-330 -117q-195 0 -313 77.5t-150 228.5h234q19 -58 76 -90.5t141 -32.5q113 0 161 58.5t50 193.5v59q-106 -131 -285 -131q-188 0 -299.5 126.5t-111.5 330.5q0 196 105 320t294 124q193 0 297 -135v110zM768 1104v65
q0 105 -65 163.5t-166 58.5q-110 0 -173 -67t-63 -191t64 -192.5t174 -68.5q102 0 165.5 60t63.5 172z" />
    <glyph glyph-name="h.sups" horiz-adv-x="1087" 
d="M100 707v1228h242v-508q99 154 307 154q163 0 253.5 -91.5t90.5 -256.5v-526h-241v432q0 252 -185 252q-97 0 -161 -72t-64 -191v-421h-242z" />
    <glyph glyph-name="i.sups" horiz-adv-x="454" 
d="M100 1708v227h254v-227h-254zM106 707v849h242v-849h-242z" />
    <glyph glyph-name="j.sups" horiz-adv-x="477" 
d="M123 1708v227h256v-227h-256zM76 317q-42 0 -78.5 2.5t-51.5 5.5l-16 3v178q19 -4 58 -4q141 0 141 133v921h242v-962q0 -127 -74 -202t-221 -75z" />
    <glyph glyph-name="k.sups" horiz-adv-x="886" 
d="M870 709h-252l-276 315v-317h-242v1228h242v-751l254 372h252l-307 -423z" />
    <glyph glyph-name="l.sups" horiz-adv-x="440" 
d="M100 707v1228h242v-1228h-242z" />
    <glyph glyph-name="m.sups" horiz-adv-x="1767" 
d="M1319 1581q163 0 250.5 -92t87.5 -272v-510h-242v440q0 244 -176 244q-104 0 -168.5 -71.5t-64.5 -191.5v-421h-242v440q0 244 -178 244q-103 0 -167.5 -71.5t-64.5 -191.5v-421h-241v849h241v-129q101 154 312 154q229 0 305 -172q125 172 348 172z" />
    <glyph glyph-name="n.sups" horiz-adv-x="1116" 
d="M113 707v849h241v-129q99 154 310 154q161 0 251.5 -95t90.5 -261v-518h-242v432q0 252 -184 252q-97 0 -161.5 -72t-64.5 -191v-421h-241z" />
    <glyph glyph-name="o.sups" horiz-adv-x="1071" 
d="M537 680q-212 0 -340.5 127t-128.5 326q0 200 128 324t341 124q214 0 340.5 -124t126.5 -324t-127 -326.5t-340 -126.5zM537 870q107 0 169 69t62 194q0 123 -62 190.5t-169 67.5q-108 0 -170 -67.5t-62 -190.5q0 -125 62 -194t170 -69z" />
    <glyph glyph-name="p.sups" horiz-adv-x="1116" 
d="M637 1581q186 0 299 -122.5t113 -323.5q0 -204 -113 -329.5t-297 -125.5q-82 0 -160.5 34t-124.5 89v-486h-241v1239h237v-104q51 59 129 94t158 35zM586 872q102 0 164.5 70.5t62.5 187.5t-63 189t-166 72q-104 0 -167 -63t-63 -167v-67q0 -100 63.5 -161t168.5 -61z
" />
    <glyph glyph-name="q.sups" horiz-adv-x="1134" 
d="M768 1556h236v-1239h-240v486q-45 -55 -125 -89t-160 -34q-186 0 -298.5 125.5t-112.5 329.5q0 201 112.5 323.5t298.5 122.5q82 0 160 -34.5t129 -94.5v104zM764 1104v65q0 100 -64 161t-168 61q-103 0 -165 -70.5t-62 -187.5t63 -189t167 -72q103 0 166 64t63 168z" />
    <glyph glyph-name="r.sups" horiz-adv-x="688" 
d="M106 707v849h232v-153q59 108 160 147q69 27 178 27v-244h-31q-141 0 -220 -79.5t-79 -213.5v-333h-240z" />
    <glyph glyph-name="s.sups" horiz-adv-x="915" 
d="M487 680q-197 0 -306.5 82t-123.5 223h228q33 -127 198 -127q63 0 98 22t35 64q0 17 -10 31.5t-22.5 23.5t-39.5 19t-43.5 15t-51.5 14q-64 17 -111 33t-94 40t-77 51.5t-49 67.5t-20 88q0 66 30 116t81.5 79.5t114.5 44t135 14.5q175 0 271 -76t104 -209h-232
q-7 58 -50.5 84.5t-102.5 26.5q-48 0 -89 -19t-41 -59q0 -10 3 -19t10 -17t14.5 -14.5t22 -13t25.5 -11.5t32 -12t36 -11.5t42 -12.5t45 -14q135 -42 182 -67q119 -64 119 -185q0 -134 -96 -203t-267 -69z" />
    <glyph glyph-name="t.sups" horiz-adv-x="669" 
d="M463 690q-165 1 -237 70t-72 207v374h-113v193q73 0 99 31t26 104v105h229v-218h193v-215h-193v-305q0 -71 36 -97t118 -26h59v-215q-90 -8 -145 -8z" />
    <glyph glyph-name="u.sups" horiz-adv-x="1107" 
d="M424 680q-164 0 -252 93t-88 274v509h242v-440q0 -246 178 -246q102 0 166.5 72.5t64.5 192.5v421h242v-849h-242v135q-103 -162 -311 -162z" />
    <glyph glyph-name="v.sups" horiz-adv-x="983" 
d="M371 707l-355 849h252l189 -516l32 -88h5l30 88l189 516h252l-355 -849h-239z" />
    <glyph glyph-name="w.sups" horiz-adv-x="1615" 
d="M371 707l-355 849h252l221 -604h5l202 604h224l202 -604h4l220 604h253l-354 -849h-239l-195 612h-6l-195 -612h-239z" />
    <glyph glyph-name="x.sups" horiz-adv-x="899" 
d="M883 1556l-285 -423l285 -424h-248l-184 280l-187 -280h-248l283 424l-283 423h248l180 -286l191 286h248z" />
    <glyph glyph-name="y.sups" horiz-adv-x="983" 
d="M217 317l154 392l-355 847h252l193 -524l28 -82h5l28 82l191 524h252l-332 -792l-174 -447h-242z" />
    <glyph glyph-name="z.sups" horiz-adv-x="995" 
d="M334 899h608v-192h-876v192l567 465h-557v192h825l2 -192z" />
    <glyph glyph-name="zero.lf" horiz-adv-x="1638" 
d="M819 -33q-179 0 -320.5 62t-232 172t-137.5 256.5t-47 320.5t47 320.5t137.5 256.5t232 172t320.5 62q180 0 321.5 -62t231 -172t136 -256.5t46.5 -320.5t-46.5 -320.5t-136 -256.5t-231 -172t-321.5 -62zM819 236q136 0 232 72t141 192t45 278t-45 278.5t-141 192.5
t-232 72t-231.5 -72t-141 -193t-45.5 -278t45.5 -277.5t141 -192.5t231.5 -72z" />
    <glyph glyph-name="one.lf" horiz-adv-x="1638" 
d="M971 303h583v-303h-1472v303h588v950h-510v303h811v-1253z" />
    <glyph glyph-name="two.lf" horiz-adv-x="1638" 
d="M156 -2v305q431 226 714 418q75 53 123.5 92.5t94 86.5t67 94t21.5 96q0 107 -93.5 169t-273.5 62q-202 0 -307 -82t-105 -240q0 -88 21 -163h-318q-18 85 -18 168q0 100 25 185.5t81.5 160t140.5 127t208.5 82.5t279.5 30q173 0 304.5 -37t211 -103t119 -152t39.5 -191
q0 -147 -86 -274t-297 -271q-171 -118 -461 -258h907v-305h-1398z" />
    <glyph glyph-name="three.lf" horiz-adv-x="1732" 
d="M784 -33q-310 0 -495 112t-228 322h324q60 -168 399 -168q127 0 218 21t139 58.5t69 79.5t21 93q0 265 -559 265h-207v229l618 295h-895v282h1272v-323l-583 -272l8 -3q192 0 337 -52.5t228.5 -158.5t83.5 -253q0 -53 -11 -104t-37 -104t-65 -99.5t-99.5 -87t-136 -69.5
t-178.5 -46t-223 -17z" />
    <glyph glyph-name="four.lf" horiz-adv-x="1732" 
d="M1534 594v-303h-332v-291h-301v291h-840v323l639 942h342l-639 -962h498v340h301v-340h332z" />
    <glyph glyph-name="five.lf" horiz-adv-x="1732" 
d="M786 -33q-324 0 -516.5 121.5t-208.5 312.5h326q7 -57 65 -96.5t140.5 -56.5t181.5 -17q117 0 207 25.5t143 70t79 99t26 117.5q0 129 -107.5 216t-308.5 87q-155 0 -254 -54.5t-145 -134.5h-338l262 899h1008v-282h-797l-100 -320q134 140 421 140q167 0 296.5 -44.5
t208.5 -122t119 -176.5t40 -214q0 -92 -24.5 -173t-81 -155t-141 -127t-213 -84t-288.5 -31z" />
    <glyph glyph-name="six.lf" horiz-adv-x="1732" 
d="M809 -33q-226 0 -393 87t-261 262t-94 421q0 183 52 338.5t148 270t241.5 179t324.5 64.5q253 0 420 -114t193 -299h-318q-17 70 -102 115.5t-201 45.5q-193 0 -302.5 -127t-127.5 -344q72 98 209.5 156.5t306.5 58.5q181 0 324 -67t224 -190.5t81 -282.5
q0 -258 -199 -416t-526 -158zM807 231q178 0 287.5 83t109.5 218t-109.5 218.5t-287.5 83.5t-285.5 -82.5t-107.5 -219.5q0 -136 107 -218.5t286 -82.5z" />
    <glyph glyph-name="seven.lf" horiz-adv-x="1732" 
d="M336 0l833 1253h-1108v303h1473v-313l-848 -1243h-350z" />
    <glyph glyph-name="eight.lf" horiz-adv-x="1732" 
d="M799 -33q-162 0 -291 28.5t-211 74.5t-136.5 109t-77 128t-22.5 135q0 147 89 253t233 139q-113 38 -176.5 125t-63.5 206q0 66 21 126t70.5 115t123.5 95t187 64t254 24t254 -24t187 -64t123.5 -94.5t71 -114t21.5 -125.5q0 -120 -64 -207.5t-178 -125.5
q142 -33 231 -137t89 -255q0 -58 -16 -113t-49.5 -109t-92 -99t-137 -80t-191.5 -54.5t-249 -19.5zM797 956q166 0 248.5 56.5t82.5 140.5t-82.5 139.5t-248.5 55.5q-165 0 -247.5 -56t-82.5 -139q0 -84 83 -140.5t247 -56.5zM797 229q110 0 191.5 19.5t127 53t67 72.5
t21.5 85q0 44 -20.5 81.5t-65 70.5t-127 52t-194.5 19t-194.5 -19t-127 -52t-65.5 -70.5t-21 -81.5q0 -97 98.5 -163.5t309.5 -66.5z" />
    <glyph glyph-name="nine.lf" horiz-adv-x="1732" 
d="M752 -33q-289 0 -468.5 112.5t-207.5 297.5h317q17 -68 120 -113t237 -45q217 0 337 124t125 333q-65 -87 -207 -141t-307 -54q-272 0 -446 149t-174 390q0 255 194 412t504 157q347 0 552.5 -205t205.5 -575q0 -249 -95.5 -439.5t-273.5 -296.5t-413 -106zM784 727
q180 0 293 83t113 218q0 133 -112 215t-294 82q-179 0 -286 -81.5t-107 -215.5q0 -136 107 -218.5t286 -82.5z" />
    <glyph glyph-name="zero.osf" horiz-adv-x="1460" 
d="M735 -33q-281 0 -451.5 166t-170.5 440q0 292 169.5 470t446.5 178q278 0 448.5 -178t170.5 -470q0 -273 -168.5 -439.5t-444.5 -166.5zM727 250q140 0 224.5 90.5t84.5 239.5q0 163 -84.5 261.5t-222.5 98.5t-222.5 -98.5t-84.5 -261.5q0 -149 84 -239.5t221 -90.5z" />
    <glyph glyph-name="one.osf" horiz-adv-x="1107" 
d="M727 303h305v-303h-913v303h315v582l-272 -152v322l272 164h293v-916z" />
    <glyph glyph-name="two.osf" horiz-adv-x="1396" 
d="M176 0v262q17 9 89 46.5t96.5 50.5t85 44.5t92 49.5t77.5 44t81 48t67 43q91 60 137.5 114.5t46.5 110.5q0 65 -63.5 111.5t-190.5 46.5q-78 0 -134.5 -19.5t-87.5 -54.5t-44.5 -77t-13.5 -93h-297q0 222 154.5 358t428.5 136q252 0 396.5 -110.5t144.5 -279.5
q0 -191 -225 -352q-129 -94 -387 -217h657v-262h-1110z" />
    <glyph glyph-name="three.osf" horiz-adv-x="1302" 
d="M131 -367v256h184q572 0 572 265q0 241 -461 241h-156v209l512 344h-714v273h1060v-283l-495 -330v-4q118 0 219.5 -28t178.5 -82.5t121 -141.5t44 -198q0 -125 -42.5 -218t-137.5 -162.5t-256.5 -105t-388.5 -35.5h-240z" />
    <glyph glyph-name="four.osf" horiz-adv-x="1392" 
d="M1313 293v-293h-170v-362h-301v362h-762v272l721 949h342v-928h170zM403 293h439v518z" />
    <glyph glyph-name="five.osf" horiz-adv-x="1474" 
d="M721 -369q-275 0 -453.5 115.5t-193.5 296.5h321q7 -52 58.5 -89.5t120.5 -54t143 -16.5q170 0 263 89.5t93 215.5q0 125 -93.5 211t-246.5 86q-112 0 -195.5 -53.5t-121.5 -142.5h-305l241 932h871v-293h-662l-96 -303q59 52 151.5 85t206.5 33q127 0 233 -43.5
t175.5 -118.5t108 -174.5t38.5 -211.5q0 -89 -22.5 -169.5t-73.5 -153t-126 -125.5t-186.5 -84.5t-248.5 -31.5z" />
    <glyph glyph-name="six.osf" horiz-adv-x="1593" 
d="M825 -33q-174 0 -306.5 53.5t-216.5 153.5t-126.5 238t-42.5 311q0 141 27 268t84.5 237t142 189.5t207 125.5t270.5 46q124 0 225 -34.5t165.5 -92.5t102 -128.5t46.5 -147.5h-318q-15 69 -82 110t-159 41q-86 0 -159.5 -40.5t-123.5 -109.5t-81.5 -156t-41.5 -185
q71 106 202 160.5t275 54.5q136 0 247.5 -45t181.5 -119.5t107.5 -167.5t37.5 -194q0 -83 -23.5 -162.5t-76 -153.5t-128.5 -129.5t-188.5 -89t-247.5 -33.5zM823 231q157 0 255 85t98 212q0 121 -95.5 203t-257.5 82q-160 0 -256 -81.5t-96 -203.5q0 -126 97.5 -211.5
t254.5 -85.5z" />
    <glyph glyph-name="seven.osf" horiz-adv-x="1257" 
d="M182 -334l654 1254h-764v303h1099v-303l-647 -1254h-342z" />
    <glyph glyph-name="eight.osf" horiz-adv-x="1634" 
d="M750 -35q-153 0 -276.5 28.5t-202.5 75t-132.5 109.5t-75.5 128.5t-22 135.5q0 149 88.5 254t235.5 138q-115 41 -178.5 126.5t-63.5 198.5q0 65 21 125t69.5 116t119.5 97t178.5 65.5t238.5 24.5q133 0 241 -24.5t179 -65t119 -95.5t68.5 -114t20.5 -123
q0 -116 -64 -203t-181 -128q146 -33 235.5 -136.5t89.5 -255.5q0 -70 -21.5 -135.5t-73.5 -128.5t-131 -109.5t-203 -75t-279 -28.5zM748 954q151 0 229 55.5t78 139.5t-78 140.5t-229 56.5q-152 0 -232 -56.5t-80 -140.5t80 -139.5t232 -55.5zM748 229q191 0 284.5 65.5
t93.5 160.5q0 44 -19.5 82.5t-61 72t-118 53t-179.5 19.5q-197 0 -289 -64t-92 -163q0 -95 94 -160.5t287 -65.5z" />
    <glyph glyph-name="nine.osf" horiz-adv-x="1570" 
d="M752 -369q-145 0 -260.5 34.5t-186.5 93.5t-111 129t-49 149h318q14 -74 100 -114t203 -40q160 0 256.5 118t99.5 294q-176 -182 -442 -182q-133 0 -242 46t-177 122.5t-105 172t-37 199.5q0 84 23.5 164.5t75 154t126 128.5t184 88t240.5 33q334 0 501 -200t167 -566
q0 -91 -10 -175.5t-34 -168t-60 -154t-91 -131.5t-124 -104t-162 -67t-203 -24zM762 358q156 0 251 86t95 215t-94.5 213t-251.5 84q-150 0 -241 -84.5t-91 -212.5q0 -129 91.5 -215t240.5 -86z" />
    <glyph glyph-name="zero.ss01" horiz-adv-x="1697" 
d="M850 -33q-149 0 -272 43t-208 118t-144 178t-86 221.5t-27 250.5t27 250.5t86 221.5t144 178t208 118t272 43q150 0 273.5 -43t208 -118t142.5 -178t84.5 -221.5t26.5 -250.5t-26.5 -250.5t-84.5 -221.5t-142.5 -178t-208 -118t-273.5 -43zM850 242q87 0 159 30.5t120 82
t81 121t47.5 145t14.5 157.5t-14.5 157.5t-47.5 145.5t-81 121.5t-120 82t-159 30.5t-158.5 -30.5t-119.5 -82t-80.5 -121.5t-47 -145.5t-14.5 -157.5q0 -103 24 -195.5t72.5 -170.5t132 -124t191.5 -46z" />
    <glyph glyph-name="one.ss01" horiz-adv-x="841" 
d="M457 0v1194l-375 -289v365l375 286h301v-1556h-301z" />
    <glyph glyph-name="two.ss01" horiz-adv-x="1636" 
d="M119 -2l-2 305l413 213q-217 23 -343 167t-126 351q0 87 23 166t76 150.5t130.5 124t195 83.5t262.5 31q147 0 265.5 -32t195 -85.5t127.5 -126.5t72.5 -151t21.5 -164q0 -84 -20.5 -155t-68 -139.5t-131.5 -129.5t-204 -114l-410 -189h840v-305h-1317zM748 725
q178 0 274 85t96 214q0 132 -95.5 218.5t-274.5 86.5q-181 0 -278 -86.5t-97 -214.5q0 -129 97 -216t278 -87z" />
    <glyph glyph-name="three.ss01" horiz-adv-x="1568" 
d="M776 -33q-151 0 -270.5 31t-198 84.5t-130 128t-73.5 157.5t-22 179q0 95 21 175t68 154t131 133.5t202 100.5l368 143h-790v306h1304l3 -306l-406 -186q157 0 272.5 -72t172.5 -190.5t57 -267.5q0 -93 -23.5 -174.5t-77 -155t-134 -126t-201.5 -83.5t-273 -31zM782 242
q180 0 276.5 86.5t96.5 222.5q0 138 -95.5 224.5t-277.5 86.5q-181 0 -276.5 -86.5t-95.5 -224.5q0 -136 96 -222.5t276 -86.5z" />
    <glyph glyph-name="four.ss01" horiz-adv-x="1501" 
d="M1419 594v-303h-168v-291h-301v291h-868v323l846 942h323v-962h168zM426 594h524v555z" />
    <glyph glyph-name="five.ss01" horiz-adv-x="1558" 
d="M782 -33q-146 0 -264.5 31.5t-198.5 85.5t-134 130.5t-78.5 163.5t-24.5 187q0 144 41 301q57 234 178 690h983v-303h-745l-78 -280q124 121 389 121q302 0 464.5 -152t162.5 -403q0 -118 -39.5 -218.5t-120 -181t-217.5 -126.5t-318 -46zM782 242q179 0 276 86t97 215
q0 132 -96 217.5t-277 85.5q-180 0 -276 -85.5t-96 -217.5q0 -129 96.5 -215t275.5 -86z" />
    <glyph glyph-name="six.ss01" horiz-adv-x="1550" 
d="M784 -33q-327 0 -514.5 157.5t-187.5 442.5q0 122 46.5 241t164 287t344.5 437l20 24h332l-440 -550q107 86 317 86q126 0 235 -37t190.5 -105t128 -172.5t46.5 -232.5q0 -120 -40.5 -222t-121.5 -183t-214 -127t-306 -46zM770 242q181 0 278 85.5t97 217.5
q0 130 -97.5 215.5t-275.5 85.5q-169 0 -270 -82.5t-101 -218.5q0 -131 94.5 -217t274.5 -86z" />
    <glyph glyph-name="seven.ss01" horiz-adv-x="1302" 
d="M307 0q31 325 193.5 650.5t408.5 602.5h-827v303h1137v-352q-90 -110 -161 -204.5t-151 -220.5t-135 -243t-97 -257.5t-54 -278.5h-314z" />
    <glyph glyph-name="nine.ss01" horiz-adv-x="1558" 
d="M195 0v279h827l78 284q-125 -110 -375 -110q-156 0 -279.5 41.5t-202.5 116.5t-120 177t-41 224q0 121 40 223t121.5 182.5t217.5 126t315 45.5q148 0 267 -32t199 -87t133.5 -131t77.5 -161.5t24 -182.5q0 -119 -31 -243l-180 -752h-1071zM774 717q180 0 276.5 85
t96.5 214q0 132 -96 218.5t-275 86.5q-182 0 -277.5 -86.5t-95.5 -218.5q0 -129 95.5 -214t275.5 -85z" />
    <glyph glyph-name="zero.tf" horiz-adv-x="1685" 
d="M815 -33q-179 0 -320.5 62t-232 172t-137.5 256.5t-47 320.5t47 320.5t137.5 256.5t232 172t320.5 62q180 0 321.5 -62t231 -172t136 -256.5t46.5 -320.5t-46.5 -320.5t-136 -256.5t-231 -172t-321.5 -62zM813 236q136 0 232 72t141 192t45 278t-45 278.5t-141 192.5
t-232 72t-231.5 -72t-141 -193t-45.5 -278t45.5 -277.5t141 -192.5t231.5 -72z" />
    <glyph glyph-name="one.tf" horiz-adv-x="1685" 
d="M965 303h585v-303h-1472v303h586v950h-508v303h809v-1253z" />
    <glyph glyph-name="two.tf" horiz-adv-x="1685" 
d="M152 -2v305q444 234 712 418q153 107 229 191.5t76 177.5q0 107 -93 169t-273 62q-202 0 -306 -82t-104 -240q0 -81 19 -163h-316q-18 85 -18 168q0 100 25 185.5t81.5 160t140.5 127t208.5 82.5t279.5 30q173 0 304.5 -37t211 -103t119 -152t39.5 -191q0 -147 -86 -274
t-297 -271q-183 -124 -463 -258h909v-305h-1398z" />
    <glyph glyph-name="three.tf" horiz-adv-x="1685" 
d="M801 -33q-310 0 -495 112t-228 322h323q60 -168 400 -168q126 0 217 21t139 58.5t69 79.5t21 93q0 265 -559 265h-207v229l619 295h-895v282h1272v-323l-584 -272l8 -3q192 0 337 -52.5t228.5 -158.5t83.5 -253q0 -76 -21.5 -146.5t-76 -141t-137.5 -122.5t-215 -84.5
t-299 -32.5z" />
    <glyph glyph-name="four.tf" horiz-adv-x="1685" 
d="M1550 594v-303h-331v-291h-301v291h-840v323l637 942h344l-639 -962h498v340h301v-340h331z" />
    <glyph glyph-name="five.tf" horiz-adv-x="1685" 
d="M803 -33q-324 0 -516.5 121.5t-208.5 312.5h325q6 -57 64.5 -96.5t140.5 -56.5t180 -17q118 0 208 25.5t143 70t79.5 99t26.5 117.5q0 129 -107.5 216t-308.5 87q-155 0 -254 -54.5t-145 -134.5h-338l262 899h1008v-282h-797l-100 -320q134 140 422 140
q167 0 296.5 -44.5t208 -122t118.5 -176t40 -214.5q0 -92 -24.5 -173t-80.5 -155t-140.5 -127t-213 -84t-288.5 -31z" />
    </font>
</defs>
</svg>
